<?xml version="1.0" encoding="UTF-8" standalone="no"?>
<!-- Created with Inkscape (http://www.inkscape.org/) -->

<svg
   xmlns:dc="http://purl.org/dc/elements/1.1/"
   xmlns:cc="http://creativecommons.org/ns#"
   xmlns:rdf="http://www.w3.org/1999/02/22-rdf-syntax-ns#"
   xmlns:svg="http://www.w3.org/2000/svg"
   xmlns="http://www.w3.org/2000/svg"
   xmlns:sodipodi="http://sodipodi.sourceforge.net/DTD/sodipodi-0.dtd"
   xmlns:inkscape="http://www.inkscape.org/namespaces/inkscape"
   width="146.49879mm"
   height="64.536598mm"
   viewBox="0 0 519.09022 228.67298"
   id="svg8530"
   version="1.1"
   inkscape:version="0.91 r"
   sodipodi:docname="blog-camera.svg">
  <defs
     id="defs8532" />
  <sodipodi:namedview
     id="base"
     pagecolor="#ffffff"
     bordercolor="#666666"
     borderopacity="1.0"
     inkscape:pageopacity="0.0"
     inkscape:pageshadow="2"
     inkscape:zoom="0.35"
     inkscape:cx="240.25938"
     inkscape:cy="188.62222"
     inkscape:document-units="px"
     inkscape:current-layer="layer1"
     showgrid="false"
     inkscape:window-width="1920"
     inkscape:window-height="1004"
     inkscape:window-x="-2"
     inkscape:window-y="-3"
     inkscape:window-maximized="1"
     fit-margin-top="0"
     fit-margin-left="0"
     fit-margin-right="0"
     fit-margin-bottom="0" />
  <metadata
     id="metadata8535">
    <rdf:RDF>
      <cc:Work
         rdf:about="">
        <dc:format>image/svg+xml</dc:format>
        <dc:type
           rdf:resource="http://purl.org/dc/dcmitype/StillImage" />
        <dc:title></dc:title>
      </cc:Work>
    </rdf:RDF>
  </metadata>
  <g
     inkscape:label="Vrstva 1"
     inkscape:groupmode="layer"
     id="layer1"
     transform="translate(-134.74062,-492.31144)">
    <rect
       inkscape:export-ydpi="250"
       inkscape:export-xdpi="250"
       inkscape:export-filename="/Users/Matt/Desktop/blog.png"
       style="opacity:0.97600002;fill:#000000;fill-opacity:1;stroke:#0f0808;stroke-width:2.12577581;stroke-miterlimit:4;stroke-dasharray:none;stroke-opacity:1"
       id="rect21349"
       width="516.96442"
       height="226.54721"
       x="135.80351"
       y="493.37433" />
    <path
       inkscape:connector-curvature="0"
       id="path21397"
       d="m 451.0202,651.20151 c -0.568,-0.613 -1.033,-1.568 -1.033,-2.122 0,-0.554 -0.943,-1.887 -2.091,-2.964 -1.149,-1.075 -2.09,-2.725 -2.09,-3.665 0,-0.941 -0.596,-1.955 -1.321,-2.256 -0.727,-0.3 -9.072,-0.546 -18.543,-0.546 -15.805,0 -17.522,0.157 -20.859,1.896 -3.071,1.6 -4.005,1.731 -6.002,0.84 -3.325,-1.483 -4.589,-4.46 -3.919,-9.254 0.445,-3.204 0.03,-5.33 -2.006,-11.097 -2.203,-6.145 -3.031,-7.445 -5.981,-9.383 -1.884,-1.238 -3.85,-2.129 -4.369,-1.98 -0.517,0.149 -4.908,1.869 -9.754,3.825 -4.848,1.955 -9.331,3.554 -9.966,3.554 -1.6,0 -20.177,-8.999 -21.978,-10.648 -0.809,-0.739 -1.903,-2.898 -2.431,-4.797 -0.527,-1.9 -1.371,-3.491 -1.874,-3.538 -0.502,-0.05 -6.272,-0.02 -12.822,0.08 -7.135,0.1 -11.91,-0.186 -11.91,-0.703 0,-0.931 109.028,-45.22001 111.268,-45.19801 1.594,0.02 9.547,21.743 8.763,23.941 -0.265,0.74 -3.212,5.182 -6.552,9.87 l -6.073,8.52401 -8.777,3.577 c -12.983,5.292 -12.839,5.182 -13.687,10.516 -0.634,3.995 -0.43,5.457 1.54,11.007 1.422,4.005 2.946,6.772 4.077,7.395 0.991,0.547 2.954,2.169 4.366,3.605 l 2.567,2.61 17.853,-0.243 17.852,-0.243 0.637,-2.561 c 0.35,-1.408 1.237,-3.035 1.976,-3.615 0.735,-0.58 1.802,-2.06 2.374,-3.289 0.682,-1.476 1.735,-2.235 3.098,-2.235 l 2.066,0 0,14.849 c 0,14.192 -0.06,14.86 -1.681,15.109 -0.926,0.142 -2.149,-0.242 -2.718,-0.855 z m -103.846,-51.204 c 0,-0.465 -0.562,-0.847 -1.252,-0.847 -1.293,0 -1.662,1.062 -0.72,2.076 0.667,0.719 1.972,-0.09 1.972,-1.229 z m -10.656,27.683 c -0.422,-0.595 -1.249,-2.398 -1.843,-4.006 -0.767,-2.087 -1.614,-2.925 -2.952,-2.925 -1.572,0 -2.239,-1.068 -4.082,-6.525 -2.455,-7.261 -2.627,-8.471 -1.257,-8.962 0.517,-0.184 0.988,-1.333 1.044,-2.55 0.08,-2.062 0.409,-2.212 4.609,-2.212 4.712,0 4.768,0.04 6.945,5.358 0.892,2.178 2.787,3.479 10.49,7.2 5.17,2.498 9.4,5.068 9.401,5.712 0,1.285 -2.424,2.505 -13.929,6.999 -5.781,2.259 -7.848,2.728 -8.426,1.911 z m -12.502,-2.656 c -0.984,-1.389 -6.096,-16.12 -6.096,-17.563 0,-0.576 0.816,-1.518 1.814,-2.093 2.393,-1.38 3.106,-0.284 6.6,10.147 2.641,7.884 2.683,8.226 1.182,9.407 -1.924,1.515 -2.489,1.531 -3.5,0.101 z"
       style="opacity:0.97600002;fill:none;stroke:#ffffff;stroke-width:3;stroke-miterlimit:4;stroke-dasharray:none;stroke-opacity:1"
       sodipodi:nodetypes="sscscsscccsccsssccsccscsscccccccccscscssscsccssccscccsccscscc"
       inkscape:export-filename="/Users/Matt/Desktop/blog.png"
       inkscape:export-xdpi="250"
       inkscape:export-ydpi="250" />
  </g>
</svg>
