<?xml version="1.0" encoding="UTF-8" standalone="no"?>
<!-- Created with Inkscape (http://www.inkscape.org/) -->

<svg
   xmlns:dc="http://purl.org/dc/elements/1.1/"
   xmlns:cc="http://creativecommons.org/ns#"
   xmlns:rdf="http://www.w3.org/1999/02/22-rdf-syntax-ns#"
   xmlns:svg="http://www.w3.org/2000/svg"
   xmlns="http://www.w3.org/2000/svg"
   xmlns:sodipodi="http://sodipodi.sourceforge.net/DTD/sodipodi-0.dtd"
   xmlns:inkscape="http://www.inkscape.org/namespaces/inkscape"
   width="146.75555mm"
   height="64.417099mm"
   viewBox="0 0 520 228.24956"
   id="svg8469"
   version="1.1"
   inkscape:version="0.91 r"
   sodipodi:docname="blog-glasses.svg">
  <defs
     id="defs8471" />
  <sodipodi:namedview
     id="base"
     pagecolor="#ffffff"
     bordercolor="#666666"
     borderopacity="1.0"
     inkscape:pageopacity="0.0"
     inkscape:pageshadow="2"
     inkscape:zoom="0.35"
     inkscape:cx="289.2857"
     inkscape:cy="-83.018073"
     inkscape:document-units="px"
     inkscape:current-layer="layer1"
     showgrid="false"
     fit-margin-top="0"
     fit-margin-left="0"
     fit-margin-right="0"
     fit-margin-bottom="0"
     inkscape:window-width="1920"
     inkscape:window-height="1004"
     inkscape:window-x="-2"
     inkscape:window-y="-3"
     inkscape:window-maximized="1" />
  <metadata
     id="metadata8474">
    <rdf:RDF>
      <cc:Work
         rdf:about="">
        <dc:format>image/svg+xml</dc:format>
        <dc:type
           rdf:resource="http://purl.org/dc/dcmitype/StillImage" />
        <dc:title></dc:title>
      </cc:Work>
    </rdf:RDF>
  </metadata>
  <g
     inkscape:label="Vrstva 1"
     inkscape:groupmode="layer"
     id="layer1"
     transform="translate(-85.714296,-221.09455)">
    <rect
       y="222.15744"
       x="86.777184"
       height="226.12379"
       width="517.87421"
       id="rect21347"
       style="opacity:0.97600002;fill:#000000;fill-opacity:1;stroke:#0f0808;stroke-width:2.12577581;stroke-miterlimit:4;stroke-dasharray:none;stroke-opacity:1"
       inkscape:export-filename="/Users/Matt/Desktop/blog.png"
       inkscape:export-xdpi="250"
       inkscape:export-ydpi="250" />
    <path
       inkscape:connector-curvature="0"
       id="path21399"
       d="m 306.0293,385.4689 c -9.946,-1.453 -16.087,-4.98 -19.648,-11.283 -2.091,-3.702 -2.903,-7.404 -3.295,-15.005 -0.322,-6.245 -0.654,-7.246 -2.952,-8.87 -1.467,-1.037 -2.39,-2.851 -2.388,-4.686 0,-4.112 1.865,-5.856 7.436,-6.972 7.325,-1.467 17.636,-2.463 25.496,-2.461 7.7,0 10.425,0.332 22.301,2.703 9.444,1.886 9.963,1.952 14.007,1.789 2.881,-0.118 5.194,-0.461 10.835,-1.611 11.923,-2.432 13.534,-2.645 21.247,-2.804 7.33,-0.154 12.754,0.203 21.11501,1.38 7.568,1.066 11.008,2.087 12.334,3.66 0.69,0.821 1.186,2.547 1.198,4.173 0,1.983 -0.854,3.752 -2.378,4.829 -2.298,1.624 -2.629,2.625 -2.951,8.87 -0.286,5.526 -0.775,8.819 -1.711,11.495 -3.74,10.684 -13.88901,15.636 -31.00401,15.128 -6.292,-0.187 -9.636,-0.871 -13.264,-2.716 -7.482,-3.804 -10.786,-9.922 -11.601,-21.479 -0.55,-7.796 -1.98,-10.854 -5.08,-10.854 -3.07,0 -4.51,3.091 -5.058,10.854 -0.546,7.712 -1.991,12.284 -5.217,16.523 -2.246,2.945 -6.699,5.594 -11.431,6.799 -2.54,0.646 -3.533,0.736 -9.094,0.825 -4.27,0.07 -7.079,-0.02 -8.897,-0.287 z m 15.14,-7.268 c 3.399,-0.955 5.83,-2.39 7.987,-4.714 3.122,-3.356 4.54,-7.404 4.817,-13.735 0.449,-10.314 -1.905,-14.002 -10.023,-15.7 -3.442,-0.721 -14.679,-1.157 -19.753,-0.768 -11.021,0.846 -14,2.879 -14.404,9.827 -0.234,4.055 0.291,11.412 0.977,13.639 2.124,6.915 7.95,10.963 17.251,11.992 3.869,0.427 10.703,0.147 13.148,-0.541 z m 64.928,0.132 c 3.282,-0.638 4.934,-1.21 7.273,-2.514 3.713,-2.073 6.08501,-5.006 7.33101,-9.068 0.68,-2.215 1.205,-9.265 1,-13.445 -0.351,-7.149 -3.379,-9.216 -14.67001,-10.024 -5.153,-0.369 -15.6,0.04 -19.316,0.748 -8.215,1.575 -10.667,5.348 -10.215,15.723 0.419,9.609 4.225,15.583 11.475,18.01 1.168,0.391 2.844,0.83 3.72,0.977 2.237,0.373 10.71,0.115 13.402,-0.407 z m -105.036,-43.031 c 0.119,-0.218 6.438,-10.546 14.048,-22.948 8.306,-13.531 14.377,-23.142 15.181,-24.028 0.733,-0.812 1.868,-1.767 2.516,-2.122 2.291,-1.257 5.608,-1.01 8.621,0.641 3.805,2.089 12.579,14.878 13.402,19.535 0.764,4.335 -2.6,7.654 -5.998,5.92 -1.282,-0.653 -1.955,-1.715 -3.657,-5.762 -3.276,-7.794 -5.736,-10.907 -8.612,-10.907 -1.066,0 -2.607,0.832 -3.525,1.902 -0.385,0.446 -5.863,8.588 -12.177,18.092 -6.314,9.504 -11.738,17.549 -12.054,17.878 -0.405,0.424 -1.463,0.788 -3.626,1.247 -1.679,0.357 -3.339,0.717 -3.691,0.8 -0.488,0.118 -0.589,0.06 -0.428,-0.248 z m 127.22101,-0.127 c -0.73,-0.216 -2.188,-0.543 -3.24,-0.725 -1.331,-0.232 -2.065,-0.517 -2.424,-0.939 -0.284,-0.333 -5.68201,-8.382 -12.00101,-17.886 -6.317,-9.504 -11.798,-17.646 -12.18,-18.092 -1.788,-2.085 -4.16,-2.411 -6.237,-0.858 -1.523,1.138 -3.777,4.87 -5.74,9.505 -1.868,4.414 -2.522,5.459 -3.818,6.12 -3.397,1.735 -6.763,-1.585 -5.998,-5.919 0.819,-4.658 9.593,-17.447 13.402,-19.536 3.01,-1.651 6.33,-1.898 8.62,-0.641 0.648,0.356 1.781,1.31 2.515,2.122 0.803,0.886 6.877,10.497 15.179,24.028 7.61501,12.403 13.92501,22.711 14.02801,22.907 0.233,0.454 -0.361,0.429 -2.106,-0.09 z"
       style="opacity:0.97600002;fill:none;stroke:#ffffff;stroke-width:3;stroke-miterlimit:4;stroke-dasharray:none;stroke-opacity:1"
       sodipodi:nodetypes="cssscscsssssccssssssssssscsssssscsssscssssscscsccssssscsccscsssscsscssccscs"
       inkscape:export-filename="/Users/Matt/Desktop/blog.png"
       inkscape:export-xdpi="250"
       inkscape:export-ydpi="250" />
  </g>
</svg>
