<?xml version="1.0" encoding="UTF-8" standalone="no"?>
<!-- Created with Inkscape (http://www.inkscape.org/) -->

<svg
   xmlns:dc="http://purl.org/dc/elements/1.1/"
   xmlns:cc="http://creativecommons.org/ns#"
   xmlns:rdf="http://www.w3.org/1999/02/22-rdf-syntax-ns#"
   xmlns:svg="http://www.w3.org/2000/svg"
   xmlns="http://www.w3.org/2000/svg"
   xmlns:sodipodi="http://sodipodi.sourceforge.net/DTD/sodipodi-0.dtd"
   xmlns:inkscape="http://www.inkscape.org/namespaces/inkscape"
   width="130.00198"
   height="23.982399"
   id="svg2"
   inkscape:label="Pozadí"
   version="1.1"
   inkscape:version="0.91+devel+osxmenu r12832"
   viewBox="0 0 130.00198 23.9824"
   sodipodi:docname="careerdays-white.svg">
  <defs
     id="defs11404" />
  <sodipodi:namedview
     id="base"
     pagecolor="#ffffff"
     bordercolor="#666666"
     borderopacity="1.0"
     inkscape:pageopacity="0.0"
     inkscape:pageshadow="2"
     inkscape:zoom="0.87226562"
     inkscape:cx="195.91354"
     inkscape:cy="-130.4952"
     inkscape:document-units="px"
     inkscape:current-layer="layer1"
     showgrid="false"
     fit-margin-top="0"
     fit-margin-left="0"
     fit-margin-right="0"
     fit-margin-bottom="0"
     showborder="false"
     inkscape:window-width="1015"
     inkscape:window-height="783"
     inkscape:window-x="667"
     inkscape:window-y="1103"
     inkscape:window-maximized="0" />
  <metadata
     id="metadata11407">
    <rdf:RDF>
      <cc:Work
         rdf:about="">
        <dc:format>image/svg+xml</dc:format>
        <dc:type
           rdf:resource="http://purl.org/dc/dcmitype/StillImage" />
        <dc:title></dc:title>
      </cc:Work>
    </rdf:RDF>
  </metadata>
  <g
     inkscape:label="Vrstva 1"
     inkscape:groupmode="layer"
     id="layer1"
     transform="translate(-179.08646,-377.88459)">
    <path
       inkscape:connector-curvature="0"
       style="opacity:0.97600002;fill:#ffffff;fill-opacity:1;stroke:none;stroke-width:1;stroke-linejoin:miter;stroke-miterlimit:4;stroke-dasharray:none;stroke-opacity:1"
       d="m 244.63945,377.88459 0,23.9824 64.449,0 0,-23.9824 -64.449,0 z m -58.875,3.7011 c -1.861,0 -3.393,0.6098 -4.598,1.8282 -1.386,1.399 -2.08,3.3906 -2.08,5.9746 0,2.3898 0.61,4.2703 1.828,5.6425 1.218,1.3656 2.893,2.0489 5.022,2.0489 1.721,0 3.129,-0.5049 4.226,-1.5157 1.104,-1.0108 1.791,-2.3222 2.059,-3.9355 l -3.061,0 c -0.208,0.7631 -0.469,1.3353 -0.785,1.7168 -0.568,0.7096 -1.396,1.0644 -2.48,1.0644 -1.058,0 -1.931,-0.4129 -2.621,-1.2363 -0.683,-0.8302 -1.024,-2.0743 -1.024,-3.7344 0,-1.6602 0.326,-2.942 0.975,-3.8457 0.649,-0.9104 1.535,-1.3652 2.66,-1.3652 1.105,0 1.938,0.3203 2.5,0.9629 0.315,0.3615 0.574,0.8979 0.775,1.6074 l 3.09,0 c -0.05,-0.9237 -0.385,-1.8446 -1.021,-2.7617 -1.153,-1.6334 -2.975,-2.4512 -5.465,-2.4512 z m 112.226,0.072 c 1.576,0 2.918,0.4174 4.028,1.2559 1.116,0.8316 1.701,2.0438 1.754,3.6328 l -3.002,0 c -0.05,-0.8994 -0.447,-1.5394 -1.178,-1.918 -0.486,-0.2502 -1.09,-0.375 -1.814,-0.375 -0.804,0 -1.446,0.1618 -1.926,0.4863 -0.48,0.3247 -0.721,0.778 -0.721,1.3594 0,0.5341 0.236,0.9335 0.709,1.1973 0.304,0.1757 0.953,0.3825 1.947,0.6191 l 2.578,0.6172 c 1.129,0.2705 1.98,0.6329 2.555,1.0859 0.893,0.7032 1.338,1.7207 1.338,3.0528 0,1.3659 -0.522,2.5021 -1.57,3.4082 -1.042,0.8994 -2.516,1.3496 -4.422,1.3496 -1.947,0 -3.48,-0.4442 -4.596,-1.3301 -1.115,-0.8925 -1.674,-2.1147 -1.674,-3.6699 l 2.983,0 c 0.09,0.683 0.28,1.1932 0.558,1.5312 0.507,0.6154 1.375,0.9219 2.606,0.9219 0.736,0 1.335,-0.08 1.795,-0.2422 0.872,-0.311 1.308,-0.8892 1.308,-1.7344 0,-0.4937 -0.215,-0.8761 -0.648,-1.1464 -0.433,-0.2638 -1.113,-0.4965 -2.039,-0.6993 l -1.582,-0.3554 c -1.556,-0.3516 -2.632,-0.734 -3.227,-1.1465 -1.007,-0.6897 -1.51,-1.7691 -1.51,-3.2363 0,-1.339 0.486,-2.4503 1.459,-3.336 0.974,-0.8858 2.405,-1.3281 4.291,-1.3281 z m -48.013,0.4355 6.439,0 c 0.926,0.013 1.697,0.1212 2.313,0.3243 1.048,0.3449 1.897,0.977 2.547,1.8964 0.52,0.7438 0.875,1.5486 1.064,2.4141 0.189,0.8655 0.283,1.6903 0.283,2.4746 0,1.988 -0.399,3.6714 -1.197,5.0508 -1.082,1.8595 -2.752,2.7891 -5.01,2.7891 l -6.439,0 0,-14.9493 z m 19.457,0 3.527,0 5.297,14.9493 -3.389,0 -0.963,-3.0723 -5.507,0 -1.035,3.0723 -3.266,0 5.336,-14.9493 z m 7.89,0 3.68,0 3.106,6.5118 2.97,-6.5118 3.539,0 -5,9.3301 0,5.6192 -3.123,0 0,-5.6192 -5.172,-9.3301 z m -24.316,2.5957 0,9.7579 2.881,0 c 1.475,0 2.503,-0.7279 3.084,-2.1817 0.318,-0.7979 0.476,-1.7475 0.476,-2.8496 0,-1.5214 -0.24,-2.6866 -0.72,-3.498 -0.474,-0.8182 -1.419,-1.2286 -2.84,-1.2286 l -2.881,0 z m -35.383,0.7422 c -1.528,0 -2.772,0.509 -3.734,1.5176 -0.957,1.0108 -1.438,2.4629 -1.438,4.3574 0,2.0216 0.532,3.4819 1.596,4.3789 1.064,0.8972 2.294,1.3457 3.688,1.3457 1.687,0 2.998,-0.5331 3.935,-1.5976 0.603,-0.6695 0.942,-1.3293 1.016,-1.9785 l -2.922,0 c -0.155,0.3212 -0.333,0.5731 -0.533,0.7539 -0.368,0.3346 -0.849,0.5019 -1.438,0.5019 -0.555,0 -1.029,-0.1377 -1.424,-0.4121 -0.65,-0.4418 -0.995,-1.2106 -1.035,-2.3086 l 7.49,0 c 0,-0.9437 -0.03,-1.6678 -0.1,-2.1699 -0.128,-0.8569 -0.406,-1.6104 -0.834,-2.2598 -0.476,-0.7363 -1.078,-1.2737 -1.809,-1.6152 -0.726,-0.3401 -1.542,-0.5124 -2.449,-0.5137 l -0.01,0 z m 11.617,0 c -1.532,0 -2.781,0.5068 -3.746,1.5176 -0.958,1.0108 -1.435,2.4629 -1.435,4.3574 0,2.0216 0.531,3.4819 1.597,4.3789 1.064,0.8972 2.292,1.3457 3.684,1.3457 1.687,0 3,-0.5331 3.938,-1.5976 0.601,-0.6695 0.939,-1.3293 1.013,-1.9785 l -2.922,0 c -0.153,0.3212 -0.332,0.5731 -0.533,0.7539 -0.367,0.3346 -0.845,0.5019 -1.435,0.5019 -0.556,0 -1.03,-0.1377 -1.426,-0.4121 -0.648,-0.4418 -0.993,-1.2106 -1.033,-2.3086 l 7.49,0 c 0.02,-0.9437 0,-1.6678 -0.08,-2.1699 -0.128,-0.8569 -0.406,-1.6104 -0.834,-2.2598 -0.476,-0.7363 -1.079,-1.2737 -1.809,-1.6152 -0.728,-0.3413 -1.547,-0.5137 -2.459,-0.5137 l -0.01,0 z m -30.513,0.031 c -1.842,0 -3.141,0.4813 -3.897,1.4453 -0.476,0.6159 -0.744,1.4022 -0.804,2.3594 l 2.761,0 c 0.07,-0.4217 0.201,-0.7563 0.403,-1.0039 0.28,-0.3349 0.759,-0.502 1.435,-0.502 0.602,0 1.057,0.088 1.365,0.2617 0.314,0.1674 0.471,0.4755 0.471,0.9239 0,0.3682 -0.203,0.6383 -0.611,0.8125 -0.227,0.1005 -0.606,0.1852 -1.135,0.2519 l 0,0 -0.973,0.1211 c -1.104,0.1405 -1.94,0.3731 -2.509,0.7012 -1.037,0.6024 -1.557,1.5763 -1.557,2.9219 0,1.0376 0.322,1.8412 0.963,2.4101 0.65,0.5623 1.47,0.8438 2.461,0.8438 0.776,0 1.473,-0.1766 2.09,-0.5313 0.515,-0.3013 0.97,-0.6672 1.365,-1.0957 0.02,0.2478 0.04,0.47 0.08,0.6641 0.03,0.1942 0.1,0.4002 0.184,0.6211 l 3.111,0 0,-0.4219 c -0.187,-0.087 -0.328,-0.1962 -0.422,-0.3301 -0.09,-0.1339 -0.15,-0.3889 -0.17,-0.7637 -0.01,-0.4954 -0.02,-0.9175 -0.02,-1.2656 l 0,-5.0195 c 0,-1.3188 -0.467,-2.2162 -1.397,-2.6914 -0.931,-0.4754 -1.993,-0.7129 -3.191,-0.7129 z m 12.861,0 c -0.857,0 -1.552,0.2253 -2.088,0.6738 -0.328,0.2678 -0.712,0.7665 -1.154,1.4961 l 0,-1.9082 -2.733,0 0,10.9453 2.883,0 0,-5.2324 c 0,-0.8769 0.111,-1.5255 0.332,-1.9473 0.396,-0.7496 1.169,-1.125 2.321,-1.125 0.09,0 0.198,0 0.338,0.01 0.141,0.01 0.303,0.021 0.484,0.041 l 0,-2.9316 c -0.127,-0.01 -0.212,-0.012 -0.252,-0.012 -0.03,-0.01 -0.08,-0.01 -0.131,-0.01 z m 30.586,0 c -0.857,0 -1.553,0.2253 -2.088,0.6738 -0.329,0.2678 -0.714,0.7665 -1.154,1.4961 l 0,-1.9082 -2.733,0 0,10.9453 2.881,0 0,-5.2324 c 0,-0.8769 0.111,-1.5255 0.332,-1.9473 0.395,-0.7496 1.169,-1.125 2.321,-1.125 0.09,0 0.2,0 0.339,0.01 0.14,0.01 0.302,0.021 0.483,0.041 l 0,-2.9316 c -0.127,-0.01 -0.21,-0.012 -0.25,-0.012 -0.03,-0.01 -0.08,-0.01 -0.131,-0.01 z m 28.992,0.049 -1.928,5.8828 3.793,0 -1.865,-5.8828 z m -53.543,2.2813 c 0.61,0 1.118,0.1968 1.526,0.5918 0.415,0.3882 0.646,0.9604 0.693,1.7168 l -4.449,0 c 0.09,-0.7096 0.324,-1.2725 0.685,-1.6875 0.368,-0.4152 0.883,-0.6211 1.545,-0.6211 z m 11.627,0 c 0.609,0 1.119,0.1968 1.528,0.5918 0.415,0.3882 0.646,0.9604 0.693,1.7168 l -4.449,0 c 0.09,-0.7096 0.32,-1.2725 0.681,-1.6875 0.37,-0.4152 0.885,-0.6211 1.547,-0.6211 z m -28.799,3.5547 0,1.0644 c -0.02,0.9573 -0.289,1.6152 -0.812,1.9766 -0.515,0.3614 -1.08,0.5429 -1.695,0.5429 -0.388,0 -0.72,-0.1081 -0.995,-0.3222 -0.268,-0.221 -0.404,-0.5739 -0.404,-1.0625 0,-0.5489 0.222,-0.9558 0.664,-1.2168 0.262,-0.1541 0.693,-0.2836 1.295,-0.3907 l 0.645,-0.121 c 0.32,-0.06 0.57,-0.1228 0.752,-0.1895 0.186,-0.074 0.37,-0.1674 0.55,-0.2812 z"
       id="rect16977-1" />
  </g>
</svg>
