<?xml version="1.0" encoding="UTF-8" standalone="no"?>
<!-- Created with Inkscape (http://www.inkscape.org/) -->

<svg
   xmlns:dc="http://purl.org/dc/elements/1.1/"
   xmlns:cc="http://creativecommons.org/ns#"
   xmlns:rdf="http://www.w3.org/1999/02/22-rdf-syntax-ns#"
   xmlns:svg="http://www.w3.org/2000/svg"
   xmlns="http://www.w3.org/2000/svg"
   xmlns:sodipodi="http://sodipodi.sourceforge.net/DTD/sodipodi-0.dtd"
   xmlns:inkscape="http://www.inkscape.org/namespaces/inkscape"
   width="130.00021"
   height="18.631828"
   id="svg2"
   inkscape:label="Pozadí"
   version="1.1"
   inkscape:version="0.91+devel+osxmenu r12832"
   viewBox="0 0 130.00021 18.631829"
   sodipodi:docname="deimos-white.svg">
  <defs
     id="defs11404" />
  <sodipodi:namedview
     id="base"
     pagecolor="#ffffff"
     bordercolor="#666666"
     borderopacity="1.0"
     inkscape:pageopacity="0.0"
     inkscape:pageshadow="2"
     inkscape:zoom="0.87226562"
     inkscape:cx="166.80041"
     inkscape:cy="-46.844808"
     inkscape:document-units="px"
     inkscape:current-layer="layer1"
     showgrid="false"
     fit-margin-top="0"
     fit-margin-left="0"
     fit-margin-right="0"
     fit-margin-bottom="0"
     showborder="false"
     inkscape:window-width="1015"
     inkscape:window-height="783"
     inkscape:window-x="667"
     inkscape:window-y="1103"
     inkscape:window-maximized="0" />
  <metadata
     id="metadata11407">
    <rdf:RDF>
      <cc:Work
         rdf:about="">
        <dc:format>image/svg+xml</dc:format>
        <dc:type
           rdf:resource="http://purl.org/dc/dcmitype/StillImage" />
        <dc:title></dc:title>
      </cc:Work>
    </rdf:RDF>
  </metadata>
  <g
     inkscape:label="Vrstva 1"
     inkscape:groupmode="layer"
     id="layer1"
     transform="translate(-208.19959,-466.88555)">
    <path
       inkscape:export-ydpi="250"
       inkscape:export-xdpi="250"
       inkscape:export-filename="/Users/Matt/Desktop/seeweb3.png"
       inkscape:connector-curvature="0"
       id="path15979"
       d="m 270.32259,485.39903 0.314,-0.1198 0,-5.9214 c 0,-3.4067 0.05,-5.9975 0.116,-6.1005 0.15,-0.2372 4.602,-0.3591 5.016,-0.1374 l 0.263,0.1412 0,6.0017 c 0,5.9497 0,6.0028 0.255,6.138 0.404,0.216 3.526,0.1075 3.673,-0.1275 0.07,-0.1094 0.118,-2.5944 0.119,-6.0982 0,-5.7204 0,-5.918 0.239,-6.0408 0.282,-0.1512 4.654,-0.1712 4.888,-0.022 0.128,0.08 0.165,1.3558 0.185,6.1354 0.03,5.2122 0.05,6.0508 0.21,6.1513 0.239,0.1514 3.439,0.1514 3.679,0 0.16,-0.1013 0.185,-0.9626 0.185,-6.5297 0,-4.7744 -0.03,-6.5419 -0.154,-6.9162 -0.385,-1.2652 -1.151,-1.8062 -2.791,-1.974 -1.579,-0.1618 -17.444,0.011 -18.008,0.1931 -0.258,0.084 -0.686,0.3498 -0.953,0.5899 -0.801,0.7252 -0.817,0.8643 -0.896,7.9606 -0.07,6.4931 -0.07,6.538 0.418,6.7112 0.324,0.1165 2.915,0.09 3.241,-0.035 z m 42.08,-0.1628 c 0.706,-0.3174 1.253,-0.8998 1.474,-1.5667 0.168,-0.5001 0.189,-1.3543 0.158,-6.2036 l -0.03,-5.6239 -0.306,-0.5473 c -0.33,-0.5882 -0.871,-1.0174 -1.581,-1.2539 -0.616,-0.2058 -13.885,-0.2924 -15.332,-0.1002 -1.496,0.1985 -2.109,0.5447 -2.549,1.438 l -0.348,0.7087 0,5.5809 c 0,5.9033 0,5.9364 0.584,6.7797 0.276,0.3984 1.008,0.7993 1.729,0.9451 0.279,0.057 3.932,0.095 8.114,0.084 7.036,-0.017 7.642,-0.036 8.095,-0.2404 z m -14.387,-3.1768 c -0.212,-0.2108 -0.212,-8.694 0,-8.9049 0.212,-0.2121 11.636,-0.2121 11.849,0 0.21,0.2109 0.21,8.6941 0,8.9049 -0.213,0.212 -11.637,0.212 -11.849,0 z m 38.251,3.2622 c 0.796,-0.2369 1.494,-0.8816 1.713,-1.5844 0.217,-0.6928 0.302,-4.2827 0.124,-5.3022 -0.195,-1.1427 -0.619,-1.8316 -1.314,-2.1389 -0.856,-0.3786 -2.351,-0.461 -8.467,-0.4643 -5.478,0 -5.674,-0.012 -5.796,-0.2407 -0.194,-0.3637 -0.163,-2.2786 0.04,-2.4475 0.12,-0.1002 1.773,-0.1298 5.917,-0.1069 l 5.751,0.032 0.03,0.4292 c 0.05,0.6844 0.138,0.9496 0.322,1.0208 0.234,0.09 3.011,-0.4938 3.235,-0.6804 0.138,-0.1139 0.167,-0.3524 0.125,-1.0111 -0.108,-1.6397 -0.734,-2.4636 -2.148,-2.8264 -0.65,-0.1659 -1.701,-0.1867 -7.721,-0.1521 -5.075,0.03 -7.091,0.081 -7.414,0.1902 -0.742,0.25 -1.244,0.668 -1.573,1.3086 -0.296,0.5749 -0.316,0.7325 -0.354,2.7866 -0.05,2.6027 0.1,3.3117 0.821,4.0373 0.876,0.8749 0.981,0.887 8.212,0.9397 4.777,0.035 6.429,0.083 6.469,0.1912 0.125,0.3306 0.126,2.5603 0,2.729 -0.112,0.1526 -1.013,0.1737 -6.264,0.1461 l -6.132,-0.032 -0.03,-0.6951 c -0.05,-1.0166 -0.11,-1.0383 -1.893,-0.7136 -0.827,0.1504 -1.6,0.3571 -1.716,0.4589 -0.179,0.157 -0.2,0.328 -0.137,1.1195 0.132,1.6716 0.697,2.5531 1.907,2.9708 0.602,0.2082 1.203,0.2251 8.139,0.2288 6.528,0 7.577,-0.022 8.156,-0.193 z m -112.915,-0.2786 c 1.874,-0.3951 3.064,-1.0204 4.294,-2.2574 1.137,-1.1422 1.715,-2.0936 2.216,-3.6456 0.28,-0.8709 0.346,-1.3246 0.393,-2.7567 0.07,-1.9712 -0.07,-2.9986 -0.599,-4.3574 -0.885,-2.2946 -2.82,-3.9455 -5.627,-4.8011 -0.908,-0.2763 -1.025,-0.2811 -8.243,-0.3208 -7.105,-0.039 -7.324,-0.034 -7.447,0.1939 -0.08,0.1532 -0.131,3.3198 -0.139,9.1077 0,8.4606 0,8.8806 0.21,9.0408 0.186,0.139 1.387,0.1582 6.969,0.1115 6.267,-0.052 6.835,-0.075 7.973,-0.3149 z m -11.008,-2.9689 c -0.199,-0.1164 -0.214,-0.5304 -0.214,-5.9218 0,-4.5424 0.03,-5.8434 0.159,-6.0134 0.147,-0.2017 0.479,-0.2136 4.874,-0.1735 4.533,0.042 4.749,0.054 5.494,0.3203 0.944,0.3372 1.532,0.704 2.13,1.3287 1.069,1.114 1.63,3.3245 1.358,5.3501 -0.456,3.4082 -2.253,4.7795 -6.71,5.1194 -2.096,0.1598 -6.81,0.1534 -7.091,-0.01 z m 40.598,3.1142 c 0.03,-0.081 -0.801,-0.7839 -1.839,-1.5637 l -1.889,-1.418 -5.516,0 c -4.125,0 -5.552,-0.037 -5.662,-0.1472 -0.09,-0.098 -0.147,-0.6313 -0.147,-1.5902 0,-1.3012 0.03,-1.4555 0.237,-1.5702 0.155,-0.082 2.385,-0.1269 6.401,-0.1269 6.887,0 7.146,-0.026 8.061,-0.8092 0.769,-0.658 0.915,-1.1647 0.974,-3.3785 0.08,-2.9822 -0.304,-3.8702 -1.883,-4.3579 -0.674,-0.208 -1.238,-0.2221 -7.781,-0.1921 -4.283,0.02 -7.302,0.083 -7.688,0.1603 -1.172,0.2363 -1.876,0.9431 -2.123,2.1336 -0.08,0.4372 -0.124,2.3823 -0.1,5.8491 0.03,5.1597 0.03,5.1983 0.323,5.7763 0.156,0.3201 0.441,0.6922 0.632,0.8271 0.819,0.5839 1.112,0.6011 9.803,0.5765 6.174,-0.017 8.159,-0.058 8.195,-0.169 z m -14.906,-9.3846 c -0.2,-0.1995 -0.2,-2.327 0,-2.5265 0.11,-0.1105 1.569,-0.1472 5.813,-0.1472 5.053,0 5.674,0.02 5.741,0.1937 0.04,0.1069 0.07,0.6847 0.07,1.2839 0,0.9517 -0.03,1.1055 -0.237,1.2167 -0.36,0.1923 -11.197,0.1731 -11.39,-0.02 z m 23.864,1.9338 c 0.03,-5.9966 0,-7.6177 -0.124,-7.695 -0.257,-0.1632 -3.456,-0.1232 -3.625,0.045 -0.111,0.1114 -0.147,1.9771 -0.147,7.6459 0,4.1241 0.03,7.5367 0.09,7.5835 0.04,0.046 0.916,0.07 1.933,0.051 l 1.846,-0.034 z"
       style="opacity:1;fill:#ffffff"
       sodipodi:nodetypes="ccscccsccccccccscccccccccccccccccscsccccccccccssccsccccccscccssccsccccccsccccccccscccsccccscccscccccscscscscccccccscccscsccccccsssccc" />
  </g>
</svg>
