<?xml version="1.0" encoding="UTF-8" standalone="no"?>
<!-- Created with Inkscape (http://www.inkscape.org/) -->

<svg
   xmlns:dc="http://purl.org/dc/elements/1.1/"
   xmlns:cc="http://creativecommons.org/ns#"
   xmlns:rdf="http://www.w3.org/1999/02/22-rdf-syntax-ns#"
   xmlns:svg="http://www.w3.org/2000/svg"
   xmlns="http://www.w3.org/2000/svg"
   xmlns:sodipodi="http://sodipodi.sourceforge.net/DTD/sodipodi-0.dtd"
   xmlns:inkscape="http://www.inkscape.org/namespaces/inkscape"
   width="38.568516mm"
   height="50.414192mm"
   viewBox="0 0 136.6601 178.63296"
   id="svg4210"
   version="1.1"
   inkscape:version="0.91 r"
   sodipodi:docname="drawing-shower.svg">
  <defs
     id="defs4212" />
  <sodipodi:namedview
     id="base"
     pagecolor="#ffffff"
     bordercolor="#666666"
     borderopacity="1.0"
     inkscape:pageopacity="0.0"
     inkscape:pageshadow="2"
     inkscape:zoom="0.35"
     inkscape:cx="560.47291"
     inkscape:cy="15.030768"
     inkscape:document-units="px"
     inkscape:current-layer="layer1"
     showgrid="false"
     fit-margin-top="0"
     fit-margin-left="0"
     fit-margin-right="0"
     fit-margin-bottom="0"
     inkscape:window-width="1920"
     inkscape:window-height="1004"
     inkscape:window-x="-2"
     inkscape:window-y="-3"
     inkscape:window-maximized="1" />
  <metadata
     id="metadata4215">
    <rdf:RDF>
      <cc:Work
         rdf:about="">
        <dc:format>image/svg+xml</dc:format>
        <dc:type
           rdf:resource="http://purl.org/dc/dcmitype/StillImage" />
        <dc:title></dc:title>
      </cc:Work>
    </rdf:RDF>
  </metadata>
  <g
     inkscape:label="Vrstva 1"
     inkscape:groupmode="layer"
     id="layer1"
     transform="translate(185.47291,-368.76001)">
    <path
       inkscape:connector-curvature="0"
       id="path12542"
       d="m -119.87117,545.7336 c -1.113,-0.1675 -5.098,-1.7942 -8.858,-3.6148 -5.11,-2.4747 -7.383,-4.0027 -9.007,-6.0539 -2.588,-3.2692 -4.392,-7.7975 -5.051,-12.6712 -0.395,-2.9417 -0.795,-3.7219 -2.304,-4.5025 -1.162,-0.6005 -2.607,-2.5449 -3.969,-5.3409 -2.609,-5.3538 -3.478,-8.9156 -3.5,-14.3522 l -0.01,-4.1429 2.761,-1.1054 c 2.154,-0.8622 2.66,-1.3609 2.302,-2.2657 -0.85,-2.1499 -2.343,-9.9111 -2.355,-12.2467 -0.04,-7.7122 9.435,-15.9507 22.126,-19.2405 12.398,-3.2142 27.263,-1.1811 33.446002,4.5742 1.266,1.178 3.16,2.5982 4.21,3.156 1.094,0.5818 2.626,2.451 3.594,4.3849 1.425004,2.8499 1.685004,4.309 1.680004,9.4421 0,3.3393 -0.269,7.3608 -0.59,8.9369 -0.585004,2.8458 -0.571004,2.8725 1.846,3.883 4.041,1.6893 4.1,5.2303 0.274,16.4742 -1.682,4.9441 -2.563004,6.587 -3.958004,7.3882 -1.454,0.8349 -1.87,1.6763 -2.194,4.4356 -0.6,5.1022 -4.66,12.8155 -8.07,15.3295 -7.158002,5.2758 -16.487002,8.4175 -22.369002,7.5321 z m -21.916,-57.129 c 0,-1.9604 0.4,-3.2933 1.208,-4.0246 1.457,-1.3181 8.085,-2.8667 14.934,-3.4889 4.399,-0.3995 4.914,-0.3319 4.183,0.5497 -1.325,1.5958 0.139,1.9803 5.509,1.447 5.534,-0.5498 12.157,-2.4359 16.795002,-4.7835 1.751,-0.8852 3.301,-1.6096 3.446,-1.6096 0.147,0 0.438,1.6704 0.649,3.7122 0.464,4.5081 3.553,11.6976 4.582,10.6682 0.479,-0.4796 0.241,-1.5695 -0.761,-3.494 -1.089,-2.0904 -1.488,-4.1515 -1.58,-8.1579 -0.07,-2.9485 -0.32,-5.5601 -0.564,-5.8036 -0.244,-0.2434 -2.055,0.4781 -4.024,1.6038 -3.888002,2.2229 -12.133002,5.1284 -16.314002,5.7492 -2.346,0.3482 -2.486,0.2916 -1.35,-0.5402 0.699,-0.5109 1.041,-1.1583 0.761,-1.4386 -0.718,-0.7184 -18.289,0.8306 -22.737,2.0045 -4.58,1.209 -6.759,3.4942 -6.759,7.0896 0,1.4016 0.202,2.7508 0.449,2.9981 1.063,1.0633 1.573,0.2581 1.573,-2.4814 z m 68.814006,12.0753 c -0.969,-1.1666 -0.693,-3.8723 0.431,-4.2424 0.44,-0.1449 1.31,0.5159 1.935,1.4684 0.913,1.3968 0.973,1.9268 0.297,2.7402 -1.048,1.2623 -1.639,1.2698 -2.663,0.034 z m -92.859006,-0.7461 c -0.39,-1.0177 2.107,-4.3505 3.259,-4.3505 0.86,0 0.658,3.6767 -0.252,4.5872 -1.122,1.1224 -2.528,1.0118 -3.007,-0.2367 z m 112.552006,-2.7735 c -0.923,-0.3724 -1.189,-4.95 -0.286,-4.95 0.306,0 1.26,0.75 2.121,1.6668 1.298,1.3826 1.419,1.8424 0.709,2.6983 -0.895,1.0801 -1.164,1.1419 -2.544,0.5849 z m -130.621006,-1.4024 c -0.484,-1.2624 1.715,-3.5476 3.416,-3.5476 1.106,0 1.167,0.6518 0.279,2.9918 -0.759,1.9964 -3.013,2.3354 -3.695,0.5558 z m 25.706,-12.7671 c -0.819,-0.8198 -0.467,-2.2313 0.899,-3.5978 1.798,-1.7984 2.698,-1.7019 2.698,0.2892 0,2.3718 -2.362,4.5441 -3.597,3.3086 z m 78.505006,-0.7903 c -0.685,-1.2813 -0.277,-4.1566 0.591,-4.1566 0.85,0 2.722,2.4213 2.722,3.5224 0,0.5805 -0.479,1.2396 -1.067,1.4648 -1.48,0.5682 -1.502,0.5599 -2.246,-0.8306 z m -94.699006,-3.1199 c -0.36,-0.9405 2.406,-3.7351 3.697,-3.7351 0.796,0 0.735,1.8297 -0.115,3.4173 -0.821,1.5355 -3.04,1.7322 -3.582,0.3178 z m 111.234006,-0.08 c -0.699,-1.8248 -0.45,-3.6552 0.498,-3.6552 1.376,0 3.355,2.5108 2.905,3.6852 -0.521,1.3573 -2.879,1.3365 -3.403,-0.03 z m -89.854006,-11.4218 c -0.277,-0.7219 0.217,-1.7593 1.389,-2.9169 l 1.82,-1.7964 -0.208,2.6927 c -0.222,2.8791 -2.169,4.1901 -3.001,2.0206 z m 67.642006,0.5709 c -0.672004,-0.6718 -0.543004,-4.1354 0.17,-4.5763 0.342,-0.2109 1.253,0.4212 2.027,1.4047 1.074,1.3673 1.227,2.0041 0.646,2.7049 -0.816,0.9836 -2.114,1.1966 -2.843,0.4667 z m -81.166006,-2.6922 c -0.286,-0.743 0.231,-1.6882 1.538,-2.8176 l 1.967,-1.6994 0.217,1.8466 c 0.363,3.0889 -2.715,5.2974 -3.722,2.6704 z m 96.049006,0.3588 c -1.173,-0.6576 -1.71,-4.6374 -0.626,-4.6374 0.744,0 3.5,2.6123 3.5,3.3167 0,1.203 -1.693,1.9812 -2.874,1.3207 z m -49.061006,-9.7103 c -0.653,-0.788 -0.652,-1.4218 0.01,-3.0216 0.46,-1.1134 1.105,-2.0243 1.431,-2.0243 0.326,0 0.592,0.078 0.592,0.173 0,0.095 0.282,1.1584 0.627,2.3624 0.524,1.8263 0.424,2.2985 -0.603,2.8484 -0.894,0.4782 -1.458,0.3855 -2.059,-0.3379 z m 14.645,0.5991 c -0.763,-0.7633 -0.541,-4.1733 0.304,-4.6964 1.023,-0.6322 2.699,1.7094 2.452,3.4245 -0.196,1.3624 -1.886,2.1422 -2.756,1.2719 z m -29.798,-0.909 c -0.481,-0.7788 0.508,-2.8099 1.95,-4.0078 0.859,-0.7126 1.091,-0.5699 1.459,0.8972 0.241,0.9595 0.263,2.2005 0.05,2.7579 -0.434,1.132 -2.825,1.3759 -3.457,0.3527 z m -13.499,-0.6945 c -0.638,-1.0351 0.17,-2.9357 1.643,-3.8556 1.12,-0.6992 1.379,-0.6269 1.731,0.4821 0.8,2.5178 -2.106,5.4235 -3.374,3.3735 z m 58.132002,0.2542 c -0.672,-0.672 -0.586,-4.1454 0.111,-4.5773 0.902,-0.5572 2.936,2.0534 2.671,3.4279 -0.245,1.2688 -1.955,1.9759 -2.782,1.1494 z m -69.697002,-1.969 c -0.391,-1.0177 2.105,-4.3505 3.258,-4.3505 0.86,0 0.658,3.6766 -0.252,4.5873 -1.123,1.1222 -2.528,1.0117 -3.006,-0.2368 z m 81.813006,0.5965 c -0.902,-0.9018 -0.472,-4.2724 0.545,-4.2724 1.24,0 3.322,3.0626 2.732,4.0178 -0.486,0.7863 -2.584,0.9492 -3.277,0.2546 z m -28.490006,-8.6132 c -1.068,-0.7821 -1.099,-1.1097 -0.28,-3.0827 l 0.912,-2.2076 1.23,1.5172 c 2.288,2.8276 0.846,5.753 -1.862,3.7731 z m -37.572,-0.1332 c -0.888,-0.889 -0.475,-2.7363 0.892,-3.9729 1.884,-1.706 3.216,-0.4297 2.293,2.1968 -0.638,1.8153 -2.248,2.7131 -3.185,1.7761 z m 11.768,-0.4612 c -0.613,-0.739 -0.47,-1.3449 0.656,-2.7754 1.683,-2.1415 2.828,-1.5075 2.497,1.3826 -0.246,2.1422 -1.918,2.8811 -3.153,1.3928 z m 12.63,0.044 c -0.158,-1.6542 0.199,-2.8809 1.109,-3.8196 0.79,-0.8158 1.038,-0.701 1.721,0.8004 0.439,0.9639 0.617,2.2273 0.393,2.8075 -0.48,1.2526 -3.108,1.4251 -3.223,0.2117 z m 25.483002,-0.7862 c -0.203,-0.5251 -0.153,-1.7571 0.11,-2.7378 l 0.477,-1.783 1.588,1.6916 c 0.92,0.9802 1.42,2.1316 1.187,2.7378 -0.503,1.3089 -2.871,1.3734 -3.362,0.092 z m 11.145004,0.1453 c -0.932,-0.9329 -1.084,-3.6629 -0.233,-4.1892 0.928,-0.5737 3.685,2.7908 3.239,3.9525 -0.478,1.2485 -1.884,1.3591 -3.006,0.2367 z m -71.283006,-0.551 c -0.479,-0.776 2.107,-4.0362 3.201,-4.0362 0.331,0 0.505,0.9866 0.389,2.1924 -0.159,1.6485 -0.573,2.2439 -1.665,2.3996 -0.799,0.1141 -1.667,-0.1362 -1.925,-0.5558 z m 4.999,-8.4983 c -0.778,-0.9398 -0.629,-1.3262 1.099,-2.8178 l 2,-1.7286 0.219,2.2411 c 0.299,3.0669 -1.594,4.3825 -3.318,2.3053 z m 8.966,0.2796 c -0.445,-0.4452 -0.809,-1.1571 -0.809,-1.5819 0,-0.9713 2.204,-3.0054 3.256,-3.0054 1.156,0 0.964,3.1026 -0.269,4.3368 -1.269,1.2694 -1.171,1.258 -2.178,0.2505 z m 9.95,-0.239 c -0.631,-0.7605 -0.565,-1.3313 0.303,-2.6583 1.529,-2.3346 2.425,-2.1133 2.425,0.599 0,2.5317 -1.436,3.6161 -2.728,2.0593 z m 21.94,0.1157 c -1.12,-0.8192 -1.153,-1.1304 -0.33,-3.1177 l 0.914,-2.2075 1.228,1.5172 c 1.458,1.8012 1.554,2.9561 0.33,3.9723 -0.663,0.551 -1.223,0.5082 -2.142,-0.1643 z m -11.553,-0.7588 c -0.215,-0.5594 0.14,-1.8249 0.785,-2.8123 l 1.177,-1.795 0.972,1.856 c 0.535,1.0209 0.807,2.2864 0.605,2.8123 -0.488,1.2701 -3.045,1.226 -3.539,-0.06 z m 22.460002,0.5673 c -0.671,-0.6719 -0.542,-4.1354 0.171,-4.5763 0.89,-0.5496 3.423,2.9009 2.979,4.0572 -0.382,0.9957 -2.349,1.3199 -3.15,0.5191 z m 9.469,0.027 c -0.717,-0.7173 -0.576,-4.3008 0.17,-4.3008 0.97,0 3.454004,2.8686 3.188004,3.6797 -0.28,0.8483 -2.686004,1.2935 -3.358004,0.6211 z m -58.875002,-9.8588 c 0.67,-3.3537 4.421,-9.0965 8.16,-12.4958 2.882,-2.6196 8.355,-5.7123 12.644,-7.1443 1.045,-0.3488 1.181,-1.4249 1.188,-9.3536 0,-8.8563 0.03,-9.0053 2.215,-12.9277 3.938,-7.0803 13.01,-11.2755 27.390002,-12.6643 6.489,-0.6268 8.796,-0.58 13.625004,0.2764 7.933,1.407 16.183,5.335 20.028,9.5366 3.262,3.5632 6.173,9.2362 6.183,12.0475 l 0,1.8551 -7.009,0 c -6.824,0 -7.017,-0.041 -7.41,-1.6113 -0.588,-2.3441 -4.448,-5.4462 -8.96,-7.1997 -3.32,-1.2912 -5.136,-1.5189 -11.687004,-1.4658 -9.214,0.075 -15.910002,1.8049 -19.018002,4.9138 -1.913,1.9139 -1.93,2.0012 -1.741,9.0925 l 0.193,7.1599 3.515,1.1892 c 7.281,2.4631 13.455002,7.8715 17.324002,15.1743 3.342,6.3109 5.768004,5.8023 -27.667002,5.8023 l -29.418,0 0.437,-2.1851 z"
       style="fill:none;stroke:#ffffff;stroke-width:3;stroke-miterlimit:4;stroke-dasharray:none;stroke-opacity:1" />
  </g>
</svg>
