<?xml version="1.0" encoding="UTF-8" standalone="no"?>
<svg
   xmlns:dc="http://purl.org/dc/elements/1.1/"
   xmlns:cc="http://creativecommons.org/ns#"
   xmlns:rdf="http://www.w3.org/1999/02/22-rdf-syntax-ns#"
   xmlns:svg="http://www.w3.org/2000/svg"
   xmlns="http://www.w3.org/2000/svg"
   version="1.1"
   id="svg4126"
   viewBox="0 0 251.32512 169.46498"
   height="47.826782mm"
   width="70.929535mm">
  <defs
     id="defs4128" />
  <metadata
     id="metadata4131">
    <rdf:RDF>
      <cc:Work
         rdf:about="">
        <dc:format>image/svg+xml</dc:format>
        <dc:type
           rdf:resource="http://purl.org/dc/dcmitype/StillImage" />
        <dc:title></dc:title>
      </cc:Work>
    </rdf:RDF>
  </metadata>
  <g
     transform="translate(-185.76601,-301.91544)"
     id="layer1">
    <path
       style="fill:none;stroke:#ffffff;stroke-width:3;stroke-miterlimit:4;stroke-dasharray:none;stroke-opacity:1"
       d="m 311.02301,469.42425 c -19.936,-1.4314 -39.058,-6.6607 -57.66,-15.7672 -16.724,-8.1877 -32.707,-20.6015 -40.544,-31.4888 -1.856,-2.5789 -8.364,-9.7906 -14.464,-16.0261 -7.167,-7.3279 -11.089,-12.046 -11.089,-13.3418 0,-2.4938 3.798,-5.1216 6.196,-4.2866 0.975,0.3395 5.617,4.3972 10.317,9.0173 l 8.542,8.3999 90.721,16.7187 90.722,16.7185 11.636,-5.1681 c 11.181,-4.9657 11.726,-5.1088 13.945,-3.6549 2.529,1.6577 2.956,4.0407 1.137,6.3512 -0.644,0.8189 -7.05,4.1018 -14.234,7.2957 -7.186,3.1939 -14.358,6.7786 -15.94,7.9662 -4.477,3.3622 -15.174,8.4189 -24.439,11.5524 -15.153,5.1259 -34.689,7.1609 -54.846,5.7136 z m 31.198,-53.213 c -7.044,-6.0856 -18.99,-18.3916 -23.111,-23.8083 -3.724,-4.8938 -2.916,-7.023 4.799,-12.644 16.713,-12.1755 22.243,-14.5435 30.884,-13.2247 5.328,0.813 6.228,0.6825 11.061,-1.6045 1.772,-0.862 4.647,-3.7114 5.261,-2.4893 l 2.299,2.5768 c 1.247,0.7682 1.957,1.3067 3.19,2.3867 -1.332,2.5994 -2.203,4.5725 -3.294,6.4145 -2.284,4.3666 -2.255,3.6554 -1.192,9.0562 1.902,6.1561 -0.161,9.3949 -2.807,14.9124 -6.426,13.3944 -14.575,23.9124 -18.528,23.9124 -1.346,0 -4.691,-2.144 -8.562,-5.4882 z m 12.206,-12.0228 c 6.53,-7.4745 7.372,-9.3269 4.706,-10.3506 -2.424,-0.9304 -16.181,14.4156 -14.852,16.5668 1.408,2.2817 4.234,0.551 10.146,-6.2162 z m -7.853,-8.2639 c 6.744,-6.9563 7.701,-9.1452 4.222,-9.6576 -2.49,-0.3665 -15.883,13.1178 -15.089,15.1896 1.124,2.9284 4.168,1.3784 10.867,-5.532 z m -9.182,-7.607 c 7.014,-6.275 8.673,-9.0606 6.006,-10.0839 -0.976,-0.3751 -3.999,1.6598 -8.955,6.028 -7.012,6.1799 -8.378,8.0955 -6.856,9.6166 1.383,1.3833 3.189,0.3585 9.805,-5.5607 z m -92.412,11.3512 c -2.033,-0.7244 -4.775,-2.1161 -6.094,-3.093 -3.137,-2.3227 -6.617,-7.4903 -6.617,-9.8245 0,-1.6303 0.338,-1.5173 2.871,0.9587 1.577,1.544 5.058,4.0206 7.734,5.5037 4.368,2.4209 5.743,2.6965 13.47,2.6965 8.126,0 8.523,0.091 7.125,1.6359 -3.092,3.4175 -11.989,4.4389 -18.489,2.1227 z m 47.784,-3.5241 c 6.798,-6.8377 9.501,-16.3898 7.056,-24.9199 -1.165,-4.0638 0.616,-3.5957 3.223,0.8471 5.186,8.8344 -0.42,24.3295 -10.129,27.9988 -4.997,1.8884 -5.032,0.9843 -0.15,-3.926 z m -20.789,-16.2796 c -2.51,-3.2926 -2.674,-4.0605 -2.674,-12.4874 0,-8.0398 0.262,-9.4205 2.495,-13.1991 3.171,-5.3639 6.881,-8.8863 11.304,-10.7349 6.037,-2.5219 6.46,-1.6461 1.569,3.2459 -8.057,8.0586 -11.823,19.4053 -10.074,30.3473 0.483,3.0302 0.693,5.6954 0.466,5.9228 -0.228,0.2274 -1.617,-1.1652 -3.086,-3.0946 z m 102.47,-15.795 c -1.365,-1.2648 -2.481,-2.6454 -2.481,-3.068 0,-0.4226 13.004,-13.7512 28.899,-29.6192 29.861,-29.8118 29.729,-29.7071 33.682,-26.6468 3.097,2.3968 0.831,5.1686 -27.168,33.23 -15.588,15.6221 -28.816,28.4037 -29.396,28.4037 -0.58,0 -2.172,-1.0348 -3.536,-2.2997 z m 55.941,-51.909 c 5.152,-5.3798 1.741,-8.6375 -3.763,-3.5926 -2.309,2.1164 -3.213,3.6204 -2.81,4.672 0.897,2.3364 3.75,1.8678 6.573,-1.0794 z"
       id="path12540" />
  </g>
</svg>
