<?xml version="1.0" encoding="UTF-8" standalone="no"?>
<!-- Created with Inkscape (http://www.inkscape.org/) -->

<svg
   xmlns:dc="http://purl.org/dc/elements/1.1/"
   xmlns:cc="http://creativecommons.org/ns#"
   xmlns:rdf="http://www.w3.org/1999/02/22-rdf-syntax-ns#"
   xmlns:svg="http://www.w3.org/2000/svg"
   xmlns="http://www.w3.org/2000/svg"
   xmlns:sodipodi="http://sodipodi.sourceforge.net/DTD/sodipodi-0.dtd"
   xmlns:inkscape="http://www.inkscape.org/namespaces/inkscape"
   width="65.579323mm"
   height="45.496994mm"
   viewBox="0 0 232.36768 161.20982"
   id="svg4168"
   version="1.1"
   inkscape:version="0.91 r"
   sodipodi:docname="drawings-bed.svg">
  <defs
     id="defs4170" />
  <sodipodi:namedview
     id="base"
     pagecolor="#ffffff"
     bordercolor="#666666"
     borderopacity="1.0"
     inkscape:pageopacity="0.0"
     inkscape:pageshadow="2"
     inkscape:zoom="0.35"
     inkscape:cx="359.75527"
     inkscape:cy="12.033483"
     inkscape:document-units="px"
     inkscape:current-layer="layer1"
     showgrid="false"
     fit-margin-top="0"
     fit-margin-left="0"
     fit-margin-right="0"
     fit-margin-bottom="0"
     inkscape:window-width="1920"
     inkscape:window-height="1004"
     inkscape:window-x="-2"
     inkscape:window-y="-3"
     inkscape:window-maximized="1" />
  <metadata
     id="metadata4173">
    <rdf:RDF>
      <cc:Work
         rdf:about="">
        <dc:format>image/svg+xml</dc:format>
        <dc:type
           rdf:resource="http://purl.org/dc/dcmitype/StillImage" />
        <dc:title></dc:title>
      </cc:Work>
    </rdf:RDF>
  </metadata>
  <g
     inkscape:label="Vrstva 1"
     inkscape:groupmode="layer"
     id="layer1"
     transform="translate(-15.24473,-383.18587)">
    <path
       inkscape:connector-curvature="0"
       id="path13875"
       d="m 233.17108,542.39112 c -2.017,-0.3416 -6.797,-1.9852 -10.622,-3.6523 -5.733,-2.4993 -7.25,-2.8458 -8.645,-1.975 -2.252,1.4061 -163.199998,1.5307 -165.819998,0.1283 -1.575,-0.8428 -1.734,-1.9746 -1.734,-12.3681 0,-7.7031 0.351,-11.7917 1.076,-12.5159 0.836,-0.8365 0.197,-1.0755 -2.88,-1.0755 -3.876,0 -4.177,0.2249 -15.026,11.2218 -6.088,6.172 -11.448,10.988 -11.912,10.702 -1.343,-0.8305 -1.04,-29.0417 0.363,-33.7031 2.083,-6.9207 7.601,-9.7178 21.111,-23.4758 14.065,-14.3258 19.357,-19.1664 27.031,-21.452 8.871,-2.6416 41.629998,-5.2573 79.291998,-4.0646 48.693,1.5421 51.264,4.702 61.981,14.7252 8.259,7.7253 10.931,9.3299 23.235,28.9883 3.64,5.8154 11.919,12.1091 13.048,17.4472 0.241,3.755 -0.544,6.8221 -0.612,9.9311 -0.14,7.9438 -0.452,10.2429 1.345,13.7661 1.077,2.1092 1.833,4.7114 1.68,5.7827 -0.24,1.6814 -0.891,1.9657 -4.76,2.0792 -2.465,0.073 -6.133,-0.148 -8.151,-0.4896 z m -15.064,-5.5001 c 0,-0.6274 -19.232,-10.2868 -22.951,-11.4895 -1.726,-0.5582 -10.802,-1.4014 -20.169,-1.8737 -10.593,-0.5343 -20.082,-1.5298 -25.1,-2.6334 -37.776,-8.3085 -37.742,-8.3031 -55.938998,-8.8306 -12.99,-0.3765 -47.361,-1.4901 -46.885,-0.7202 0.433,0.7002 37.833,0.682 46.655,0.682 13.986998,0 35.540998,2.9553 55.818998,8.7571 11.135,3.1858 13.457,2.7238 25.078,3.0321 12.557,0.333 16.91,1.3847 21.133,1.6622 8.706,3.5621 22.359,12.1775 22.359,11.414 z m 13.883,-50.381 c -10.102,-16.7082 -20.197,-31.5384 -32.751,-35.602 -8.859,-2.4945 -13.199,-3.459 -31.872,-4.5625 -20.032,-1.1838 -75.818998,-1.1484 -89.642998,0.058 -13.909,1.2127 -19.578,3.5795 -29.201,12.1895 -7.525,6.7336 -9.344,6.9778 -9.344,1.2541 0,-5.4317 1.859,-8.9208 7.508,-14.0815 8.264,-7.5516 14.165,-9.9052 27.452,-10.949 23.561,-1.8509 101.929998,2.7528 115.638998,5.149 17.674,3.7365 39.291,22.051 48.003,34.1944 5.071,7.4197 6.733,11.9507 5.703,15.5423 -0.871,3.0334 -3.272,5.9951 -4.862,5.9951 -0.592,0 -3.577,-4.1339 -6.632,-9.1864 z m -161.916998,-60.351 c -0.283,-1.1269 -0.391,-7.3352 -0.242,-18.508 0.205,-15.1709 0.569,-20.6086 1.44,-21.4773 0.928,-0.9279 14.428,-1.2122 66.689998,-1.4046 57.804,-0.2129 65.774,-0.079 67.635,1.1409 2.106,1.3792 2.11,1.4256 2.11,20.2574 0,20.9556 1.663,34.9983 -7.3,30.9066 -4.565,-2.6784 -12.33,-4.0908 -20.794,-4.5903 -11.362,-0.8439 -43.741,-4.147 -69.424,-3.5629 -16.174998,0.3689 -32.476998,1.228 -36.704998,1.2481 -2.274,0.011 -3.006,-2.4001 -3.41,-4.0099 z m 69.826998,-5.2296 c -0.745,-3.6406 -2.41,-6.9192 -3.7,-9.8142 -2.237,-5.024 -2.27,-9.5491 -0.724,-10.6802 1.078,-0.7878 4.667,-2.426 10.706,-2.4628 4.996,-0.031 17.152,2.8606 27.012,1.9427 22.594,-2.1033 26.223,-7.1129 26.985,2.2388 0.584,7.1626 0.268,12.5304 1.081,19.0908 0.316,7.4087 -2.226,7.1498 -4.773,7.6275 -7.119,1.3983 -15.187,-3.4225 -21.32,-3.8043 -13.195,-1.7005 -33.133,2.6736 -35.267,-4.1383 z m -55.251998,2.7268 c -3.044,-0.014 -4.617,-1.4715 -4.192,-3.7506 0.519,-2.7805 0.08,-5.1239 0.289,-11.0353 0.107,-3.1221 0.569,-4.8904 1.535,-5.8162 1.826,-1.7497 3.219,-2.7706 8.351,-2.8301 6.09,0.072 7.301,0.3437 22.116998,0.9295 16.374,1.4824 13.481,-0.3176 18.702,10.8504 2.686,5.6754 5.155,10.5998 1.03,11.6408 -15.603,-1.1098 -31.431,-0.9253 -47.831998,0.011 z"
       style="fill:none;stroke:#ffffff;stroke-width:3;stroke-miterlimit:4;stroke-dasharray:none;stroke-opacity:1"
       sodipodi:nodetypes="ccccscscscccsscccccccssccscssscsccsccscscccscccccscscccccccccssccccccscsccccc" />
  </g>
</svg>
