<?xml version="1.0" encoding="UTF-8" standalone="no"?>
<!-- Created with Inkscape (http://www.inkscape.org/) -->

<svg
   xmlns:dc="http://purl.org/dc/elements/1.1/"
   xmlns:cc="http://creativecommons.org/ns#"
   xmlns:rdf="http://www.w3.org/1999/02/22-rdf-syntax-ns#"
   xmlns:svg="http://www.w3.org/2000/svg"
   xmlns="http://www.w3.org/2000/svg"
   xmlns:sodipodi="http://sodipodi.sourceforge.net/DTD/sodipodi-0.dtd"
   xmlns:inkscape="http://www.inkscape.org/namespaces/inkscape"
   width="74.348671mm"
   height="47.826477mm"
   viewBox="0 0 263.44017 169.46389"
   id="svg4294"
   version="1.1"
   inkscape:version="0.91 r"
   sodipodi:docname="drawing-movie.svg">
  <defs
     id="defs4296" />
  <sodipodi:namedview
     id="base"
     pagecolor="#ffffff"
     bordercolor="#666666"
     borderopacity="1.0"
     inkscape:pageopacity="0.0"
     inkscape:pageshadow="2"
     inkscape:zoom="0.35"
     inkscape:cx="301.00579"
     inkscape:cy="-129.55376"
     inkscape:document-units="px"
     inkscape:current-layer="layer1"
     showgrid="false"
     inkscape:window-width="1920"
     inkscape:window-height="1004"
     inkscape:window-x="-2"
     inkscape:window-y="-3"
     inkscape:window-maximized="1"
     fit-margin-top="0"
     fit-margin-left="0"
     fit-margin-right="0"
     fit-margin-bottom="0" />
  <metadata
     id="metadata4299">
    <rdf:RDF>
      <cc:Work
         rdf:about="">
        <dc:format>image/svg+xml</dc:format>
        <dc:type
           rdf:resource="http://purl.org/dc/dcmitype/StillImage" />
        <dc:title></dc:title>
      </cc:Work>
    </rdf:RDF>
  </metadata>
  <g
     inkscape:label="Vrstva 1"
     inkscape:groupmode="layer"
     id="layer1"
     transform="translate(-73.994206,-233.34454)">
    <path
       inkscape:connector-curvature="0"
       id="path12538"
       d="m 76.123363,400.68144 c -0.345,-0.3448 -0.627,-2.0377 -0.627,-3.7619 0,-2.717 0.313,-3.1349 2.351,-3.1349 2.297,0 2.349,-0.1568 2.349,-7.0536 0,-6.8968 -0.06,-7.0535 -2.349,-7.0535 -2.06,0 -2.351,-0.4075 -2.351,-3.2916 l 0,-3.2918 130.219007,0 130.219,0 0,3.2918 0,3.2916 -7.052,0 -7.051,0 0,7.0535 0,7.0536 7.051,0 7.052,0 0,3.7619 0,3.7619 -129.592,0 c -71.27601,0 -129.875007,-0.2822 -130.219007,-0.627 z m 36.981997,-13.9504 0,-7.0535 -11.283,0 -11.282997,0 0,7.0535 0,7.0536 11.282997,0 11.283,0 0,-7.0536 z m 31.966,0 0,-7.0535 -10.812,0 -10.812,0 0,7.0535 0,7.0536 10.812,0 10.812,0 0,-7.0536 z m 32.90701,0 0,-7.0535 -11.28101,0 -11.283,0 0,7.0535 0,7.0536 11.283,0 11.28101,0 0,-7.0536 z m 35.729,0 0,-7.0535 -12.693,0 -12.693,0 0,7.0535 0,7.0536 12.693,0 12.693,0 0,-7.0536 z m 31.967,0 0,-7.0535 -10.812,0 -10.813,0 0,7.0535 0,7.0536 10.813,0 10.812,0 0,-7.0536 z m 32.907,0 0,-7.0535 -10.812,0 -10.813,0 0,7.0535 0,7.0536 10.813,0 10.812,0 0,-7.0536 z m 32.908,0 0,-7.0535 -11.282,0 -11.283,0 0,7.0535 0,7.0536 11.283,0 11.282,0 0,-7.0536 z M 75.926363,365.33524 c -0.247,-0.6465 -0.339,-22.3362 -0.205,-48.1993 l 0.245,-47.0237 28.910997,-0.2487 28.911,-0.2487 0,48.448 0,48.448 -28.705,0 c -22.097997,0 -28.808997,-0.2706 -29.156997,-1.1756 z m 65.384997,-47.2587 0,-48.4344 65.34401,0 65.345,0 0,48.4344 0,48.4343 -65.345,0 -65.34401,0 0,-48.4343 z m 70.43701,20.1358 c 17.367,-8.8398 32.162,-16.6364 32.879,-17.3258 0.717,-0.6894 1.067,-1.8698 0.78,-2.623 -0.772,-2.0102 -65.227,-34.6922 -67.72,-34.3372 l -2.058,0.2931 -0.248,33.8525 c -0.136,18.6189 -0.05,34.3837 0.205,35.0326 0.251,0.6491 1.383,1.1802 2.52,1.1802 1.136,0 16.276,-7.2326 33.642,-16.0724 z m 67.774,-20.1358 0,-48.4344 27.736,0 27.737,0 0,48.4344 0,48.4343 -27.737,0 -27.736,0 0,-48.4343 z M 76.087363,260.14074 c -0.699,-3.499 -0.15,-4.6057 2.285,-4.6057 1.644,0 1.824,-0.6986 1.824,-7.0537 0,-6.8967 -0.06,-7.0535 -2.349,-7.0535 -2.06,0 -2.351,-0.4074 -2.351,-3.2916 l 0,-3.2917 130.219007,0 130.219,0 0,3.2917 0,3.2916 -7.052,0 -7.051,0 0,7.0535 0,7.0537 7.051,0 7.052,0 0,3.7618 0,3.7619 -129.631,0 -129.632007,0 -0.584,-2.918 z m 37.017997,-11.6594 0,-7.0535 -11.283,0 -11.282997,0 0,7.0535 0,7.0537 11.282997,0 11.283,0 0,-7.0537 z m 31.966,0 0,-7.0535 -10.812,0 -10.812,0 0,7.0535 0,7.0537 10.812,0 10.812,0 0,-7.0537 z m 32.90701,0 0,-7.0535 -10.81101,0 -10.813,0 0,7.0535 0,7.0537 10.813,0 10.81101,0 0,-7.0537 z m 35.729,0 0,-7.0535 -12.693,0 -12.693,0 0,7.0535 0,7.0537 12.693,0 12.693,0 0,-7.0537 z m 32.298,2.1162 c 1.2,-9.9906 2.155,-9.1697 -10.673,-9.1697 l -11.283,0 0,7.0535 0,7.0537 10.682,0 10.681,0 0.593,-4.9375 z m 32.576,-2.1162 0,-7.0535 -10.812,0 -10.813,0 0,7.0535 0,7.0537 10.813,0 10.812,0 0,-7.0537 z m 32.908,0 0,-7.0535 -11.282,0 -11.283,0 0,7.0535 0,7.0537 11.283,0 11.282,0 0,-7.0537 z"
       style="fill:none;stroke:#ffffff;stroke-width:3;stroke-miterlimit:4;stroke-dasharray:none;stroke-opacity:1" />
  </g>
</svg>
