<?xml version="1.0" encoding="UTF-8" standalone="no"?>
<!-- Created with Inkscape (http://www.inkscape.org/) -->

<svg
   xmlns:dc="http://purl.org/dc/elements/1.1/"
   xmlns:cc="http://creativecommons.org/ns#"
   xmlns:rdf="http://www.w3.org/1999/02/22-rdf-syntax-ns#"
   xmlns:svg="http://www.w3.org/2000/svg"
   xmlns="http://www.w3.org/2000/svg"
   xmlns:sodipodi="http://sodipodi.sourceforge.net/DTD/sodipodi-0.dtd"
   xmlns:inkscape="http://www.inkscape.org/namespaces/inkscape"
   width="74.353416mm"
   height="39.080864mm"
   viewBox="0 0 263.45699 138.4755"
   id="svg4252"
   version="1.1"
   inkscape:version="0.91 r"
   sodipodi:docname="drawing-tram.svg">
  <defs
     id="defs4254" />
  <sodipodi:namedview
     id="base"
     pagecolor="#ffffff"
     bordercolor="#666666"
     borderopacity="1.0"
     inkscape:pageopacity="0.0"
     inkscape:pageshadow="2"
     inkscape:zoom="0.35"
     inkscape:cx="183.87135"
     inkscape:cy="154.952"
     inkscape:document-units="px"
     inkscape:current-layer="layer1"
     showgrid="false"
     fit-margin-top="0"
     fit-margin-left="0"
     fit-margin-right="0"
     fit-margin-bottom="0"
     inkscape:window-width="1920"
     inkscape:window-height="1004"
     inkscape:window-x="-2"
     inkscape:window-y="-3"
     inkscape:window-maximized="1" />
  <metadata
     id="metadata4257">
    <rdf:RDF>
      <cc:Work
         rdf:about="">
        <dc:format>image/svg+xml</dc:format>
        <dc:type
           rdf:resource="http://purl.org/dc/dcmitype/StillImage" />
        <dc:title></dc:title>
      </cc:Work>
    </rdf:RDF>
  </metadata>
  <g
     inkscape:label="Vrstva 1"
     inkscape:groupmode="layer"
     id="layer1"
     transform="translate(-191.12865,-548.83869)">
    <path
       style="fill:none;stroke:#ffffff;stroke-width:3;stroke-miterlimit:4;stroke-dasharray:none;stroke-opacity:1"
       d="m 293.77165,550.3591 c -1.036,0.014 -35.232,22.8333 -35.252,23.5254 0,0.2586 6.561,4.8282 14.596,10.1543 12.272,8.1364 14.559,10.0157 14.312,11.7578 l -0.297,2.0742 -33.375,0.25 -33.377,0.252 -4.982,18.5605 -4.982,18.5606 0.04,17.166 0.04,17.164 12.513,0 12.518,0 c 3.948,5.5811 7.718,7.3967 12.384,7.4395 5.907,0.2179 -13.986,-0.012 -29.659,0.025 l -25.622,0.059 0,4.2343 0.03,0 0,4.2325 130.213,0 130.214,0 0,-4.2325 0,-4.2324 -25.619,-0.06 c -15.675,-0.037 -32.973,-0.1096 -29.143,-0.1128 4.677,-0.044 9.882,-2.9979 11.868,-7.3521 l 12.516,0 12.515,0 0.04,-17.164 0.04,-17.166 -4.982,-18.5665 -4.983,-18.5644 -62.521,-0.2461 -62.522,-0.2461 -0.294,-2.0742 c -0.247,-1.7421 2.039,-3.6214 14.312,-11.7578 8.035,-5.3261 14.621,-9.8957 14.621,-10.1543 0.02,-0.6923 -34.127,-23.5404 -35.162,-23.5254 z m -0.109,7.5273 c 1.185,0.012 24.008,15.1503 23.978,15.8965 -0.02,0.3156 -5.198,4.0671 -11.515,8.3379 -6.318,4.2708 -11.909,7.7353 -12.426,7.6973 -1.131,-0.082 -23.93,-15.2589 -23.93,-15.9317 0,-0.7074 22.849,-16.011 23.893,-16 z m -54.963,46.0137 0,15.0918 0,15.0898 -10.813,0 c -5.946,0 -10.797,-0.105 -10.777,-0.2343 0.02,-0.1293 1.849,-6.7961 4.066,-14.8145 l 4.032,-14.5801 6.746,-0.2754 z m 168.291,0 6.746,0.2773 6.742,0.2754 4.033,14.5801 c 2.218,8.0185 4.049,14.6832 4.069,14.8125 0.02,0.1295 -4.833,0.2363 -10.78,0.2363 l -10.81,0 0,-15.0918 z m -136.326,0.029 0,15.0761 0,15.0742 -12.721,0 c -9.551,0 -12.84,-0.3035 -13.192,-1.2187 -0.265,-0.6705 -0.349,-7.3352 -0.205,-14.8125 l 0.262,-13.5957 12.928,-0.2617 z m 104.359,0 12.928,0.2617 12.927,0.2617 0,14.5801 0,14.5781 -12.927,0.2617 -12.928,0.2617 0,-15.1015 z m -97.777,0.053 13.162,0 13.162,0 0,15.0508 0,15.0488 -13.162,0 -13.162,0 0,-15.0488 z m 31.964,0 13.633,0 13.633,0 0,15.0508 0,15.0488 -13.633,0 -13.633,0 0,-15.0488 z m 32.907,0 13.164,0 13.162,0 0,15.0508 0,15.0488 -13.162,0 -13.164,0 0,-15.0488 z m -83.133,68.6979 c 3.383,4.1926 6.894,4.74 12.846,4.7012 l -12.918,-0.036 c -3.513,0 -11.784,-0.021 -11.784,-0.021 4.319,-0.1093 8.396,-1.5727 11.856,-4.6442 z m 23.047,-0.036 40.812,0 40.815,0 c 1.573,2.0828 6.106,4.9433 10.58,4.7012 l -51.395,0 -51.536,0.036 c 3.971,-0.2373 8.074,-2.1754 10.724,-4.7372 z m 104.746,0 c 3.379,3.9771 8.363,4.5077 12.47,4.5042 l -12.47,0.197 -12.633,0 c 5.861,0.2662 11.344,-3.323 12.633,-4.7012 z"
       id="path12546"
       inkscape:connector-curvature="0"
       sodipodi:nodetypes="cccccccccccccccccccccccccccccccccccccccccccccccsccccccccscsccccccscccccccccccccccccccccccccccccccccscccccccsccccccccccccccccc" />
  </g>
</svg>
