<?xml version="1.0" encoding="UTF-8" standalone="no"?>
<svg
   xmlns:dc="http://purl.org/dc/elements/1.1/"
   xmlns:cc="http://creativecommons.org/ns#"
   xmlns:rdf="http://www.w3.org/1999/02/22-rdf-syntax-ns#"
   xmlns:svg="http://www.w3.org/2000/svg"
   xmlns="http://www.w3.org/2000/svg"
   version="1.1"
   id="svg4067"
   viewBox="0 0 70.001185 69.988641"
   height="19.75235mm"
   width="19.75589mm">
  <defs
     id="defs4069" />
  <metadata
     id="metadata4072">
    <rdf:RDF>
      <cc:Work
         rdf:about="">
        <dc:format>image/svg+xml</dc:format>
        <dc:type
           rdf:resource="http://purl.org/dc/dcmitype/StillImage" />
        <dc:title></dc:title>
      </cc:Work>
    </rdf:RDF>
  </metadata>
  <g
     transform="translate(-216.42798,-217.36788)"
     id="layer1">
    <path
       id="path13890"
       d="m 227.45407,286.62722 c -4.799,-0.052 -10.344,-5.6156 -10.396,-10.3861 l -0.05,-16.8378 -0.05,-16.8378 9.951,0 c 5.472,0 9.95,0.045 9.95,0.1001 0,0.055 -0.156,0.3181 -0.346,0.5845 -0.191,0.2665 -0.679,1.1852 -1.085,2.0415 -2.335,4.9254 -2.246,10.3403 0.251,15.3362 2.399,4.7991 6.909,8.2192 12.276,9.3089 9.124,1.8526 18.114,-3.7876 20.548,-12.8922 0.371,-1.3874 0.438,-2.0054 0.452,-4.1496 0.02,-3.5852 -0.606,-6.0264 -2.325,-9.0277 l -0.745,-1.3017 10.018,0 10.018,0 -0.05,16.8378 -0.05,16.8378 c -0.147,5.5034 -5.698,10.664 -10.62,10.5814 l -23.431,0.034 c -8.156,-0.058 -18.582,-0.066 -24.316,-0.2293 z m 21.392,-20.5623 c -5.099,-0.9965 -9.315,-4.9496 -10.644,-9.9787 -0.494,-1.8725 -0.494,-4.8469 0,-6.7184 1.343,-5.0772 5.554,-9.0659 10.535,-9.9783 1.452,-0.2658 4.305,-0.2249 5.709,0.082 1.59,0.3476 4.318,1.679 5.629,2.7468 1.995,1.6257 3.85,4.4965 4.511,6.9815 0.379,1.4268 0.511,4.1182 0.275,5.6226 -0.869,5.5264 -5.176,10.0271 -10.68,11.1598 -1.375,0.283 -4.096,0.3252 -5.336,0.083 z m 5.887,-3.9396 c 3.951,-1.4295 6.472,-4.7769 6.701,-8.9007 0.316,-5.7041 -4.241,-10.4911 -9.988,-10.4911 -2.668,0 -5.091,0.9839 -6.969,2.8294 -5.795,5.6944 -2.917,15.2577 5.115,16.9971 1.273,0.2757 3.758,0.066 5.141,-0.4347 z m -37.727,-27.6637 0.06,-5.9206 c 0.09,-4.0289 3.478,-6.6523 5.559,-8.1628 l 0.04,7.1971 0.04,7.4321 1.347,0 1.347,0 0,-8.1302 0,-8.1301 c 0.585,-0.3737 1.385,-0.5334 1.987,-0.5825 0.179,0 0.04,1.64 0.08,8.403 l 0.04,8.3558 1.348,0 1.349,0 0.04,-8.5238 0.04,-8.5239 1.848,0 0.04,8.5239 0.04,8.5238 1.349,0 1.348,0 0.04,-8.5271 0.04,-8.5273 20.1,0.046 20.101,0.045 c 6.247,0.1133 10.615,3.9123 10.615,10.5813 0.04,3.947 0.08,7.894 0.12,11.841 l -10.988,0 -10.988,0 -0.982,-0.9054 c -2.033,-1.8753 -5.074,-3.384 -8.062,-3.9989 -2.358,-0.4854 -6.047,-0.3641 -8.195,0.2695 -2.709,0.7987 -4.78,1.9157 -6.945,3.7456 l -1.052,0.8892 -10.889,0 -10.89,0 0.06,-5.9204 z m 62.59,-0.2998 0.05,-4.5255 c 0.06,-5.1746 0.02,-5.3385 -1.2,-5.8915 -0.627,-0.2839 -1.133,-0.3191 -4.582,-0.3191 -3.449,0 -3.955,0.035 -4.582,0.3191 -1.196,0.5411 -1.233,0.7145 -1.233,5.7827 l 0,4.4464 c 0.207,0.6824 0.686,1.0391 1.25,1.2108 0.193,0.08 2.341,0.1295 4.773,0.1101 l 4.422,-0.036 c 0.754,-0.2326 0.961,-0.6054 1.102,-1.097 z"
       style="fill:#ffffff;stroke:#000000;stroke-width:1;stroke-opacity:1" />
  </g>
</svg>
