<?xml version="1.0" encoding="UTF-8" standalone="no"?>
<!-- Created with Inkscape (http://www.inkscape.org/) -->

<svg
   xmlns:dc="http://purl.org/dc/elements/1.1/"
   xmlns:cc="http://creativecommons.org/ns#"
   xmlns:rdf="http://www.w3.org/1999/02/22-rdf-syntax-ns#"
   xmlns:svg="http://www.w3.org/2000/svg"
   xmlns="http://www.w3.org/2000/svg"
   xmlns:sodipodi="http://sodipodi.sourceforge.net/DTD/sodipodi-0.dtd"
   xmlns:inkscape="http://www.inkscape.org/namespaces/inkscape"
   width="19.721838mm"
   height="19.721838mm"
   viewBox="0 0 69.880528 69.880528"
   id="svg4021"
   version="1.1"
   inkscape:version="0.91 r"
   sodipodi:docname="icon-pintrest.svg">
  <defs
     id="defs4023" />
  <sodipodi:namedview
     id="base"
     pagecolor="#ffffff"
     bordercolor="#666666"
     borderopacity="1.0"
     inkscape:pageopacity="0.0"
     inkscape:pageshadow="2"
     inkscape:zoom="0.35"
     inkscape:cx="9.9395938"
     inkscape:cy="-10.774086"
     inkscape:document-units="px"
     inkscape:current-layer="layer1"
     showgrid="false"
     fit-margin-top="0"
     fit-margin-left="0"
     fit-margin-right="0"
     fit-margin-bottom="0"
     inkscape:window-width="1191"
     inkscape:window-height="681"
     inkscape:window-x="185"
     inkscape:window-y="157"
     inkscape:window-maximized="0" />
  <metadata
     id="metadata4026">
    <rdf:RDF>
      <cc:Work
         rdf:about="">
        <dc:format>image/svg+xml</dc:format>
        <dc:type
           rdf:resource="http://purl.org/dc/dcmitype/StillImage" />
        <dc:title></dc:title>
      </cc:Work>
    </rdf:RDF>
  </metadata>
  <g
     inkscape:label="Vrstva 1"
     inkscape:groupmode="layer"
     id="layer1"
     transform="translate(-365.06041,-451.70759)">
    <g
       id="g13986"
       transform="translate(-39092.756,-5274.1596)">
      <rect
         style="color:#000000;text-decoration:none;text-decoration-line:none;text-decoration-style:solid;text-decoration-color:#000000;white-space:normal;clip-rule:nonzero;display:inline;overflow:visible;visibility:visible;opacity:1;isolation:auto;mix-blend-mode:normal;color-interpolation:sRGB;color-interpolation-filters:linearRGB;solid-color:#000000;solid-opacity:1;fill:#ffffff;fill-opacity:1;fill-rule:nonzero;stroke:#160c0c;stroke-width:1;stroke-linecap:butt;stroke-linejoin:miter;stroke-miterlimit:4;stroke-dasharray:none;stroke-dashoffset:0;stroke-opacity:1;color-rendering:auto;image-rendering:auto;shape-rendering:auto;text-rendering:auto;enable-background:accumulate"
         id="rect13900"
         width="68.880531"
         height="68.880531"
         x="39458.316"
         y="5726.3672"
         ry="10.717748"
         rx="10.717748" />
      <path
         sodipodi:nodetypes="ccscscssccscscccccssccccccccscssccccccccccc"
         inkscape:connector-curvature="0"
         id="path13892"
         d="m 39497.6,5784.163 c 9.659,-2.133 16.779,-9.15 18.883,-18.6098 0.18,-0.8136 0.307,-2.7748 0.304,-4.7409 0,-3.7096 -0.397,-5.6877 -1.777,-9.0017 -2.227,-5.3505 -7.66,-10.615 -13.128,-12.7225 -3.693,-1.4229 -5.333,-1.7204 -9.488,-1.7204 -4.155,0 -5.796,0.2975 -9.488,1.7204 -5.468,2.1075 -10.643,7.372 -12.871,12.7225 -1.406,3.373 -1.777,5.2808 -1.772,9.1173 0,4.3506 0.497,6.5425 2.281,10.1757 2.363,4.8073 5.625,8.384 10.398,10.83 l 1.619,0.8298 0.148,-2.2453 c 0.104,-1.6195 0.61,-4.147 1.812,-9.0675 l 1.667,-6.8224 -0.367,-1.5364 c -0.747,-3.1219 -0.301,-5.3332 1.438,-7.1311 0.77,-0.7955 1.339,-1.1692 1.953,-1.2832 1.963,-0.3637 3.401,0.4625 3.893,2.2353 0.334,1.2036 0.02,2.9344 -1.302,7.1372 -1.151,3.667 -0.968,4.943 0.912,6.3455 0.516,0.3858 0.981,0.4768 2.434,0.4768 1.681,0 1.878,-0.055 3.069,-0.8447 1.586,-1.0524 2.811,-2.846 3.762,-5.5048 0.667,-1.8686 0.772,-2.1648 1.005,-5.4451 0,-4.0404 -0.545,-4.8389 -2.424,-6.8475 -1.861,-1.9889 -4.47,-2.9839 -7.811,-2.9778 -5.733,0.01 -9.938,3.1134 -11.47,8.1555 -0.382,1.2546 -0.462,2.0074 -0.381,3.5942 0.103,2.0456 0.458,3.0411 1.577,4.438 0.448,0.5584 0.194,0.63 -0.162,1.8502 -0.546,1.8681 -0.503,2.0166 -1.775,1.4016 -4.521,-2.1877 -5.669,-9.915 -2.297,-15.452 2.658,-4.3653 6.666,-6.9322 12.52,-7.6904 7.574,-0.9812 14.353,2.4686 16.975,8.6394 0.612,1.4384 0.715,1.9972 0.804,4.3368 0.261,6.8429 -2.564,12.5644 -7.42,15.0334 -3.904,1.9848 -8.18,1.7279 -10.609,-0.6377 -0.463,-0.4504 -0.894,-0.7315 -0.961,-0.6247 -0.06,0.107 -0.491,1.6229 -0.946,3.3688 -0.306,2.9762 -1.712,5.7952 -3.028,8.1244 1.515,0.5705 3.666,0.7958 6.701,0.8137 2.436,0.014 3.755,-0.095 5.322,-0.4406 z"
         style="color:#000000;text-decoration:none;text-decoration-line:none;text-decoration-style:solid;text-decoration-color:#000000;white-space:normal;clip-rule:nonzero;display:inline;overflow:visible;visibility:visible;opacity:1;isolation:auto;mix-blend-mode:normal;color-interpolation:sRGB;color-interpolation-filters:linearRGB;solid-color:#000000;solid-opacity:1;fill:#000000;fill-opacity:1;fill-rule:nonzero;stroke:#000000;stroke-width:1;stroke-linecap:butt;stroke-linejoin:miter;stroke-miterlimit:4;stroke-dasharray:none;stroke-dashoffset:0;stroke-opacity:1;color-rendering:auto;image-rendering:auto;shape-rendering:auto;text-rendering:auto;enable-background:accumulate" />
    </g>
  </g>
</svg>
