<?xml version="1.0" encoding="UTF-8" standalone="no"?>
<!-- Created with Inkscape (http://www.inkscape.org/) -->

<svg
   xmlns:dc="http://purl.org/dc/elements/1.1/"
   xmlns:cc="http://creativecommons.org/ns#"
   xmlns:rdf="http://www.w3.org/1999/02/22-rdf-syntax-ns#"
   xmlns:svg="http://www.w3.org/2000/svg"
   xmlns="http://www.w3.org/2000/svg"
   xmlns:sodipodi="http://sodipodi.sourceforge.net/DTD/sodipodi-0.dtd"
   xmlns:inkscape="http://www.inkscape.org/namespaces/inkscape"
   width="19.721838mm"
   height="19.721838mm"
   viewBox="0 0 69.880528 69.880528"
   id="svg4178"
   version="1.1"
   inkscape:version="0.91 r"
   sodipodi:docname="icon-twitter.svg">
  <defs
     id="defs4180" />
  <sodipodi:namedview
     id="base"
     pagecolor="#ffffff"
     bordercolor="#666666"
     borderopacity="1.0"
     inkscape:pageopacity="0.0"
     inkscape:pageshadow="2"
     inkscape:zoom="0.35"
     inkscape:cx="34.940594"
     inkscape:cy="34.940314"
     inkscape:document-units="px"
     inkscape:current-layer="layer1"
     showgrid="false"
     inkscape:window-width="641"
     inkscape:window-height="416"
     inkscape:window-x="597"
     inkscape:window-y="193"
     inkscape:window-maximized="0"
     fit-margin-top="0"
     fit-margin-left="0"
     fit-margin-right="0"
     fit-margin-bottom="0" />
  <metadata
     id="metadata4183">
    <rdf:RDF>
      <cc:Work
         rdf:about="">
        <dc:format>image/svg+xml</dc:format>
        <dc:type
           rdf:resource="http://purl.org/dc/dcmitype/StillImage" />
        <dc:title></dc:title>
      </cc:Work>
    </rdf:RDF>
  </metadata>
  <g
     inkscape:label="Vrstva 1"
     inkscape:groupmode="layer"
     id="layer1"
     transform="translate(-340.05941,-497.42199)">
    <g
       id="g13978"
       transform="translate(-39357.757,-5228.4452)">
      <rect
         style="color:#000000;text-decoration:none;text-decoration-line:none;text-decoration-style:solid;text-decoration-color:#000000;white-space:normal;clip-rule:nonzero;display:inline;overflow:visible;visibility:visible;opacity:1;isolation:auto;mix-blend-mode:normal;color-interpolation:sRGB;color-interpolation-filters:linearRGB;solid-color:#000000;solid-opacity:1;fill:#ffffff;fill-opacity:1;fill-rule:nonzero;stroke:#160c0c;stroke-width:1;stroke-linecap:butt;stroke-linejoin:miter;stroke-miterlimit:4;stroke-dasharray:none;stroke-dashoffset:0;stroke-opacity:1;color-rendering:auto;image-rendering:auto;shape-rendering:auto;text-rendering:auto;enable-background:accumulate"
         id="rect13942"
         width="68.880531"
         height="68.880531"
         x="39698.316"
         y="5726.3672"
         ry="10.717748"
         rx="10.717748" />
      <path
         inkscape:connector-curvature="0"
         id="path13002"
         d="m 39718.637,5784.6537 c -3.447,-0.2797 -7.092,-1.2195 -10.549,-2.7196 -1.465,-0.6355 -4.358,-2.1867 -4.497,-2.411 -0.03,-0.044 0.257,-0.049 0.882,-0.012 4.691,0.2691 8.902,-0.6001 12.863,-2.6558 1.294,-0.6715 3.494,-2.0931 3.564,-2.3037 0.01,-0.042 -0.169,-0.085 -0.477,-0.1126 -3.768,-0.3332 -6.99,-2.1972 -9.028,-5.2223 -0.703,-1.0445 -1.568,-2.8845 -1.404,-2.9859 0.03,-0.02 0.239,-0.01 0.457,0.028 0.72,0.1155 1.991,0.1494 2.757,0.074 0.961,-0.095 1.81,-0.2616 1.782,-0.3488 -0.02,-0.038 -0.311,-0.1503 -0.662,-0.251 -0.801,-0.2293 -1.829,-0.6609 -2.517,-1.0566 -3.017,-1.7325 -5.088,-4.5445 -5.842,-7.9329 -0.168,-0.7587 -0.29,-2.532 -0.174,-2.532 0.03,0 0.378,0.1408 0.765,0.3129 1.253,0.5584 2.604,0.9195 3.775,1.0093 0.623,0.048 0.683,0 0.336,-0.2422 -0.522,-0.3707 -1.311,-1.0902 -1.815,-1.657 -3.03,-3.4019 -3.874,-8.224 -2.175,-12.4303 0.311,-0.7697 0.583,-1.3108 0.713,-1.4185 0.06,-0.047 0.232,0.1142 0.644,0.594 0.762,0.8874 2.781,2.893 3.692,3.667 4.79,4.075 10.588,6.7384 16.808,7.7206 1.352,0.2136 3.388,0.3995 3.47,0.317 0.02,-0.019 -0.01,-0.3054 -0.07,-0.6364 -0.145,-0.8511 -0.191,-2.3888 -0.1,-3.2674 0.305,-2.9323 1.744,-5.7411 3.926,-7.6676 4.491,-3.9644 11.132,-4.0481 15.716,-0.198 0.317,0.2672 0.662,0.5753 0.767,0.6847 0.111,0.1183 0.253,0.1988 0.347,0.1988 0.268,0 1.916,-0.4358 2.913,-0.7708 1.208,-0.4048 2.212,-0.8357 3.451,-1.4793 0.543,-0.2821 1.004,-0.4965 1.025,-0.4761 0.06,0.056 -0.162,0.6282 -0.537,1.412 -0.377,0.7877 -0.954,1.6966 -1.507,2.3719 -0.526,0.6415 -1.614,1.666 -2.268,2.137 -0.503,0.3625 -0.66,0.5233 -0.509,0.5233 0.03,0 0.441,-0.07 0.917,-0.1541 1.659,-0.2957 3.254,-0.744 4.729,-1.3295 0.367,-0.1462 0.686,-0.2477 0.709,-0.2255 0.06,0.058 -0.319,0.6041 -1.075,1.5536 -1.101,1.3844 -2.961,3.1674 -4.67,4.4766 0,0.01 -0.03,0.8309 -0.04,1.8347 -0.05,2.9969 -0.365,5.3507 -1.098,8.1713 -2.175,8.3685 -7.328,15.6653 -14.254,20.184 -4.589,2.9937 -9.919,4.7925 -15.501,5.232 -0.959,0.075 -5.293,0.072 -6.241,-0.01 z"
         style="fill:#000000;stroke:#000000;stroke-width:1;stroke-miterlimit:4;stroke-dasharray:none;stroke-opacity:1" />
    </g>
  </g>
</svg>
