<?xml version="1.0" encoding="UTF-8" standalone="no"?>
<!-- Created with Inkscape (http://www.inkscape.org/) -->

<svg
   xmlns:dc="http://purl.org/dc/elements/1.1/"
   xmlns:cc="http://creativecommons.org/ns#"
   xmlns:rdf="http://www.w3.org/1999/02/22-rdf-syntax-ns#"
   xmlns:svg="http://www.w3.org/2000/svg"
   xmlns="http://www.w3.org/2000/svg"
   xmlns:sodipodi="http://sodipodi.sourceforge.net/DTD/sodipodi-0.dtd"
   xmlns:inkscape="http://www.inkscape.org/namespaces/inkscape"
   width="19.721838mm"
   height="19.721838mm"
   viewBox="0 0 69.880528 69.880528"
   id="svg4130"
   version="1.1"
   inkscape:version="0.91 r"
   sodipodi:docname="icon-linkedin.svg">
  <defs
     id="defs4132" />
  <sodipodi:namedview
     id="base"
     pagecolor="#ffffff"
     bordercolor="#666666"
     borderopacity="1.0"
     inkscape:pageopacity="0.0"
     inkscape:pageshadow="2"
     inkscape:zoom="0.35"
     inkscape:cx="-21.488406"
     inkscape:cy="12.083114"
     inkscape:document-units="px"
     inkscape:current-layer="layer1"
     showgrid="false"
     fit-margin-top="0"
     fit-margin-left="0"
     fit-margin-right="0"
     fit-margin-bottom="0"
     inkscape:window-width="1042"
     inkscape:window-height="673"
     inkscape:window-x="490"
     inkscape:window-y="207"
     inkscape:window-maximized="0" />
  <metadata
     id="metadata4135">
    <rdf:RDF>
      <cc:Work
         rdf:about="">
        <dc:format>image/svg+xml</dc:format>
        <dc:type
           rdf:resource="http://purl.org/dc/dcmitype/StillImage" />
        <dc:title></dc:title>
      </cc:Work>
    </rdf:RDF>
  </metadata>
  <g
     inkscape:label="Vrstva 1"
     inkscape:groupmode="layer"
     id="layer1"
     transform="translate(-396.48841,-474.56479)">
    <g
       id="g13982"
       transform="translate(-39221.328,-5251.3024)">
      <rect
         rx="10.717748"
         ry="10.717748"
         y="5726.3672"
         x="39618.316"
         height="68.880531"
         width="68.880531"
         id="rect13898"
         style="color:#000000;text-decoration:none;text-decoration-line:none;text-decoration-style:solid;text-decoration-color:#000000;white-space:normal;clip-rule:nonzero;display:inline;overflow:visible;visibility:visible;opacity:1;isolation:auto;mix-blend-mode:normal;color-interpolation:sRGB;color-interpolation-filters:linearRGB;solid-color:#000000;solid-opacity:1;fill:#ffffff;fill-opacity:1;fill-rule:nonzero;stroke:#160c0c;stroke-width:1;stroke-linecap:butt;stroke-linejoin:miter;stroke-miterlimit:4;stroke-dasharray:none;stroke-dashoffset:0;stroke-opacity:1;color-rendering:auto;image-rendering:auto;shape-rendering:auto;text-rendering:auto;enable-background:accumulate" />
      <path
         sodipodi:nodetypes="cscccsccscccccccccccccccsccccccccccscscccccccccscccc"
         inkscape:connector-curvature="0"
         id="path13894"
         d="m 39640.493,5784.4268 c 0.162,-0.1632 0.163,-0.2738 0.163,-15.6315 0,-12.7736 -0.02,-15.4932 -0.109,-15.6172 -0.103,-0.1422 -0.345,-0.1498 -4.662,-0.1452 -5.379,0.01 -4.797,-0.013 -4.957,0.1465 -0.116,0.1165 -0.129,1.6489 -0.129,15.6425 l 0,15.5134 0.183,0.1278 c 0.16,0.1121 0.751,0.128 4.765,0.128 4.472,0 4.586,0 4.746,-0.1643 z m 15.722,0.085 c 0.115,-0.044 0.231,-0.1637 0.257,-0.267 0.03,-0.1031 0.06,-3.9947 0.08,-8.6477 0.03,-9.3973 0.03,-9.478 0.567,-11.047 0.524,-1.53 1.222,-2.4012 2.424,-3.0268 0.873,-0.4535 1.52,-0.5858 2.849,-0.5817 1.259,0 1.921,0.148 2.624,0.571 1.201,0.7219 1.856,1.8386 2.24,3.8173 0.128,0.6663 0.147,1.6398 0.186,9.8729 0.03,7.3372 0.07,9.1546 0.151,9.2404 0.09,0.084 1.073,0.1114 4.745,0.1292 l 4.639,0.023 0.203,-0.2035 0.205,-0.2036 0,-9.0595 c 0,-10.9774 -0.04,-11.9132 -0.67,-14.6857 -0.763,-3.3881 -2.407,-5.6891 -4.957,-6.9419 -1.085,-0.5338 -1.883,-0.7997 -2.92,-0.9747 -1.972,-0.3321 -3.719,-0.3613 -5.418,-0.091 -2.627,0.4182 -5.088,1.9344 -6.656,4.1007 l -0.531,0.7341 -0.04,-2.0239 c -0.03,-1.3719 -0.08,-2.0542 -0.136,-2.1186 -0.07,-0.069 -1.261,-0.094 -4.436,-0.093 -5.13,0 -4.588,-0.016 -4.746,0.1445 -0.117,0.1164 -0.129,1.6456 -0.129,15.606 0,15.3676 0,15.4782 0.165,15.6413 0.159,0.1603 0.274,0.1644 4.635,0.1644 2.673,0 4.555,-0.032 4.68,-0.079 z m -19.048,-35.8594 c 1.891,-0.4926 3.601,-2.1791 4.115,-4.0621 0.2,-0.7307 0.201,-2.3048 0,-3.0391 -0.271,-0.9999 -1.027,-2.1639 -1.844,-2.8398 -0.605,-0.5011 -1.751,-1.0577 -2.537,-1.2329 -1.25,-0.2777 -2.619,-0.067 -3.925,0.6051 -0.871,0.4471 -1.895,1.5069 -2.327,2.4073 -0.468,0.972 -0.618,1.601 -0.618,2.5798 0,0.9713 0.15,1.6078 0.603,2.5511 0.698,1.4531 2.364,2.7648 3.903,3.0735 0.586,0.1177 2.107,0.093 2.629,-0.043 z"
         style="fill:#000000;stroke:#000000;stroke-width:0.99999994;stroke-opacity:1" />
    </g>
  </g>
</svg>
