<?xml version="1.0" encoding="UTF-8" standalone="no"?>
<!-- Created with Inkscape (http://www.inkscape.org/) -->

<svg
   xmlns:dc="http://purl.org/dc/elements/1.1/"
   xmlns:cc="http://creativecommons.org/ns#"
   xmlns:rdf="http://www.w3.org/1999/02/22-rdf-syntax-ns#"
   xmlns:svg="http://www.w3.org/2000/svg"
   xmlns="http://www.w3.org/2000/svg"
   xmlns:sodipodi="http://sodipodi.sourceforge.net/DTD/sodipodi-0.dtd"
   xmlns:inkscape="http://www.inkscape.org/namespaces/inkscape"
   width="30.00001"
   height="30.001705"
   id="svg2"
   inkscape:label="Pozadí"
   version="1.1"
   inkscape:version="0.91+devel+osxmenu r12832"
   viewBox="0 0 30.00001 30.001706"
   sodipodi:docname="jazyk-cz.svg">
  <defs
     id="defs11404" />
  <sodipodi:namedview
     id="base"
     pagecolor="#ffffff"
     bordercolor="#666666"
     borderopacity="1.0"
     inkscape:pageopacity="0.0"
     inkscape:pageshadow="2"
     inkscape:zoom="2.4671398"
     inkscape:cx="44.834825"
     inkscape:cy="-25.583899"
     inkscape:document-units="px"
     inkscape:current-layer="layer1"
     showgrid="false"
     fit-margin-top="0"
     fit-margin-left="0"
     fit-margin-right="0"
     fit-margin-bottom="0"
     showborder="false"
     inkscape:window-width="1015"
     inkscape:window-height="783"
     inkscape:window-x="667"
     inkscape:window-y="1103"
     inkscape:window-maximized="0" />
  <metadata
     id="metadata11407">
    <rdf:RDF>
      <cc:Work
         rdf:about="">
        <dc:format>image/svg+xml</dc:format>
        <dc:type
           rdf:resource="http://purl.org/dc/dcmitype/StillImage" />
        <dc:title></dc:title>
      </cc:Work>
    </rdf:RDF>
  </metadata>
  <g
     inkscape:label="Vrstva 1"
     inkscape:groupmode="layer"
     id="layer1"
     transform="translate(-366.54504,102.84897)">
    <g
       id="g13712">
      <g
         id="flowRoot13392"
         style="font-style:normal;font-variant:normal;font-weight:bold;font-stretch:normal;font-size:6.83672476px;line-height:125%;font-family:'Avenir Next LT Pro';-inkscape-font-specification:'Avenir Next LT Pro Bold';letter-spacing:1.1918503px;word-spacing:0px;opacity:0.97600002;fill:#b3b3b3;fill-opacity:1;stroke:none"
         transform="matrix(0.83900693,0,0,0.83905624,-25631.703,37.449833)">
        <path
           inkscape:connector-curvature="0"
           id="path13708"
           style="font-style:normal;font-variant:normal;font-weight:normal;font-stretch:normal;font-size:22.78908348px;font-family:Forum;-inkscape-font-specification:Forum;letter-spacing:1.1918503px;fill:#b3b3b3"
           d="m 31000.84,-156.01924 c 1.39,0 3.122,0.433 3.487,2.34728 l 0.228,0 0,-2.52959 c -0.365,0 -0.729,-0.0684 -1.185,-0.22789 -0.638,-0.18231 -1.436,-0.4102 -2.439,-0.4102 -5.583,0 -8.249,4.01088 -8.249,7.77107 0,3.73741 2.689,7.7255 7.999,7.7255 1.071,0 2.028,-0.22789 2.826,-0.43299 0.615,-0.15952 1.093,-0.29626 1.549,-0.29626 l 0,-2.52959 -0.228,0 c -0.661,2.07381 -2.689,2.43844 -3.805,2.43844 -3.806,0 -6.792,-3.50952 -6.792,-7.1102 0,-3.19047 2.12,-6.74557 6.609,-6.74557 z" />
        <path
           inkscape:connector-curvature="0"
           id="path13710"
           style="font-style:normal;font-variant:normal;font-weight:normal;font-stretch:normal;font-size:22.78908348px;font-family:Forum;-inkscape-font-specification:Forum;letter-spacing:1.1918503px;fill:#b3b3b3"
           d="m 31017.013,-141.57096 0,-2.57516 -0.228,0 c 0,0.72925 -0.478,1.77754 -1.458,1.77754 l -5.857,0 7.566,-14.24317 -9.184,0 0,2.55237 0.228,0 c 0,-0.72925 0.478,-1.75475 1.458,-1.75475 l 5.287,0 -7.566,14.24317 9.754,0 z" />
      </g>
      <path
         inkscape:connector-curvature="0"
         id="rect13401"
         d="m 367.04504,-102.34897 29.00001,0 0,29.001705 -29.00001,0 z"
         style="opacity:1;fill:none;fill-opacity:1;stroke:#b3b3b3;stroke-width:1;stroke-linejoin:miter;stroke-miterlimit:4;stroke-dasharray:none;stroke-opacity:1" />
    </g>
  </g>
</svg>
