<?xml version="1.0" encoding="UTF-8" standalone="no"?>
<!-- Created with Inkscape (http://www.inkscape.org/) -->

<svg
   xmlns:dc="http://purl.org/dc/elements/1.1/"
   xmlns:cc="http://creativecommons.org/ns#"
   xmlns:rdf="http://www.w3.org/1999/02/22-rdf-syntax-ns#"
   xmlns:svg="http://www.w3.org/2000/svg"
   xmlns="http://www.w3.org/2000/svg"
   xmlns:sodipodi="http://sodipodi.sourceforge.net/DTD/sodipodi-0.dtd"
   xmlns:inkscape="http://www.inkscape.org/namespaces/inkscape"
   version="1.1"
   width="250.00002"
   height="118.21879"
   id="svg2"
   inkscape:version="0.48.4 r9939"
   sodipodi:docname="logo.svg">
  <sodipodi:namedview
     pagecolor="#ffffff"
     bordercolor="#666666"
     borderopacity="1"
     objecttolerance="10"
     gridtolerance="10"
     guidetolerance="10"
     inkscape:pageopacity="0"
     inkscape:pageshadow="2"
     inkscape:window-width="981"
     inkscape:window-height="611"
     id="namedview12"
     showgrid="false"
     fit-margin-top="0"
     fit-margin-left="0"
     fit-margin-right="0"
     fit-margin-bottom="0"
     inkscape:zoom="0.22425739"
     inkscape:cx="125.61868"
     inkscape:cy="-123.28095"
     inkscape:window-x="301"
     inkscape:window-y="91"
     inkscape:window-maximized="0"
     inkscape:current-layer="svg2" />
  <defs
     id="defs5694" />
  <metadata
     id="metadata5697">
    <rdf:RDF>
      <cc:Work
         rdf:about="">
        <dc:format>image/svg+xml</dc:format>
        <dc:type
           rdf:resource="http://purl.org/dc/dcmitype/StillImage" />
        <dc:title />
      </cc:Work>
    </rdf:RDF>
  </metadata>
  <g
     id="layer1"
     transform="translate(-246.42856,-284.68136)">
    <g
       transform="matrix(0.09232997,0,0,0.09232997,-3216.3837,-464.92278)"
       id="g11035">
      <path
         d="m 37504.748,8118.7521 0,1280.3945 2707.68,0 0,-1280.3945 -2707.68,0 z m 108.03,106.7246 2490.736,0 0,1065.8515 -2490.736,0 0,-1065.8515 z"
         id="rect10950"
         style="fill:#000000;fill-opacity:1;stroke:none"
         inkscape:connector-curvature="0" />
      <g
         transform="translate(2074.5063,3028.515)"
         id="g10995">
        <path
           d="m 36187.869,5489.6703 q -26.027,-34.6428 -70.271,-50.1723 -42.935,-16.7239 -91.092,-16.7239 -28.613,0 -55.948,5.9726 -26.027,5.9731 -48.141,19.1133 -20.821,13.1406 -33.834,34.6427 -13.013,20.3077 -13.013,48.9774 0,43.0046 32.525,65.7017 32.541,22.6966 80.681,39.4205 48.14,16.7244 105.398,32.2537 57.258,15.5292 105.398,43.0044 48.141,27.4752 80.665,72.8692 32.541,45.3935 32.541,120.6517 0,68.0906 -27.319,119.4572 -27.336,50.1718 -74.183,83.6201 -45.538,33.4478 -106.691,50.1718 -61.154,16.7238 -128.822,16.7238 -85.887,0 -165.259,-26.2804 -79.371,-26.2807 -136.613,-88.3982 l 123.617,-109.9008 q 29.922,41.8102 78.062,65.7016 49.45,22.6968 104.105,22.6968 28.613,0 57.241,-7.1676 28.629,-7.1671 52.053,-21.5021 23.424,-14.335 37.73,-35.8373 14.322,-22.6969 14.322,-51.3666 0,-46.588 -32.541,-71.6742 -32.524,-25.0859 -80.665,-41.8099 -48.14,-17.9188 -105.398,-33.4483 -57.257,-15.529 -105.398,-41.8099 -48.14,-27.4752 -80.681,-71.6742 -32.525,-45.3937 -32.525,-120.6517 0,-65.7017 28.629,-113.4847 29.922,-47.7824 76.769,-78.8415 48.141,-32.2529 109.294,-47.7824 61.17,-15.5295 124.926,-15.5295 72.857,0 140.526,20.3078 68.961,20.3072 123.616,66.8956 l -119.704,115.8736 z"
           id="path10134"
           style="font-size:medium;font-style:normal;font-variant:normal;font-weight:900;font-stretch:normal;line-height:125%;letter-spacing:0px;word-spacing:0px;fill:#000000;fill-opacity:1;stroke:none;font-family:Avenir;-inkscape-font-specification:Avenir Heavy"
           inkscape:connector-curvature="0" />
        <path
           d="m 36483.52,5308.0921 0,135.9379 610.259,0 0,-135.9379 z m 1.474,353.8285 0,136.3771 609.456,0 -0.655,-135.6758 c -192.676,0.822 -425.93,-0.7895 -608.736,-0.7004 z m -1.474,356.0202 0,135.9094 610.815,0 -0.655,-135.9094 z"
           id="path10136"
           style="font-size:medium;font-style:normal;font-variant:normal;font-weight:900;font-stretch:normal;line-height:125%;letter-spacing:0px;word-spacing:0px;fill:#000000;fill-opacity:1;stroke:none;font-family:Avenir;-inkscape-font-specification:Avenir Heavy"
           inkscape:connector-curvature="0" />
        <path
           d="m 37280.071,5308.0921 0,135.9379 610.258,0 0,-135.9379 z m 1.473,353.8285 0,136.3771 609.456,0 -0.818,-135.6758 c -192.676,0.822 -425.914,-0.7895 -608.72,-0.7004 z m -1.473,356.0202 0,135.9094 610.815,0 -0.655,-135.9094 z"
           id="path10138"
           style="font-size:medium;font-style:normal;font-variant:normal;font-weight:900;font-stretch:normal;line-height:125%;letter-spacing:0px;word-spacing:0px;fill:#000000;fill-opacity:1;stroke:none;font-family:Avenir;-inkscape-font-specification:Avenir Heavy"
           inkscape:connector-curvature="0" />
      </g>
    </g>
  </g>
</svg>
