<?xml version="1.0" encoding="UTF-8" standalone="no"?>
<!-- Created with Inkscape (http://www.inkscape.org/) -->

<svg
   xmlns:dc="http://purl.org/dc/elements/1.1/"
   xmlns:cc="http://creativecommons.org/ns#"
   xmlns:rdf="http://www.w3.org/1999/02/22-rdf-syntax-ns#"
   xmlns:svg="http://www.w3.org/2000/svg"
   xmlns="http://www.w3.org/2000/svg"
   xmlns:sodipodi="http://sodipodi.sourceforge.net/DTD/sodipodi-0.dtd"
   xmlns:inkscape="http://www.inkscape.org/namespaces/inkscape"
   width="129.99768"
   height="33.419018"
   id="svg2"
   inkscape:label="Pozadí"
   version="1.1"
   inkscape:version="0.91+devel+osxmenu r12832"
   viewBox="0 0 129.99768 33.419019"
   sodipodi:docname="allianz-white.svg">
  <defs
     id="defs11404" />
  <sodipodi:namedview
     id="base"
     pagecolor="#ffffff"
     bordercolor="#666666"
     borderopacity="1.0"
     inkscape:pageopacity="0.0"
     inkscape:pageshadow="2"
     inkscape:zoom="0.87226562"
     inkscape:cx="153.84135"
     inkscape:cy="13.429415"
     inkscape:document-units="px"
     inkscape:current-layer="layer1"
     showgrid="false"
     fit-margin-top="0"
     fit-margin-left="0"
     fit-margin-right="0"
     fit-margin-bottom="0"
     showborder="false"
     inkscape:window-width="1015"
     inkscape:window-height="783"
     inkscape:window-x="667"
     inkscape:window-y="1103"
     inkscape:window-maximized="0" />
  <metadata
     id="metadata11407">
    <rdf:RDF>
      <cc:Work
         rdf:about="">
        <dc:format>image/svg+xml</dc:format>
        <dc:type
           rdf:resource="http://purl.org/dc/dcmitype/StillImage" />
        <dc:title></dc:title>
      </cc:Work>
    </rdf:RDF>
  </metadata>
  <g
     inkscape:label="Vrstva 1"
     inkscape:groupmode="layer"
     id="layer1"
     transform="translate(-221.15865,-512.37258)">
    <path
       inkscape:export-ydpi="250"
       inkscape:export-xdpi="250"
       inkscape:export-filename="/Users/Matt/Desktop/seeweb3.png"
       style="opacity:1;fill:#ffffff"
       d="m 333.17165,545.75134 c -2.958,-0.2394 -5.465,-1.0311 -7.756,-2.4465 -2.971,-1.837 -5.196,-4.5227 -6.498,-7.8465 -0.463,-1.1836 -0.786,-2.448 -1.011,-3.9752 -0.153,-1.0453 -0.153,-3.7508 0,-4.838 0.445,-3.1494 1.65,-5.9815 3.522,-8.2892 0.574,-0.7055 1.943,-2.0434 2.615,-2.5538 4.285,-3.2553 10.064,-4.2676 15.506,-2.7165 2.5,0.7131 4.985,2.1814 6.863,4.0571 3.23,3.2264 4.879,7.5799 4.735,12.4914 -0.105,3.3241 -1.011,6.332 -2.695,8.8661 -1.274,1.9205 -2.592,3.2543 -4.434,4.488 -1.846,1.2358 -3.977,2.0906 -6.256,2.5089 -1.379,0.2534 -3.295,0.3592 -4.591,0.2542 z m 3.451,-3.2374 c 4.455,-0.6802 7.982,-3.2578 9.866,-7.2098 0.437,-0.9188 0.626,-1.4431 0.888,-2.465 0.356,-1.3884 0.43,-2.0332 0.43,-3.7596 0,-1.6599 -0.07,-2.3574 -0.374,-3.5744 -1.34,-5.3968 -5.44,-9.0862 -10.964,-9.8677 -0.898,-0.127 -2.872,-0.1438 -3.744,-0.032 -2.651,0.3412 -5.063,1.3582 -6.917,2.9162 -1.425,1.1972 -2.425,2.4766 -3.288,4.21 -1.483,2.9848 -1.816,6.7724 -0.904,10.2864 0.998,3.8427 3.799,7.0893 7.394,8.576 1.294,0.5342 2.521,0.8394 4.069,1.0122 0.702,0.077 2.781,0.024 3.544,-0.093 z m -10.971,-4.6417 c -0.03,-0.014 -0.06,-2.3617 -0.06,-6.9083 0,-7.3932 0,-7.2032 0.311,-7.6503 0.08,-0.1118 0.289,-0.2671 0.484,-0.3587 l 0.345,-0.1618 1.693,0 1.696,0 0.02,7.5345 c 0,6.0047 0,7.5355 -0.06,7.5404 -0.223,0.017 -4.371,0.022 -4.424,0 z m 6.596,-0.01 c -0.03,-0.023 -0.06,-3.101 -0.07,-8.4156 -0.02,-7.749 -0.03,-8.3931 -0.123,-8.5701 -0.154,-0.2815 -0.386,-0.4058 -0.828,-0.4413 l -0.391,-0.031 0,-0.4693 c -0.02,-0.7601 0.02,-1.39 0.09,-1.4422 0.114,-0.078 4.595,-0.01 4.854,0.071 0.352,0.113 0.628,0.3299 0.794,0.6273 l 0.152,0.2748 0.02,9.1985 c 0,6.0062 0,9.1983 -0.04,9.1983 -0.03,0 -1.033,0.011 -2.221,0.018 -1.189,0.011 -2.188,0 -2.22,-0.018 z m 6.746,0 -0.184,-0.031 -0.02,-7.4499 c 0,-5.7066 0,-7.4709 0.05,-7.5388 0.06,-0.074 0.343,-0.085 1.712,-0.066 1.563,0.021 1.651,0.028 1.96,0.1672 0.18,0.081 0.393,0.2267 0.476,0.3254 0.349,0.4137 0.341,0.2103 0.341,7.704 0,5.4701 -0.02,6.8923 -0.07,6.8951 -0.465,0.023 -4.129,0.019 -4.267,0 z m -70.06,0.9828 c -1.3,-0.1493 -2.254,-0.7841 -2.73,-1.8159 -0.362,-0.7815 -0.423,-1.1422 -0.424,-2.5251 0,-1.0996 0.02,-1.2844 0.138,-1.7129 0.279,-0.9605 0.789,-1.7475 1.463,-2.2563 1.025,-0.7747 2.828,-1.3397 5.731,-1.7957 0.476,-0.076 0.916,-0.1631 0.981,-0.1965 0.105,-0.054 0.111,-0.1153 0.08,-0.5626 -0.05,-0.8108 -0.296,-1.2296 -0.842,-1.4407 -0.222,-0.085 -0.456,-0.1079 -1.083,-0.1044 -1.203,0.011 -2.321,0.2535 -3.811,0.838 -0.433,0.1705 -0.802,0.2963 -0.82,0.2794 -0.07,-0.073 -1.052,-2.8545 -1.028,-2.9177 0.02,-0.039 0.324,-0.2091 0.687,-0.3794 1.842,-0.8641 3.984,-1.3073 6.319,-1.3074 1.669,-1e-4 2.835,0.2396 3.62,0.744 0.698,0.4475 1.227,1.2652 1.471,2.2773 0.192,0.7887 0.248,2.2865 0.247,6.4866 0,3.5776 0,3.7575 0.116,4.0163 0.15,0.3376 0.342,0.4656 0.828,0.5528 l 0.382,0.069 0,0.8008 0,0.8006 -2.496,0 c -2.46,0 -2.499,0 -2.751,-0.1369 -0.416,-0.2222 -0.564,-0.4774 -0.67,-1.1418 -0.02,-0.1271 -0.06,-0.2311 -0.08,-0.2311 -0.03,0 -0.26,0.1526 -0.506,0.3391 -0.572,0.432 -1.662,0.9689 -2.302,1.1344 -0.708,0.183 -1.822,0.2658 -2.512,0.1865 z m 3.277,-3.3519 c 0.462,-0.1229 0.909,-0.3524 1.37,-0.7035 0.664,-0.5052 0.614,-0.3363 0.595,-2.0173 l -0.02,-1.473 -0.215,0.022 c -0.344,0.034 -1.523,0.3488 -2.116,0.5657 -0.714,0.2604 -1.01,0.4884 -1.241,0.951 -0.17,0.3395 -0.184,0.4176 -0.185,1.0476 0,0.3746 0.02,0.7841 0.04,0.9101 0.06,0.2785 0.31,0.5901 0.564,0.7011 0.247,0.1077 0.785,0.1066 1.196,0 z m -51.045,3.1852 c -0.02,-0.025 1.257,-3.9011 2.829,-8.6115 1.571,-4.7102 2.888,-8.7485 2.926,-8.9741 0.154,-0.9118 -0.209,-1.2963 -1.226,-1.2941 -0.258,0 -0.505,-0.021 -0.549,-0.047 -0.06,-0.037 -0.08,-0.2649 -0.06,-0.9062 l 0.02,-0.8581 4.191,0 c 3.983,0 4.206,0.011 4.498,0.1182 0.418,0.1618 0.844,0.5751 1.035,1.0076 0.17,0.3847 5.53,19.1374 5.549,19.4132 l 0,0.1688 -2.678,0.017 c -1.473,0.01 -2.697,-0.01 -2.723,-0.031 -0.04,-0.044 -0.836,-2.8069 -1.207,-4.207 -0.08,-0.322 -0.185,-0.6201 -0.219,-0.6625 -0.05,-0.06 -0.717,-0.077 -2.978,-0.077 l -2.918,0 -0.132,0.4468 c -0.07,0.2458 -0.224,0.7519 -0.337,1.1247 -0.113,0.3729 -0.375,1.2604 -0.586,1.9722 -0.208,0.712 -0.407,1.3289 -0.442,1.3713 -0.05,0.059 -0.627,0.077 -2.516,0.077 -1.351,0 -2.468,-0.021 -2.484,-0.049 z m 11.609,-8.4541 c 0,-0.046 -1.058,-4.0047 -1.788,-6.6904 -0.08,-0.2712 -0.157,-0.5168 -0.184,-0.5459 -0.09,-0.095 -0.12,0 -0.86,2.4563 -0.06,0.2035 -0.407,1.3313 -0.765,2.5061 -0.361,1.1749 -0.654,2.1804 -0.654,2.2342 0,0.088 0.225,0.098 2.126,0.098 1.288,0 2.125,-0.023 2.125,-0.057 z m 9.099,8.4061 c -0.03,-0.052 -0.03,-4.1626 -0.03,-9.1337 0,-8.5973 0,-9.0487 -0.113,-9.2531 -0.14,-0.2696 -0.446,-0.4312 -0.878,-0.4639 -0.184,-0.014 -0.355,-0.027 -0.381,-0.031 -0.03,0 -0.04,-0.4075 -0.04,-0.899 l 0,-0.8937 2.531,0 c 1.618,0 2.625,0.023 2.796,0.068 0.334,0.083 0.676,0.3617 0.852,0.6938 l 0.138,0.256 0.02,9.8762 0.02,9.8764 -2.429,0 c -2.136,0 -2.433,-0.011 -2.465,-0.096 z m 8.323,0.055 c -0.03,-0.023 -0.04,-4.121 -0.04,-9.1067 0,-8.5072 0,-9.0779 -0.109,-9.2794 -0.159,-0.3159 -0.46,-0.494 -0.841,-0.4951 -0.487,0 -0.497,-0.015 -0.52,-0.8337 0,-0.3939 0,-0.7843 0.02,-0.8676 l 0.04,-0.1515 2.664,0.018 c 2.612,0.017 2.67,0.02 2.917,0.1537 0.309,0.1646 0.54,0.4283 0.651,0.7408 0.07,0.1903 0.1,2.0134 0.1,10.0319 l 0,9.7991 -2.408,0.017 c -1.324,0.011 -2.427,0 -2.45,-0.026 z m 8.441,-0.054 c -0.02,-0.052 -0.03,-2.9958 -0.03,-6.5408 0,-7.0501 0.02,-6.7168 -0.354,-6.9586 -0.1,-0.057 -0.355,-0.1365 -0.596,-0.1771 l -0.438,-0.074 -0.02,-0.7887 c 0,-0.5287 0,-0.8169 0.05,-0.8741 0.06,-0.07 0.501,-0.087 2.487,-0.087 2.71,0 2.872,0.02 3.302,0.4081 0.493,0.4461 0.462,-0.1002 0.462,7.9737 l 0,7.1801 -2.412,0.016 c -2.131,0.014 -2.418,0.01 -2.448,-0.08 z m 23.903,0.017 c -0.02,-0.044 -0.03,-2.9759 -0.04,-6.518 -0.02,-6.3729 -0.02,-6.443 -0.143,-6.6829 -0.153,-0.2921 -0.441,-0.4559 -0.897,-0.5085 -0.182,-0.021 -0.351,-0.069 -0.377,-0.1058 -0.09,-0.1178 -0.05,-1.5448 0.03,-1.627 0.119,-0.1198 4.734,-0.1034 5.144,0.018 0.631,0.187 0.88,0.5532 0.931,1.3683 0.02,0.2814 0.04,0.5116 0.06,0.5116 0.02,0 0.281,-0.205 0.591,-0.4554 1.312,-1.0606 2.223,-1.4824 3.552,-1.6449 0.679,-0.083 1.56,-0.042 2.113,0.1002 1.224,0.3147 2.112,1.177 2.418,2.3492 0.186,0.7181 0.221,2.0201 0.203,7.6625 l -0.02,5.5777 -2.418,0.017 -2.42,0.016 0,-5.1004 c 0,-2.8463 -0.03,-5.2996 -0.06,-5.5509 -0.07,-0.5512 -0.208,-0.8538 -0.452,-1.0024 -0.443,-0.2684 -1.369,-0.203 -2.099,0.1484 -0.411,0.198 -1.019,0.661 -1.193,0.9067 -0.05,0.086 -0.08,1.2882 -0.08,5.3378 l -0.02,5.2289 -2.391,0.017 c -1.878,0.013 -2.395,0 -2.418,-0.062 z m 15.788,0.036 c -0.02,-0.023 -0.04,-0.7528 -0.04,-1.6226 l 0,-1.5814 3.207,-4.5027 c 1.76,-2.4766 3.204,-4.5352 3.204,-4.5747 0,-0.054 -0.488,-0.066 -1.926,-0.053 -1.878,0.018 -1.931,0.022 -2.151,0.1584 -0.257,0.1594 -0.422,0.5019 -0.422,0.8716 0,0.1608 -0.03,0.2511 -0.106,0.2763 -0.05,0.02 -0.455,0.038 -0.892,0.038 -0.79,0 -0.796,0 -0.833,-0.1493 -0.02,-0.083 -0.03,-0.8517 0,-1.7101 0.03,-1.7383 0.06,-1.917 0.416,-2.2697 0.414,-0.4135 0.154,-0.3956 6.022,-0.4162 5.303,-0.018 5.314,-0.018 5.379,0.108 0.04,0.085 0.06,0.6189 0.04,1.622 l -0.02,1.4955 -0.743,1.0451 c -0.41,0.575 -1.814,2.5444 -3.12,4.3771 -1.306,1.8326 -2.405,3.3889 -2.442,3.4586 -0.03,0.07 -0.05,0.1441 -0.03,0.1656 0.02,0.022 1.514,0.04 3.319,0.04 2.778,0 3.285,0.014 3.313,0.089 0.04,0.1238 0.05,2.9547 0,3.0775 -0.04,0.093 -0.529,0.1013 -6.092,0.1013 -3.328,0 -6.071,-0.018 -6.093,-0.042 z m -38.574,-16.6952 c -0.477,-0.1156 -0.807,-0.2932 -1.158,-0.6208 -0.434,-0.4048 -0.577,-0.779 -0.581,-1.503 0,-0.5416 0.02,-0.6182 0.2,-0.9994 0.221,-0.4522 0.465,-0.6869 0.965,-0.9312 0.483,-0.2364 0.847,-0.3055 1.636,-0.3093 0.563,0 0.799,0.024 1.149,0.1321 1.078,0.3327 1.624,1.0443 1.624,2.1131 0,0.873 -0.365,1.4852 -1.11,1.8609 -0.253,0.1276 -0.611,0.2595 -0.793,0.2928 -0.467,0.085 -1.513,0.066 -1.932,-0.037 z"
       id="path15919"
       inkscape:connector-curvature="0" />
  </g>
</svg>
