<?xml version="1.0" encoding="UTF-8" standalone="no"?>
<!-- Created with Inkscape (http://www.inkscape.org/) -->

<svg
   xmlns:dc="http://purl.org/dc/elements/1.1/"
   xmlns:cc="http://creativecommons.org/ns#"
   xmlns:rdf="http://www.w3.org/1999/02/22-rdf-syntax-ns#"
   xmlns:svg="http://www.w3.org/2000/svg"
   xmlns="http://www.w3.org/2000/svg"
   xmlns:sodipodi="http://sodipodi.sourceforge.net/DTD/sodipodi-0.dtd"
   xmlns:inkscape="http://www.inkscape.org/namespaces/inkscape"
   width="130.00101"
   height="65.586021"
   id="svg2"
   inkscape:label="Pozadí"
   version="1.1"
   inkscape:version="0.91+devel+osxmenu r12832"
   viewBox="0 0 130.00101 65.586023"
   sodipodi:docname="dpd-black.svg">
  <defs
     id="defs10783" />
  <sodipodi:namedview
     id="base"
     pagecolor="#ffffff"
     bordercolor="#666666"
     borderopacity="1.0"
     inkscape:pageopacity="0.0"
     inkscape:pageshadow="2"
     inkscape:zoom="4.9342795"
     inkscape:cx="90.435529"
     inkscape:cy="24.609477"
     inkscape:document-units="px"
     inkscape:current-layer="layer1"
     showgrid="false"
     inkscape:window-width="1440"
     inkscape:window-height="783"
     inkscape:window-x="247"
     inkscape:window-y="1103"
     inkscape:window-maximized="0"
     showborder="false"
     fit-margin-top="0"
     fit-margin-left="0"
     fit-margin-right="0"
     fit-margin-bottom="0" />
  <metadata
     id="metadata10786">
    <rdf:RDF>
      <cc:Work
         rdf:about="">
        <dc:format>image/svg+xml</dc:format>
        <dc:type
           rdf:resource="http://purl.org/dc/dcmitype/StillImage" />
        <dc:title></dc:title>
      </cc:Work>
    </rdf:RDF>
  </metadata>
  <g
     inkscape:label="Vrstva 1"
     inkscape:groupmode="layer"
     id="layer1"
     transform="translate(-278.93143,-500.23196)">
    <path
       inkscape:export-ydpi="250"
       inkscape:export-xdpi="250"
       inkscape:export-filename="/Users/Matt/Desktop/seeweb3.png"
       style="opacity:1;fill:#000000"
       d="m 376.87543,565.74256 c -0.02,-0.048 -4.054,-2.4057 -8.965,-5.24 l -8.928,-5.1537 -0.03,-3.7877 c -0.03,-2.6136 0,-3.8019 0.09,-3.8325 0.06,-0.024 4.139,2.2819 9.055,5.1252 4.916,2.8434 9.003,5.144 9.086,5.1127 0.08,-0.031 4.13,-2.3559 8.994,-5.1654 4.865,-2.81 8.899,-5.1088 8.965,-5.1088 0.08,0 0.108,1.1381 0.09,3.8263 l -0.03,3.8262 -8.374,4.8349 c -4.605,2.6592 -8.683,5.0184 -9.057,5.2423 -0.712,0.4237 -0.825,0.4653 -0.884,0.3205 z m -10.11,-18.9398 -10.181,-5.8768 0.03,-11.8951 0.03,-11.8951 10.101,-5.8414 c 5.553,-3.2127 10.187,-5.8431 10.294,-5.8455 0.245,-0.01 20.153,11.4561 20.413,11.7517 0.179,0.2019 0.191,0.917 0.189,11.7422 0,6.34 -0.03,11.6325 -0.06,11.7614 -0.04,0.1742 -2.655,1.7306 -10.243,6.1089 -5.598,3.2314 -10.225,5.8732 -10.279,5.8708 -0.05,0 -4.682,-2.6488 -10.281,-5.8811 z m 7.929,-8.6765 -0.03,-7.8281 -6.671,-3.8501 c -3.667,-2.1173 -6.711,-3.8088 -6.762,-3.7589 -0.05,0.051 -0.08,3.5743 -0.06,7.8321 l 0.03,7.7414 6.626,3.8353 c 3.644,2.1093 6.684,3.8401 6.761,3.846 0.107,0.01 0.13,-1.5863 0.107,-7.8177 z m 11.593,3.9896 6.625,-3.8287 0.03,-7.7537 c 0.02,-4.2645 0,-7.7908 -0.05,-7.8363 -0.04,-0.045 -3.1,1.6589 -6.788,3.7874 l -6.706,3.87 0,7.8 c 0,6.1703 0.03,7.7992 0.135,7.7951 0.08,0 3.117,-1.7278 6.76,-3.8338 z m -2.435,-19.6411 c 3.638,-2.1024 6.616,-3.8799 6.616,-3.9502 0,-0.1563 -13.136,-7.758 -13.407,-7.758 -0.254,0 -13.418,7.6127 -13.418,7.76 0,0.1446 13.128,7.7535 13.393,7.7633 0.108,0 3.174,-1.713 6.816,-3.8151 z m -35.196,11.1417 c -1.704,-0.9857 -3.158,-1.829 -3.234,-1.8738 -0.199,-0.1179 -0.195,-20.9632 0,-21.1527 0.08,-0.071 4.133,-2.4324 9.023,-5.25 5.709,-3.29 8.952,-5.0993 9.063,-5.0567 0.541,0.2078 6.427,3.7034 6.396,3.7985 -0.03,0.062 -4.035,2.4201 -8.924,5.2385 -4.887,2.8185 -8.927,5.1887 -8.978,5.2673 -0.05,0.079 -0.09,4.7981 -0.09,10.4878 0,5.6895 -0.03,10.3419 -0.09,10.3387 -0.04,0 -1.473,-0.8121 -3.177,-1.7976 z m 53.541,-8.5296 c 0,-5.6959 -0.04,-10.4195 -0.09,-10.4969 -0.05,-0.077 -4.089,-2.4478 -8.975,-5.2673 -4.89,-2.8197 -8.906,-5.1771 -8.927,-5.2388 -0.03,-0.097 6.322,-3.8519 6.519,-3.8519 0.03,0 4.115,2.3333 9.058,5.1852 4.943,2.8519 9.024,5.1734 9.07,5.1587 0.04,-0.016 0.08,4.7387 0.08,10.5625 0,6.4085 -0.04,10.589 -0.104,10.589 -0.05,0 -1.502,0.8091 -3.213,1.7987 -1.71,0.989 -3.181,1.825 -3.265,1.8577 -0.132,0.051 -0.154,-1.3768 -0.155,-10.2969 z m -123.266,-3.9415 0,-10.4874 5.023,0 c 5.341,0 6.282,0.066 7.848,0.5474 4.087,1.2579 6.441,4.8378 6.457,9.8266 0,3.1526 -0.885,5.853 -2.522,7.6061 -1.261,1.3508 -2.537,2.0927 -4.532,2.6346 l -1.033,0.2806 -5.621,0.04 -5.62,0.04 0,-10.4876 z m 10.204,5.6558 c 1.548,-0.4446 2.609,-1.2735 3.179,-2.4811 0.444,-0.945 0.572,-1.6605 0.573,-3.1817 0,-1.1647 -0.04,-1.5489 -0.246,-2.1949 -0.34,-1.0766 -1.016,-2.0305 -1.839,-2.5948 -1.307,-0.8943 -2.462,-1.1538 -4.921,-1.1058 l -1.574,0.031 -0.03,5.7559 c -0.02,3.166 0,5.8229 0.03,5.9047 0.08,0.2146 3.99,0.1066 4.828,-0.1334 z m 11.893,4.6837 c -0.03,-0.076 -0.04,-4.7805 -0.03,-10.4551 l 0.03,-10.3174 5.43,-0.031 c 5.864,-0.033 6.694,0.018 8.143,0.4955 1.511,0.4996 2.907,1.6255 3.532,2.8479 0.613,1.2069 0.874,3.0695 0.661,4.7257 -0.399,3.0943 -1.87,4.8284 -4.756,5.6103 -0.744,0.2018 -1.257,0.2373 -4.267,0.2956 l -3.42,0.065 -0.05,3.4209 -0.05,3.4211 -2.583,0.03 c -2.008,0.023 -2.593,0 -2.635,-0.1087 z m 10.654,-11.1036 c 2.353,-0.7017 2.539,-4.0621 0.289,-5.1779 -0.494,-0.2447 -0.608,-0.2542 -3.065,-0.2548 l -2.551,0 -0.03,2.6587 c -0.02,1.4625 0,2.7207 0.03,2.7966 0.08,0.212 4.613,0.1933 5.333,-0.022 z m 10.218,11.0727 c -0.105,-0.2713 -0.08,-20.5031 0.03,-20.6682 0.08,-0.1171 1.106,-0.1362 5.564,-0.1019 l 5.474,0.043 1.085,0.2927 c 4.471,1.2058 6.883,4.3987 7.083,9.3719 0.236,5.849 -2.149,9.5671 -6.975,10.8707 l -1.084,0.2936 -5.553,0.041 c -5.075,0.037 -5.558,0.024 -5.619,-0.1394 z m 10.194,-4.6667 c 2.028,-0.5705 3.189,-1.8362 3.586,-3.9105 0.597,-3.1128 -0.39,-5.8041 -2.52,-6.8795 -1.223,-0.6176 -1.744,-0.7141 -3.89,-0.719 l -1.955,-0.01 -0.03,5.9048 -0.03,5.9048 2.09,-0.056 c 1.485,-0.041 2.28,-0.1093 2.742,-0.2395 z"
       id="path15935"
       inkscape:connector-curvature="0" />
  </g>
</svg>
