<?xml version="1.0" encoding="UTF-8" standalone="no"?>
<!-- Created with Inkscape (http://www.inkscape.org/) -->

<svg
   xmlns:dc="http://purl.org/dc/elements/1.1/"
   xmlns:cc="http://creativecommons.org/ns#"
   xmlns:rdf="http://www.w3.org/1999/02/22-rdf-syntax-ns#"
   xmlns:svg="http://www.w3.org/2000/svg"
   xmlns="http://www.w3.org/2000/svg"
   xmlns:sodipodi="http://sodipodi.sourceforge.net/DTD/sodipodi-0.dtd"
   xmlns:inkscape="http://www.inkscape.org/namespaces/inkscape"
   width="130.0049"
   height="64.520149"
   id="svg2"
   inkscape:label="Pozadí"
   version="1.1"
   inkscape:version="0.91+devel+osxmenu r12832"
   viewBox="0 0 130.0049 64.520151"
   sodipodi:docname="hezkey-black.svg">
  <defs
     id="defs11404" />
  <sodipodi:namedview
     id="base"
     pagecolor="#ffffff"
     bordercolor="#666666"
     borderopacity="1.0"
     inkscape:pageopacity="0.0"
     inkscape:pageshadow="2"
     inkscape:zoom="0.87226562"
     inkscape:cx="-0.81932895"
     inkscape:cy="-49.874676"
     inkscape:document-units="px"
     inkscape:current-layer="layer1"
     showgrid="false"
     fit-margin-top="0"
     fit-margin-left="0"
     fit-margin-right="0"
     fit-margin-bottom="0"
     showborder="false"
     inkscape:window-width="1015"
     inkscape:window-height="783"
     inkscape:window-x="667"
     inkscape:window-y="1103"
     inkscape:window-maximized="0" />
  <metadata
     id="metadata11407">
    <rdf:RDF>
      <cc:Work
         rdf:about="">
        <dc:format>image/svg+xml</dc:format>
        <dc:type
           rdf:resource="http://purl.org/dc/dcmitype/StillImage" />
        <dc:title></dc:title>
      </cc:Work>
    </rdf:RDF>
  </metadata>
  <g
     inkscape:label="Vrstva 1"
     inkscape:groupmode="layer"
     id="layer1"
     transform="translate(-375.81934,-417.96736)">
    <path
       inkscape:connector-curvature="0"
       id="path15917"
       d="m 505.81703,457.28596 c 0.02,-18.535 0,-25.2051 -0.08,-25.2936 -0.07,-0.097 -0.633,-0.1201 -2.777,-0.1191 -1.472,0 -2.725,0.033 -2.783,0.071 -0.08,0.054 -0.116,3.1519 -0.137,14.1444 -0.02,12.9438 -0.03,14.1198 -0.179,14.6313 -0.682,2.4956 -2.802,3.8273 -5.196,3.2628 -1.579,-0.372 -2.669,-1.4941 -3.193,-3.2859 -0.145,-0.4953 -0.159,-1.5318 -0.203,-14.6566 l -0.05,-14.1235 -2.744,-0.023 c -2.002,-0.018 -2.776,0.011 -2.87,0.08 -0.106,0.09 -0.119,2.1704 -0.1,14.5913 0.02,10.7906 0.06,14.6678 0.142,15.1973 0.233,1.5368 0.603,2.6946 1.144,3.5796 0.849,1.392 2.102,2.5481 3.441,3.1772 1.285,0.6037 1.793,0.7017 3.642,0.7023 1.578,0 1.61,-0.01 2.443,-0.2916 1.215,-0.4213 1.962,-0.8918 2.864,-1.8062 0.425,-0.4327 0.795,-0.7867 0.82,-0.7867 0.02,0 0.05,3.6108 0.05,8.024 0,4.4135 0.02,8.0515 0.06,8.0847 0.03,0.033 1.321,0.05 2.863,0.038 l 2.805,-0.023 0.02,-25.1734 z m -96.589,11.5049 c 1.667,-0.4341 3.084,-1.3082 4.109,-2.5337 1.361,-1.6284 2.002,-3.5099 2.091,-6.1381 l 0.02,-0.8437 -1.333,0 -1.332,0 -0.02,0.3551 c -0.111,1.7851 -0.429,3.2091 -0.935,4.1725 -0.396,0.7563 -1.465,1.8088 -2.195,2.1622 -1.189,0.5742 -2.759,0.7767 -3.998,0.5155 -1.667,-0.3514 -2.947,-1.3319 -3.677,-2.8198 -0.971,-1.9796 -1.311,-4.6023 -1.33,-10.2927 l -0.02,-3.2422 7.417,-0.044 7.418,-0.043 -0.02,-3.1534 c -0.02,-5.9316 -0.499,-9.3696 -1.64,-11.6624 -0.985,-1.9799 -2.869,-3.4183 -5.161,-3.9413 -0.886,-0.2022 -3.074,-0.2045 -3.95,-0.011 -3.07,0.702 -5.062,2.7041 -5.937,5.9643 -0.711,2.6411 -0.95,5.8456 -0.954,12.7083 0,8.6649 0.416,12.2233 1.77,14.9674 0.444,0.9032 0.597,1.1153 1.308,1.8312 1.206,1.2157 2.481,1.8807 4.251,2.2179 1.019,0.1938 3.003,0.1093 4.091,-0.1739 z m -8.553,-21.1009 c -0.106,-0.067 -0.115,-0.4575 -0.06,-2.447 0.129,-5.0727 0.521,-7.5236 1.454,-9.0951 0.726,-1.225 2.106,-2.1882 3.518,-2.4561 0.855,-0.162 1.233,-0.1619 2.143,2e-4 0.949,0.1689 1.863,0.632 2.589,1.3104 1.563,1.4633 2.11,3.4933 2.341,8.7071 0.137,2.988 0.124,3.9428 -0.05,4.0086 -0.227,0.088 -11.795,0.059 -11.933,-0.028 z m 73.734,21.1019 c 2.286,-0.535 3.99,-1.6512 5.255,-3.4417 1.175,-1.6673 1.92,-3.9834 1.954,-6.0748 l 0.02,-0.9773 -2.7,-0.023 c -1.728,-0.015 -2.736,0.011 -2.806,0.067 -0.06,0.05 -0.132,0.4 -0.164,0.7786 -0.147,1.8451 -0.918,3.3477 -2.111,4.1129 -0.894,0.5737 -2.128,0.8007 -3.17,0.5831 -0.821,-0.1713 -1.429,-0.5026 -2.055,-1.1208 -1.269,-1.2495 -1.736,-3.3582 -1.868,-8.4384 -0.03,-1.4411 -0.05,-2.6503 -0.02,-2.687 0.02,-0.037 3.383,-0.068 7.471,-0.069 4.199,0 7.488,-0.037 7.558,-0.08 0.107,-0.067 0.117,-0.589 0.07,-3.352 -0.1,-5.4656 -0.412,-8.1849 -1.234,-10.6454 -1.191,-3.5599 -3.691,-5.6647 -7.343,-6.1806 -1.108,-0.157 -3.672,-0.058 -4.616,0.1786 -1.658,0.4147 -2.918,1.0931 -4.107,2.21 -2.203,2.0701 -3.118,4.9091 -3.453,10.7083 -0.119,2.03 -0.119,9.4114 0,11.3822 0.233,3.921 0.765,6.5576 1.704,8.4386 1.132,2.2634 3.195,3.9626 5.555,4.5747 1.136,0.2945 1.725,0.347 3.486,0.3114 1.359,-0.027 1.806,-0.071 2.592,-0.255 z m -7.621,-21.7468 c -0.08,-0.1408 -0.05,-2.7635 0.06,-4.2031 0.149,-1.9506 0.442,-3.3508 0.898,-4.2804 0.338,-0.6894 1.29,-1.6328 1.953,-1.9339 1.962,-0.8918 4.352,-0.09 5.339,1.7932 0.684,1.3029 1.035,3.7687 1.039,7.2764 0,1.1455 -0.02,1.3532 -0.139,1.399 -0.07,0.031 -2.152,0.054 -4.613,0.054 -3.35,0 -4.49,-0.028 -4.538,-0.1046 z m -23.573,15.957 c 0.03,-4.8115 0.06,-5.539 0.186,-5.7296 0.08,-0.1199 0.949,-1.5071 1.939,-3.0826 0.99,-1.5756 1.831,-2.8646 1.87,-2.8646 0.03,0 0.1,0.054 0.12,0.1223 0.928,2.4194 6.88,16.9218 6.976,17.0002 0.107,0.087 0.831,0.1068 3.162,0.089 2.646,-0.021 3.024,-0.04 3.049,-0.1611 0.02,-0.075 -2.134,-5.0829 -4.775,-11.1274 -2.638,-6.0442 -4.798,-11.0657 -4.798,-11.1584 0,-0.093 1.978,-3.3383 4.395,-7.2121 2.419,-3.8738 4.364,-7.0754 4.325,-7.1147 -0.03,-0.038 -1.405,-0.06 -3.036,-0.049 l -2.967,0.023 -5.113,8.5532 c -2.81,4.7043 -5.151,8.5616 -5.198,8.572 -0.06,0.013 -0.106,-2.909 -0.135,-8.5533 l -0.05,-8.5719 -2.793,-0.023 c -2.174,-0.018 -2.808,0 -2.864,0.089 -0.02,0.061 -0.07,8.3088 -0.07,18.3265 0,14.1658 0.02,18.2379 0.106,18.3218 0.08,0.081 0.795,0.1014 2.866,0.084 l 2.756,-0.023 0.05,-5.5113 z m -64.577,-9.4563 0.05,-14.8785 0.201,-0.7055 c 0.809,-2.8487 2.934,-4.443 5.706,-4.2823 2.567,0.1486 4.328,1.6611 5.086,4.3659 l 0.198,0.7107 0.05,14.8343 0.05,14.834 1.355,0.023 1.355,0.023 0,-14.803 c 0,-16.095 0.02,-15.7801 -0.493,-17.3147 -0.579,-1.7736 -1.682,-3.176 -3.284,-4.176 -2.016,-1.2581 -4.873,-1.4535 -7.035,-0.4818 -1.066,0.4794 -2.284,1.4752 -2.846,2.3258 -0.124,0.1844 -0.257,0.3353 -0.301,0.3353 -0.04,0 -0.08,-3.6835 -0.105,-8.1943 l -0.02,-8.1943 -1.377,0 -1.376,0 -0.02,25.138 c -0.03,13.8261 0,25.1892 0.02,25.2515 0.02,0.087 0.361,0.1075 1.398,0.089 l 1.357,-0.023 0.05,-14.8786 z m 55.053,13.7308 c 0.02,-0.8586 0,-1.1659 -0.1,-1.22 -0.06,-0.039 -3.005,-0.073 -6.541,-0.074 -6.089,0 -6.427,-0.011 -6.387,-0.1574 0.02,-0.085 2.966,-7.2985 6.542,-16.0282 l 6.501,-15.8722 -0.02,-1.0933 -0.02,-1.0932 -7.639,0 -7.639,0 0,1.1992 0,1.1992 6.128,0.044 c 5.385,0.039 6.13,0.06 6.123,0.178 0,0.074 -2.935,7.2712 -6.509,15.9951 l -6.496,15.8616 0,1.0669 c 0,0.5871 0.02,1.0942 0.06,1.1269 0.02,0.034 3.641,0.05 8.017,0.037 l 7.957,-0.023 0.02,-1.1477 z"
       style="opacity:1;fill:#000000"
       sodipodi:nodetypes="ccccccscsccccccccccssccccccsccccccsccccccccccccccscccccscccccccsccccccccccccccsccscccccccccccccsccccsccsccsccscccccccccccccccccccccccsccccsccccccccccccccccccccccscscsccccc"
       inkscape:export-filename="/Users/Matt/Desktop/seeweb3.png"
       inkscape:export-xdpi="250"
       inkscape:export-ydpi="250" />
  </g>
</svg>
