<?xml version="1.0" encoding="UTF-8" standalone="no"?>
<!-- Created with Inkscape (http://www.inkscape.org/) -->

<svg
   xmlns:dc="http://purl.org/dc/elements/1.1/"
   xmlns:cc="http://creativecommons.org/ns#"
   xmlns:rdf="http://www.w3.org/1999/02/22-rdf-syntax-ns#"
   xmlns:svg="http://www.w3.org/2000/svg"
   xmlns="http://www.w3.org/2000/svg"
   xmlns:sodipodi="http://sodipodi.sourceforge.net/DTD/sodipodi-0.dtd"
   xmlns:inkscape="http://www.inkscape.org/namespaces/inkscape"
   width="30.000002"
   height="30.001703"
   id="svg2"
   inkscape:label="Pozadí"
   version="1.1"
   inkscape:version="0.91+devel+osxmenu r12832"
   viewBox="0 0 30.000002 30.001704"
   sodipodi:docname="jazyk-en.svg">
  <defs
     id="defs11404" />
  <sodipodi:namedview
     id="base"
     pagecolor="#ffffff"
     bordercolor="#666666"
     borderopacity="1.0"
     inkscape:pageopacity="0.0"
     inkscape:pageshadow="2"
     inkscape:zoom="2.4671398"
     inkscape:cx="-17.591418"
     inkscape:cy="-19.916763"
     inkscape:document-units="px"
     inkscape:current-layer="layer1"
     showgrid="false"
     fit-margin-top="0"
     fit-margin-left="0"
     fit-margin-right="0"
     fit-margin-bottom="0"
     showborder="false"
     inkscape:window-width="1015"
     inkscape:window-height="783"
     inkscape:window-x="667"
     inkscape:window-y="1103"
     inkscape:window-maximized="0" />
  <metadata
     id="metadata11407">
    <rdf:RDF>
      <cc:Work
         rdf:about="">
        <dc:format>image/svg+xml</dc:format>
        <dc:type
           rdf:resource="http://purl.org/dc/dcmitype/StillImage" />
        <dc:title></dc:title>
      </cc:Work>
    </rdf:RDF>
  </metadata>
  <g
     inkscape:label="Vrstva 1"
     inkscape:groupmode="layer"
     id="layer1"
     transform="translate(-428.97128,97.181831)">
    <g
       id="g13603">
      <g
         transform="matrix(0.83900693,0,0,0.83905624,-25568.996,43.11697)"
         style="font-style:normal;font-variant:normal;font-weight:bold;font-stretch:normal;font-size:6.83672476px;line-height:125%;font-family:'Avenir Next LT Pro';-inkscape-font-specification:'Avenir Next LT Pro Bold';letter-spacing:0px;word-spacing:0px;opacity:0.97600002;fill:#b3b3b3;fill-opacity:1;stroke:none"
         id="flowRoot13497">
        <path
           d="m 30992.818,-141.57096 9.344,0 0,-2.66632 -0.228,0 c 0,0.63809 -0.547,1.8687 -1.709,1.8687 l -4.991,0 0,-6.90509 3.783,0 c 0.729,0 1.231,0.45578 1.231,1.00272 l 0.228,0 0,-2.84863 -0.228,0 c 0,0.56972 -0.524,1.07108 -1.231,1.07108 l -3.783,0 0,-5.76563 4.581,0 c 1.025,0 1.481,0.6153 1.549,1.32176 l 0.228,0 0,-2.11938 -8.774,0 0,0.22789 0.114,0 c 0.456,0 0.775,0.75204 0.775,1.18503 l 0,12.19216 c 0,0.45578 -0.319,1.20782 -0.775,1.20782 l -0.114,0 0,0.22789 z"
           style="font-style:normal;font-variant:normal;font-weight:normal;font-stretch:normal;font-size:22.78908348px;font-family:Forum;-inkscape-font-specification:Forum;fill:#b3b3b3"
           id="path13616" />
        <path
           d="m 31006.25,-141.79885 c -0.479,0 -0.752,-0.79762 -0.752,-1.2534 l 0,-11.59964 8.249,13.08093 1.413,0 0,-13.62787 c 0,-0.43299 0.274,-1.18503 0.752,-1.18503 l 0.114,0 0,-0.22789 -2.552,0 0,0.22789 0.114,0 c 0.456,0 0.775,0.75204 0.775,1.18503 l 0,11.62243 -8.273,-13.03535 -2.301,0 0,0.22789 0.114,0 c 0.638,0 0.797,0.75204 0.797,1.18503 l 0,12.14658 c 0,0.45578 -0.296,1.2534 -0.752,1.2534 l -0.114,0 0,0.22789 2.53,0 0,-0.22789 -0.114,0 z"
           style="font-style:normal;font-variant:normal;font-weight:normal;font-stretch:normal;font-size:22.78908348px;font-family:Forum;-inkscape-font-specification:Forum;fill:#b3b3b3"
           id="path13618" />
      </g>
      <path
         style="opacity:1;fill:none;fill-opacity:1;stroke:#b3b3b3;stroke-width:1;stroke-linejoin:miter;stroke-miterlimit:4;stroke-dasharray:none;stroke-opacity:1"
         d="m 429.47128,-96.681831 29,0 0,29.001703 -29,0 z"
         id="rect13508" />
    </g>
  </g>
</svg>
