<?xml version="1.0" encoding="UTF-8" standalone="no"?>
<!-- Created with Inkscape (http://www.inkscape.org/) -->

<svg
   xmlns:dc="http://purl.org/dc/elements/1.1/"
   xmlns:cc="http://creativecommons.org/ns#"
   xmlns:rdf="http://www.w3.org/1999/02/22-rdf-syntax-ns#"
   xmlns:svg="http://www.w3.org/2000/svg"
   xmlns="http://www.w3.org/2000/svg"
   xmlns:sodipodi="http://sodipodi.sourceforge.net/DTD/sodipodi-0.dtd"
   xmlns:inkscape="http://www.inkscape.org/namespaces/inkscape"
   width="129.99942"
   height="19.452362"
   id="svg2"
   inkscape:label="Pozadí"
   version="1.1"
   inkscape:version="0.91+devel+osxmenu r12832"
   viewBox="0 0 129.99942 19.452363"
   sodipodi:docname="kamikaze-white.svg">
  <defs
     id="defs11404" />
  <sodipodi:namedview
     id="base"
     pagecolor="#ffffff"
     bordercolor="#666666"
     borderopacity="1.0"
     inkscape:pageopacity="0.0"
     inkscape:pageshadow="2"
     inkscape:zoom="0.87226562"
     inkscape:cx="-27.771571"
     inkscape:cy="60.347457"
     inkscape:document-units="px"
     inkscape:current-layer="layer1"
     showgrid="false"
     fit-margin-top="0"
     fit-margin-left="0"
     fit-margin-right="0"
     fit-margin-bottom="0"
     showborder="false"
     inkscape:window-width="1015"
     inkscape:window-height="783"
     inkscape:window-x="667"
     inkscape:window-y="1103"
     inkscape:window-maximized="0" />
  <metadata
     id="metadata11407">
    <rdf:RDF>
      <cc:Work
         rdf:about="">
        <dc:format>image/svg+xml</dc:format>
        <dc:type
           rdf:resource="http://purl.org/dc/dcmitype/StillImage" />
        <dc:title></dc:title>
      </cc:Work>
    </rdf:RDF>
  </metadata>
  <g
     inkscape:label="Vrstva 1"
     inkscape:groupmode="layer"
     id="layer1"
     transform="translate(-402.77159,-160.53892)">
    <path
       inkscape:export-ydpi="250"
       inkscape:export-xdpi="250"
       inkscape:export-filename="/Users/Matt/Desktop/seeweb3.png"
       style="opacity:1;fill:#ffffff"
       d="m 402.99758,179.7549 c -0.125,-0.1244 -0.226,-0.3914 -0.226,-0.5936 0,-0.3704 2.962,-17.3149 3.11,-17.7932 0.04,-0.1412 0.216,-0.3843 0.382,-0.5399 0.271,-0.2517 0.515,-0.2831 2.194,-0.2831 2.103,0 2.425,0.1072 2.423,0.8074 0,0.2291 -0.248,1.7994 -0.549,3.4901 -0.604,3.3912 -0.602,3.4189 0.343,3.2534 0.27,-0.046 0.634,-0.1809 0.813,-0.2979 0.188,-0.1236 0.998,-1.5216 1.931,-3.337 0.912,-1.7763 1.789,-3.2949 2.032,-3.5202 0.421,-0.3911 0.45,-0.3958 2.357,-0.3958 2.119,0 2.386,0.094 2.382,0.8383 0,0.2117 -0.805,1.9325 -1.787,3.8235 -1.43,2.7534 -1.934,3.5883 -2.528,4.19 l -0.742,0.7519 0.361,0.532 c 0.509,0.7487 0.584,1.0447 1.239,4.789 0.792,4.5388 0.807,4.5114 -2.244,4.5114 -1.597,0 -1.943,-0.04 -2.192,-0.252 -0.245,-0.2099 -0.381,-0.7907 -0.809,-3.4679 -0.281,-1.7691 -0.579,-3.3386 -0.659,-3.488 -0.08,-0.1497 -0.27,-0.3383 -0.422,-0.4193 -0.343,-0.1847 -1.255,-0.1926 -1.367,-0.013 -0.04,0.075 -0.338,1.6263 -0.648,3.4483 -0.31,1.822 -0.634,3.4438 -0.721,3.6046 -0.267,0.4996 -0.646,0.5862 -2.576,0.5862 -1.509,0 -1.915,-0.043 -2.097,-0.2261 z m 15.452,-0.077 c -0.221,-0.2215 -0.281,-0.4129 -0.22,-0.7118 0.155,-0.7861 7.49601,-17.7755 7.81601,-18.0976 0.316,-0.3165 0.396,-0.3239 3.548,-0.3239 2.928,0 3.244,0.025 3.458,0.2605 0.198,0.2172 0.334,1.6218 0.814,8.4499 0.698,9.867 0.698,9.8996 0.226,10.3725 -0.341,0.3399 -0.427,0.3533 -2.277,0.3533 -2.48,0 -2.443,0.025 -2.524,-1.7453 -0.03,-0.7427 -0.127,-1.4312 -0.207,-1.5302 -0.106,-0.131 -0.8,-0.18 -2.557,-0.18 -1.75501,0 -2.45401,0.05 -2.55901,0.18 -0.08,0.099 -0.357,0.727 -0.615,1.3955 -0.706,1.836 -0.774,1.88 -2.867,1.88 -1.571,0 -1.763,-0.028 -2.036,-0.3029 z m 10.42101,-9.2714 c -0.04,-2.9957 -0.191,-4.989 -0.359,-4.9326 -0.193,0.064 -2.863,6.7383 -2.761,6.9025 0.04,0.071 0.77,0.1091 1.616,0.086 l 1.536,-0.041 -0.03,-2.0155 z m 7.816,9.3481 c -0.124,-0.1246 -0.226,-0.4058 -0.226,-0.6248 0,-0.3998 2.951,-17.2664 3.107,-17.7576 0.04,-0.1437 0.22,-0.3886 0.386,-0.5443 0.282,-0.2629 0.521,-0.2833 3.351,-0.2833 2.717,0 3.07,0.03 3.273,0.2521 0.185,0.2026 0.301,1.2882 0.598,5.5307 0.204,2.9034 0.371,5.4192 0.371,5.5906 0,0.1765 0.07,0.2879 0.17,0.2554 0.08,-0.031 1.184,-2.5075 2.424,-5.5036 1.239,-2.9956 2.4,-5.599 2.58,-5.7855 0.323,-0.3359 0.36,-0.3397 3.397,-0.3397 3.332,0 3.521,0.044 3.521,0.8018 0,0.569 -3.008,17.5183 -3.186,17.9561 -0.08,0.2206 -0.28,0.4637 -0.422,0.54 -0.144,0.077 -1.031,0.1383 -1.975,0.1383 -1.478,0 -1.747,-0.036 -1.951,-0.2631 -0.132,-0.145 -0.239,-0.3721 -0.239,-0.5047 0,-0.1328 0.421,-2.6032 0.936,-5.4896 0.944,-5.302 1.045,-6.0077 0.804,-5.757 -0.07,0.076 -1.204,2.6634 -2.518,5.7516 -1.644,3.8637 -2.503,5.716 -2.757,5.9388 -0.336,0.2951 -0.514,0.324 -1.994,0.324 -1.398,0 -1.659,-0.037 -1.866,-0.2659 -0.195,-0.216 -0.294,-1.0072 -0.529,-4.2112 -0.559,-7.6546 -0.575,-7.8044 -0.783,-7.5972 -0.03,0.037 -0.518,2.6233 -1.071,5.747 -1.218,6.8778 -0.916,6.3273 -3.466,6.3273 -1.361,0 -1.756,-0.046 -1.935,-0.2262 z m 23.467,0 c -0.124,-0.1246 -0.226,-0.3914 -0.226,-0.5937 0,-0.3704 2.962,-17.3148 3.112,-17.7931 0.04,-0.1412 0.215,-0.3842 0.382,-0.5399 0.271,-0.2516 0.514,-0.2833 2.193,-0.2833 2.165,0 2.444,0.1023 2.416,0.8831 -0.03,0.7721 -3.044,17.6689 -3.208,17.9788 -0.261,0.4867 -0.653,0.5743 -2.572,0.5743 -1.509,0 -1.913,-0.043 -2.097,-0.2262 z m 8.351,0 c -0.125,-0.1246 -0.226,-0.3914 -0.226,-0.5937 0,-0.3704 2.962,-17.3148 3.11,-17.7931 0.04,-0.1412 0.216,-0.3842 0.383,-0.5399 0.271,-0.2516 0.514,-0.2833 2.193,-0.2833 2.104,0 2.425,0.1073 2.422,0.8075 0,0.2291 -0.247,1.7994 -0.548,3.4902 -0.603,3.3911 -0.601,3.4189 0.342,3.2532 0.271,-0.046 0.635,-0.1808 0.815,-0.2977 0.187,-0.1236 0.996,-1.5216 1.929,-3.337 0.912,-1.7763 1.79,-3.2951 2.033,-3.5202 0.421,-0.3912 0.449,-0.396 2.357,-0.396 2.12,0 2.386,0.095 2.382,0.8384 0,0.2117 -0.804,1.9326 -1.787,3.8236 -1.43,2.7532 -1.934,3.5883 -2.528,4.19 l -0.742,0.7518 0.361,0.5321 c 0.509,0.7487 0.585,1.0448 1.238,4.7889 0.792,4.5389 0.807,4.5114 -2.242,4.5114 -1.599,0 -1.944,-0.04 -2.193,-0.2521 -0.245,-0.2097 -0.38,-0.7905 -0.807,-3.4678 -0.284,-1.769 -0.58,-3.3386 -0.661,-3.4879 -0.08,-0.1499 -0.269,-0.3383 -0.422,-0.4193 -0.344,-0.1847 -1.256,-0.1927 -1.367,-0.013 -0.04,0.075 -0.337,1.6263 -0.648,3.4484 -0.31,1.8218 -0.635,3.4437 -0.721,3.6045 -0.266,0.4997 -0.647,0.5863 -2.577,0.5863 -1.508,0 -1.914,-0.044 -2.096,-0.2263 z m 15.308,-0.077 c -0.222,-0.2214 -0.282,-0.4129 -0.222,-0.7117 0.04,-0.2251 1.744,-4.316 3.775,-9.0913 2.423,-5.6921 3.815,-8.7939 4.044,-9.0063 0.343,-0.3156 0.433,-0.3239 3.561,-0.3239 2.914,0 3.231,0.025 3.444,0.2605 0.197,0.2172 0.332,1.6217 0.815,8.4499 0.696,9.8669 0.697,9.8995 0.225,10.3724 -0.34,0.3399 -0.427,0.3533 -2.277,0.3533 -2.48,0 -2.444,0.025 -2.524,-1.7453 -0.03,-0.7427 -0.128,-1.4312 -0.207,-1.5302 -0.105,-0.131 -0.801,-0.1799 -2.557,-0.1799 -1.757,0 -2.452,0.05 -2.56,0.1799 -0.09,0.1002 -0.357,0.727 -0.615,1.3955 -0.707,1.836 -0.772,1.88 -2.865,1.88 -1.571,0 -1.764,-0.028 -2.037,-0.3029 z m 10.422,-9.2713 c -0.04,-2.9958 -0.191,-4.9889 -0.36,-4.9326 -0.193,0.064 -2.862,6.7383 -2.761,6.9025 0.04,0.071 0.771,0.1091 1.615,0.086 l 1.537,-0.041 -0.03,-2.0156 z m 6.792,9.2289 c -0.206,-0.3141 -0.205,-0.4657 0,-1.6792 0.129,-0.7336 0.322,-1.5017 0.431,-1.7065 0.109,-0.2044 2.244,-2.8496 4.742,-5.8772 2.5,-3.0281 4.54501,-5.571 4.54501,-5.651 0,-0.095 -1.176,-0.1458 -3.31101,-0.1458 -3.12,0 -3.328,-0.016 -3.6,-0.2878 -0.343,-0.3429 -0.337,-0.2212 -0.08,-1.6869 0.233,-1.3162 0.389,-1.6921 0.794,-1.9091 0.176,-0.094 2.543,-0.1473 6.53601,-0.1473 6.877,0 6.714,-0.023 6.714,0.8615 0,0.8598 -0.439,2.6779 -0.748,3.0978 -0.178,0.2373 -2.316,2.85 -4.755,5.8052 -2.439,2.9556 -4.39601,5.4335 -4.35101,5.507 0.04,0.076 1.48801,0.1333 3.32301,0.1333 1.958,0 3.351,0.059 3.519,0.1491 0.322,0.173 0.355,0.6583 0.127,1.9481 -0.194,1.1065 -0.403,1.6239 -0.723,1.7959 -0.154,0.083 -2.816,0.1382 -6.60001,0.1382 l -6.341,0 -0.226,-0.3453 z m 16.14101,0.1191 c -0.126,-0.1245 -0.228,-0.4055 -0.228,-0.6244 0,-0.6374 3.013,-17.6177 3.187,-17.9577 0.1,-0.1695 0.314,-0.38 0.507,-0.4679 0.469,-0.2137 11.467,-0.2234 11.866,-0.011 0.337,0.1809 0.36,0.8841 0.07,2.3623 -0.302,1.5603 -0.188,1.5199 -4.264,1.5199 -2.833,0 -3.467,0.037 -3.643,0.2125 -0.212,0.2131 -0.555,1.864 -0.584,2.8109 l -0.02,0.5037 2.807,0.072 c 1.545,0.04 2.898,0.1295 3.006,0.2002 0.155,0.1002 0.18,0.372 0.107,1.2237 -0.122,1.4622 -0.325,2.1344 -0.708,2.3535 -0.214,0.1219 -1.265,0.2055 -3.197,0.2538 l -2.88,0.072 -0.255,1.2956 c -0.141,0.7128 -0.238,1.5225 -0.216,1.7996 l 0.04,0.504 3.488,0.038 c 4.236,0.046 4.035,-0.058 3.712,1.9382 -0.222,1.3768 -0.374,1.7577 -0.787,1.979 -0.176,0.094 -2.385,0.1473 -6.033,0.1473 -5.044,0 -5.786,-0.03 -5.985,-0.2263 z"
       id="path15953"
       inkscape:connector-curvature="0" />
  </g>
</svg>
