<?xml version="1.0" encoding="UTF-8" standalone="no"?>
<!-- Created with Inkscape (http://www.inkscape.org/) -->

<svg
   xmlns:dc="http://purl.org/dc/elements/1.1/"
   xmlns:cc="http://creativecommons.org/ns#"
   xmlns:rdf="http://www.w3.org/1999/02/22-rdf-syntax-ns#"
   xmlns:svg="http://www.w3.org/2000/svg"
   xmlns="http://www.w3.org/2000/svg"
   xmlns:sodipodi="http://sodipodi.sourceforge.net/DTD/sodipodi-0.dtd"
   xmlns:inkscape="http://www.inkscape.org/namespaces/inkscape"
   width="130"
   height="43.984673"
   id="svg2"
   inkscape:label="Pozadí"
   version="1.1"
   inkscape:version="0.91+devel+osxmenu r12832"
   viewBox="0 0 130 43.984674"
   sodipodi:docname="logio-black.svg">
  <defs
     id="defs11404" />
  <sodipodi:namedview
     id="base"
     pagecolor="#ffffff"
     bordercolor="#666666"
     borderopacity="1.0"
     inkscape:pageopacity="0.0"
     inkscape:pageshadow="2"
     inkscape:zoom="0.87226562"
     inkscape:cx="153.14821"
     inkscape:cy="-106.20998"
     inkscape:document-units="px"
     inkscape:current-layer="layer1"
     showgrid="false"
     fit-margin-top="0"
     fit-margin-left="0"
     fit-margin-right="0"
     fit-margin-bottom="0"
     showborder="false"
     inkscape:window-width="1015"
     inkscape:window-height="783"
     inkscape:window-x="667"
     inkscape:window-y="1103"
     inkscape:window-maximized="0" />
  <metadata
     id="metadata11407">
    <rdf:RDF>
      <cc:Work
         rdf:about="">
        <dc:format>image/svg+xml</dc:format>
        <dc:type
           rdf:resource="http://purl.org/dc/dcmitype/StillImage" />
        <dc:title></dc:title>
      </cc:Work>
    </rdf:RDF>
  </metadata>
  <g
     inkscape:label="Vrstva 1"
     inkscape:groupmode="layer"
     id="layer1"
     transform="translate(-221.8518,-382.16753)">
    <path
       inkscape:export-ydpi="250"
       inkscape:export-xdpi="250"
       inkscape:export-filename="/Users/Matt/Desktop/seeweb3.png"
       style="opacity:1;fill:#000000"
       d="m 305.2678,426.12738 c -3.002,-0.3022 -5.562,-1.3961 -7.399,-3.1617 -0.67,-0.6456 -1.221,-1.2706 -1.221,-1.389 0,-0.2023 3.321,-2.9443 3.786,-3.1274 0.12,-0.046 0.627,0.2881 1.131,0.7436 0.505,0.4556 1.427,1.0709 2.05,1.3675 1.031,0.4916 1.284,0.5396 2.872,0.5396 1.465,0 1.857,-0.063 2.463,-0.3861 1.04,-0.5558 1.887,-1.6292 2.219,-2.8105 0.27,-0.9632 0.415,-4.7273 0.182,-4.7273 -0.05,0 -0.482,0.419 -0.95,0.9307 -1.222,1.3351 -2.542,1.9001 -4.669,1.998 -2.01,0.092 -3.445,-0.2556 -4.866,-1.1802 -2.77,-1.803 -4.337,-4.7063 -4.513,-8.3659 -0.109,-2.2577 0.21,-3.9235 1.09,-5.7113 1.78,-3.6176 5.299,-5.5121 9.187,-4.9456 1.847,0.2693 3.058,0.8706 3.994,1.984 l 0.739,0.8788 0.09,-1.1968 0.08,-1.1965 2.926,-0.048 2.923,-0.049 -0.05,11.2802 -0.05,11.2801 -0.452,1.1632 c -1.539,3.9517 -4.463,5.8767 -9.299,6.1196 -0.864,0.043 -1.881,0.046 -2.264,0.01 z m 3.67,-15.4715 c 0.879,-0.3655 1.745,-1.2506 2.179,-2.224 0.517,-1.1628 0.569,-3.6597 0.105,-4.7071 -0.79,-1.76 -2.283,-2.6601 -4.379,-2.6402 -1.465,0.014 -2.372,0.4211 -3.269,1.4699 -1.888,2.2046 -1.248,6.6974 1.13,7.9396 1.148,0.5994 3.017,0.6707 4.242,0.1618 z m -65.89701,5.9103 c -3.985,-0.8651 -7.032,-3.8727 -8.004,-7.9006 l -0.298,-1.2337 -1.842,0 c -3.462,0 -5.798,-0.9163 -7.998,-3.1288 -1.491,-1.5005 -2.074,-2.4834 -2.644,-4.4529 -0.395,-1.3602 -0.403,-1.5496 -0.403,-9.3989 l 0,-8.0106 3.222,0 3.222,0 0.1,7.9236 c 0.08,7.8222 0.08,7.9332 0.483,8.6636 0.217,0.4071 0.722,0.9555 1.116,1.2191 0.666,0.4395 0.889,0.4839 2.699,0.5376 l 1.972,0.058 0,-9.1228 c 0,-6.8633 0.05,-9.1746 0.207,-9.3319 0.296,-0.2938 6.256,-0.2938 6.55,0 0.156,0.1573 0.21,2.4645 0.21,9.314 l 0,9.1048 4.57,0.046 4.571,0.046 0,3.2218 0,3.2218 -4.397,0.047 c -3.939,0.043 -4.397,0.076 -4.397,0.3318 0,0.488 0.826,1.3976 1.617,1.7806 0.688,0.3326 1.059,0.3661 4.062,0.3661 2.339,0 3.369,0.061 3.517,0.209 0.293,0.2941 0.293,6.254 0,6.5478 -0.304,0.3032 -6.667,0.2579 -8.122,-0.058 z m 37.27201,-0.7817 c -1.904,-0.499 -3.256,-1.2894 -4.744,-2.7766 -3.082,-3.0808 -3.8,-7.4297 -1.891,-11.4552 0.754,-1.5882 2.914,-3.7524 4.523,-4.5317 1.801,-0.872 3.129,-1.1632 5.299,-1.1621 1.501,0 2.198,0.088 3.221,0.4014 3.519,1.0785 5.912,3.383 7.074,6.8153 0.497,1.4639 0.458,4.5787 -0.08,6.1283 -1.118,3.2506 -3.921,5.7656 -7.426,6.666 -1.467,0.3772 -4.373,0.3356 -5.98,-0.085 z m 5.317,-5.066 c 1.363,-0.6596 2.247,-2.1263 2.426,-4.0256 0.315,-3.3838 -1.584,-5.7619 -4.596,-5.7559 -2.01,0 -3.46,0.936 -4.247,2.7295 -0.551,1.2593 -0.554,3.4919 0,4.7206 0.43,0.9563 1.244,1.8956 1.978,2.2803 1.263,0.6617 3.134,0.683 4.442,0.051 z m 52.625,5.1628 c -4.214,-1.0647 -7.234,-4.352 -7.806,-8.4955 -0.584,-4.2161 1.52,-8.2798 5.315,-10.2699 1.775,-0.9297 3.133,-1.2441 5.379,-1.2441 2.246,0 3.603,0.3144 5.378,1.2441 3.38101,1.7738 5.33101,5.031 5.33101,8.911 0,3.5369 -1.444,6.3052 -4.30901,8.2639 -1.898,1.2958 -3.348,1.7238 -6.051,1.7848 -1.531,0.036 -2.579,-0.027 -3.237,-0.1943 z m 4.893,-5.0777 c 0.975,-0.3897 2.029,-1.6461 2.372,-2.8208 0.411,-1.4127 0.26,-3.505 -0.334,-4.6667 -0.84,-1.64 -2.097,-2.378 -4.059,-2.3843 -2.074,-0.011 -3.69,1.1058 -4.329,2.9789 -0.343,1.0087 -0.35,3.2482 0,4.2049 0.917,2.5982 3.675,3.7637 6.363,2.688 z m -79.331,4.7715 c -0.04,-0.1223 -0.06,-7.6275 -0.04,-16.6789 l 0.04,-16.4568 2.872,0 2.874,0 0,16.6309 0,16.631 -2.834,0.048 c -2.172,0.037 -2.853,0 -2.918,-0.1742 z m 57.854,0.1022 c -0.07,-0.066 -0.119,-4.4583 -0.119,-9.7605 l 0,-9.6403 2.917,0.049 2.916,0.048 0,9.6649 0,9.6651 -2.798,0.048 c -1.537,0.026 -2.849,-0.01 -2.916,-0.072 z m 1.742,-23.2981 c -1.521,-0.4088 -2.723,-1.9881 -2.728,-3.5825 0,-2.5597 2.496,-4.3693 4.964,-3.591 1.515,0.4772 2.689,2.0498 2.692,3.6035 0,1.6033 -1.379,3.2893 -2.977,3.6324 -1.02,0.2184 -0.891,0.2226 -1.951,-0.063 z"
       id="path15923"
       inkscape:connector-curvature="0" />
  </g>
</svg>
