<?xml version="1.0" encoding="UTF-8" standalone="no"?>
<!-- Created with Inkscape (http://www.inkscape.org/) -->

<svg
   xmlns:dc="http://purl.org/dc/elements/1.1/"
   xmlns:cc="http://creativecommons.org/ns#"
   xmlns:rdf="http://www.w3.org/1999/02/22-rdf-syntax-ns#"
   xmlns:svg="http://www.w3.org/2000/svg"
   xmlns="http://www.w3.org/2000/svg"
   xmlns:sodipodi="http://sodipodi.sourceforge.net/DTD/sodipodi-0.dtd"
   xmlns:inkscape="http://www.inkscape.org/namespaces/inkscape"
   width="130.00006"
   height="65.197594"
   id="svg2"
   inkscape:label="Pozadí"
   version="1.1"
   inkscape:version="0.91+devel+osxmenu r12832"
   viewBox="0 0 130.00006 65.197595"
   sodipodi:docname="urc-white.svg">
  <defs
     id="defs11404" />
  <sodipodi:namedview
     id="base"
     pagecolor="#ffffff"
     bordercolor="#666666"
     borderopacity="1.0"
     inkscape:pageopacity="0.0"
     inkscape:pageshadow="2"
     inkscape:zoom="0.87226562"
     inkscape:cx="155.68297"
     inkscape:cy="-10.30313"
     inkscape:document-units="px"
     inkscape:current-layer="layer1"
     showgrid="false"
     fit-margin-top="0"
     fit-margin-left="0"
     fit-margin-right="0"
     fit-margin-bottom="0"
     showborder="false"
     inkscape:window-width="1440"
     inkscape:window-height="783"
     inkscape:window-x="242"
     inkscape:window-y="1103"
     inkscape:window-maximized="0" />
  <metadata
     id="metadata11407">
    <rdf:RDF>
      <cc:Work
         rdf:about="">
        <dc:format>image/svg+xml</dc:format>
        <dc:type
           rdf:resource="http://purl.org/dc/dcmitype/StillImage" />
        <dc:title></dc:title>
      </cc:Work>
    </rdf:RDF>
  </metadata>
  <g
     inkscape:label="Vrstva 1"
     inkscape:groupmode="layer"
     id="layer1"
     transform="translate(-219.31703,-456.86146)">
    <path
       inkscape:export-ydpi="250"
       inkscape:export-xdpi="250"
       inkscape:export-filename="/Users/Matt/Desktop/seeweb3.png"
       inkscape:connector-curvature="0"
       id="path16135"
       d="m 300.34781,521.59447 c -0.41,-0.5841 -0.377,-1.1573 0.107,-1.7627 0.521,-0.664 0.863,-0.6423 1.112,0.07 0.313,0.895 1.152,0.8074 2.024,-0.211 0.786,-0.916 1.813,-2.7931 1.63,-2.9756 -0.08,-0.068 -0.507,0.1004 -0.974,0.3742 -0.959,0.5609 -2.09,0.6542 -2.464,0.2033 -0.575,-0.6935 -0.09,-1.9553 2.028,-5.2953 0.436,-0.689 0.9,-1.5142 1.029,-1.8335 0.461,-1.1386 1.052,-1.68 1.863,-1.7075 0.628,-0.022 0.797,0.06 1.05,0.503 0.212,0.3696 0.244,0.6115 0.108,0.8038 -0.107,0.1515 -0.732,1.0184 -1.391,1.9267 -1.352,1.8597 -1.981,2.9982 -1.981,3.5773 0,1.0563 1.272,0 2.612,-2.1626 0.606,-0.98 1.567,-2.4892 2.136,-3.3539 0.569,-0.8645 1.035,-1.6672 1.035,-1.7832 0,-0.1378 -0.617,-0.2113 -1.776,-0.2113 -0.975,0 -2.645,-0.1424 -3.71,-0.3164 -1.87,-0.306 -2.838,-0.7197 -4.792,-2.0485 -0.296,-0.201 -0.407,-0.1674 -0.722,0.2174 -0.207,0.2504 -0.375,0.7376 -0.375,1.0825 0,0.7125 0.34,1.2103 2.045,3.0066 1.446,1.5237 1.656,2.2058 1.079,3.5116 -0.549,1.2387 -2.541,3.0821 -4.269,3.9485 -1.348,0.6752 -1.548,0.7196 -3.216,0.7196 -1.601,0 -1.824,-0.046 -2.26,-0.4538 -0.265,-0.2497 -0.558,-0.7701 -0.65,-1.1568 l -0.166,-0.7029 -36.044,-0.097 c -35.86,-0.096 -36.043,-0.099 -36.095,-0.4821 -0.03,-0.2119 0.122,-0.6674 0.335,-1.0121 l 0.386,-0.6266 36.342,-0.032 c 19.989,-0.017 36.472,-0.038 36.629,-0.048 0.157,-0.011 0.484,0.3739 0.724,0.8507 0.53,1.0523 1.067,1.3437 2.481,1.3473 1.46,0 2.205,-0.292 2.683,-1.065 0.384,-0.6186 0.388,-0.6767 0.09,-1.2697 -0.177,-0.3419 -0.912,-1.2451 -1.632,-2.0071 -1.529,-1.6151 -1.883,-2.4602 -1.553,-3.6935 0.242,-0.8981 1.583,-3.0033 2.178,-3.4204 0.429,-0.3007 0.438,-0.2015 -0.24,-2.6148 -0.596,-2.1241 -0.45,-4.7023 0.448,-7.9042 0.768,-2.7231 7.412,-21.9208 8.512,-24.5803 3.561,-8.6269 8.815,-12.0555 18.462,-12.0477 7.567,0.011 11.838,2.1316 13.145,6.54 0.397,1.3376 0.4,3.9293 0,5.99 -0.379,1.9984 -2.105,6.9569 -2.536,7.2774 -0.429,0.3215 -12.786,0.3498 -13.105,0.03 -0.152,-0.1526 0.02,-0.8902 0.626,-2.6688 0.46,-1.352 0.942,-3.0297 1.071,-3.7282 0.206,-1.1196 0.195,-1.3285 -0.09,-1.7651 -0.27,-0.4127 -0.47,-0.4954 -1.208,-0.4954 -1.154,0 -2.163,0.5763 -2.806,1.6027 -0.581,0.9265 -0.994,2.0587 -5.647,15.4428 -1.876,5.3987 -3.457,10.0935 -3.512,10.433 -0.212,1.3044 1.668,1.694 3.27,0.6778 1.529,-0.9695 2.578,-2.9325 4.18,-7.8172 0.349,-1.0604 0.769,-2.0363 0.937,-2.1689 0.364,-0.2878 12.682,-0.3469 13.131,-0.064 0.222,0.1412 0,0.9617 -1.243,4.57 -2.251,6.5334 -3.347,8.5441 -6.095,11.1694 -2.933,2.7997 -7.068,4.7697 -11.574,5.5141 -1.271,0.2101 -1.315,0.2353 -1.315,0.7759 0,0.3492 -0.351,1.08 -0.936,1.9479 -1.165,1.7283 -2.872,4.679 -3.969,6.8618 -1.053,2.0892 -2.05,3.2237 -3.727,4.2367 -1.594,0.9635 -2.892,1.1039 -3.406,0.3689 z m 12.424,-16.8209 c 6.005,-0.924 10.711,-3.8151 13.296,-8.1672 0.746,-1.2533 2.898,-6.7931 2.898,-7.4561 0,-0.2564 -0.507,-0.2881 -3.9,-0.2425 l -3.897,0.051 -1.086,3.0422 c -1.45,4.0611 -2.421,5.457 -4.749,6.8255 -0.829,0.4866 -1.104,0.5428 -2.659,0.5428 -1.496,0 -1.85,-0.065 -2.573,-0.4798 -0.489,-0.2796 -1.031,-0.8099 -1.301,-1.2702 -0.891,-1.5184 -0.867,-1.607 3.701,-14.7779 2.292,-6.6025 4.491,-12.6986 4.889,-13.5469 1.169,-2.4966 2.538,-3.6007 4.881,-3.932 4.245,-0.6016 5.836,2.0698 4.282,7.1919 -0.481,1.5826 -0.749,1.4776 3.616,1.4193 l 3.905,-0.051 0.516,-1.4459 c 1.394,-3.9047 1.695,-7.4194 0.788,-9.1573 -0.837,-1.6005 -2.446,-2.6321 -5.161,-3.3077 -1.867,-0.4649 -8.239,-0.4726 -10.239,-0.012 -5.293,1.2183 -8.136,3.8087 -10.673,9.7304 -0.67,1.5636 -7.09,19.8037 -7.911,22.477 -0.792,2.5769 -1.343,5.0956 -1.345,6.1421 0,1.4101 0.325,2.9359 0.736,3.4243 0.299,0.3554 0.42,0.368 1.671,0.1739 1.079,-0.1674 1.562,-0.1536 2.41,0.068 1.157,0.3031 1.127,0.2365 0.863,1.9188 -0.136,0.8842 -0.129,0.9019 0.416,0.9832 1.307,0.195 4.936,0.1164 6.626,-0.1437 z m -3.168,13.163 c -0.206,-0.2961 -0.259,-0.6491 -0.174,-1.1784 0.118,-0.7346 0.108,-0.749 -0.31,-0.5252 -1.011,0.5412 -0.668,-0.5324 0.428,-1.3383 0.942,-0.6925 3.241,-3.512 4.414,-5.4143 0.616,-0.9984 0.991,-1.3969 1.502,-1.5997 1.167,-0.4629 1.819,-0.54 2.201,-0.2609 0.345,0.2519 0.345,0.283 -0.03,1.0176 -0.392,0.7783 -0.61,1.7915 -0.741,3.4221 -0.1,1.214 -1.049,2.9947 -2.15,4.0084 -0.863,0.7961 -3.786,2.292 -4.477,2.292 -0.205,0 -0.505,-0.1903 -0.668,-0.4233 z m 3.127,-1.7899 c 0.313,-0.2629 0.66,-0.7183 0.771,-1.012 0.243,-0.6488 0.687,-3.5181 0.564,-3.6428 -0.05,-0.049 -0.535,0.4425 -1.078,1.0924 -0.738,0.8843 -0.959,1.2885 -0.88,1.6073 0.07,0.2679 -0.04,0.6125 -0.29,0.9297 -0.451,0.5738 -0.497,0.9387 -0.164,1.2723 0.322,0.3221 0.431,0.2968 1.077,-0.2469 z m 15.938,1.8207 c -0.314,-0.3474 -0.325,-0.4711 -0.107,-1.0748 0.135,-0.3752 0.201,-0.7267 0.147,-0.7815 -0.05,-0.054 -0.713,0.2595 -1.465,0.698 -2.449,1.4306 -3.902,1.7196 -4.646,0.9243 -0.224,-0.2386 -0.456,-0.6741 -0.514,-0.9679 -0.161,-0.7955 -0.39,-0.8232 -1.315,-0.1587 -0.991,0.711 -2.744,1.5557 -3.235,1.5585 -0.579,0 -1.293,-0.8707 -1.293,-1.5829 0,-0.6192 1.688,-3.8253 2.675,-5.0788 0.225,-0.2868 0.409,-0.6428 0.409,-0.7911 0,-0.5282 0.986,-2.2027 1.412,-2.3959 0.444,-0.2027 2.445,-3.1247 2.445,-3.5712 0,-0.3381 1.558,-1.2301 2.148,-1.2301 0.519,0 0.937,0.3192 0.937,0.7162 0,0.1396 -0.521,0.9085 -1.156,1.7091 -1.634,2.0552 -1.69,2.1849 -1.132,2.6093 0.388,0.2957 0.421,0.3988 0.213,0.6929 -0.271,0.3854 -0.54,0.9454 -0.699,1.4539 -0.09,0.247 -0.311,0.3374 -0.873,0.3374 -0.879,0 -1.163,0.2962 -2.508,2.5994 -1.124,1.926 -1.038,2.7507 0.221,2.1035 0.802,-0.4129 2.849,-1.9773 2.849,-2.1785 0,-0.2525 2.104,-3.3243 2.996,-4.3703 0.934,-1.0979 2.143,-1.6243 3.732,-1.6243 0.798,0 0.939,0.066 1.245,0.5838 0.524,0.8849 0.158,2.1359 -1.082,3.714 -0.772,0.982 -2.695,2.262 -3.576,2.3795 -1.367,0.1825 -1.536,0.2573 -1.654,0.7279 -0.422,1.68 1.195,1.5628 3.932,-0.2853 1.533,-1.0358 2.131,-1.8044 3.577,-4.6137 0.939,-1.8227 1.359,-2.1234 2.529,-1.8099 0.736,0.1973 0.69,0.654 -0.197,1.9847 -1.703,2.5541 -1.622,2.758 0.3,0.7497 2.079,-2.1736 2.867,-2.614 3.518,-1.9645 0.383,0.3845 0.258,0.8217 -0.6,2.0978 -0.355,0.5287 -0.647,1.0411 -0.647,1.1383 0,0.2997 0.746,-0.4684 2.544,-2.6199 1.623,-1.9411 1.775,-2.0703 2.592,-2.193 0.911,-0.1364 1.108,-0.046 1.3,0.5985 0.1,0.2925 -0.291,0.937 -1.5,2.5469 -1.621,2.1605 -2.429,3.547 -2.429,4.1652 0,0.55 0.545,0.5838 1.306,0.081 0.78,-0.5166 3.436,-3.8184 4.494,-5.5864 0.47,-0.7878 0.85,-1.1789 1.333,-1.3743 1.135,-0.4591 1.81,-0.5439 2.181,-0.2735 0.328,0.239 0.325,0.2894 -0.03,1.1139 -0.208,0.4751 -0.47,1.6418 -0.585,2.5924 -0.263,2.1769 -0.884,3.4547 -2.334,4.7938 -1.027,0.9494 -3.612,2.2552 -4.458,2.2509 -0.495,0 -0.781,-0.4977 -0.743,-1.2929 0.02,-0.4031 0.03,-0.7935 0.02,-0.8677 0,-0.075 -0.538,0.1231 -1.174,0.4383 -1.534,0.7608 -2.168,0.8771 -2.573,0.4716 -0.492,-0.4928 -0.384,-1.4188 0.336,-2.8476 0.361,-0.7157 0.587,-1.3013 0.505,-1.3013 -0.223,0 -3.131,3.5778 -3.515,4.3252 -0.481,0.9306 -0.886,1.0079 -1.587,0.3032 l -0.591,-0.5932 0.86,-1.6244 c 0.473,-0.8932 0.817,-1.6671 0.762,-1.7197 -0.116,-0.1183 -1.92,1.8882 -3.144,3.5021 -0.999,1.315 -1.515,1.5104 -2.146,0.8123 z m 15.635,-1.9691 c 0.613,-0.5627 0.712,-0.7994 0.974,-2.324 0.416,-2.425 0.34,-2.5245 -0.839,-1.0843 -0.658,0.8033 -0.974,1.3501 -0.905,1.5661 0.06,0.1826 -0.1,0.6733 -0.332,1.0906 -0.37,0.6432 -0.398,0.8059 -0.179,1.0685 0.358,0.4326 0.507,0.3958 1.281,-0.3169 z m -16.855,-3.5666 c 0.754,-0.8385 1.806,-2.4636 1.987,-3.0682 0.217,-0.733 -0.301,-0.7611 -0.903,-0.048 -0.953,1.1224 -2.46,3.3233 -2.46,3.5881 0,0.4929 0.738,0.2408 1.376,-0.4711 z m -91.213,-4.9025 c -2.419,-0.1564 -4.73,-0.7889 -6.269,-1.7147 -2.066,-1.2419 -3.667,-3.4724 -4.166,-5.8002 -0.312,-1.4472 -0.1,-4.1881 0.475,-6.0419 0.589,-1.9168 12.411,-36.2893 12.567,-36.5421 0.144,-0.2323 13.908,-0.2494 14.053,-0.017 0.06,0.092 -1.551,4.8846 -3.57,10.6516 -2.019,5.7667 -4.922,14.0659 -6.453,18.4423 -1.53,4.3765 -2.781,8.2568 -2.781,8.6229 0,0.9507 0.632,1.3277 2.034,1.2116 1.721,-0.143 2.533,-0.9642 3.416,-3.4593 0.274,-0.7785 2.507,-7.1849 4.96,-14.2362 2.452,-7.0511 5.127,-14.7288 5.942,-17.0616 l 1.48,-4.2412 6.94,0 c 6.82,0 6.94,0.011 6.918,0.3856 -0.02,0.3446 -11.098,32.2844 -12.27,35.3762 -3.953,10.4344 -11.611,15.1796 -23.276,14.4244 z m 8.096,-3.2316 c 0.901,-0.2243 2.508,-0.8341 3.567,-1.3549 3.148,-1.5465 4.828,-3.1081 6.908,-6.4205 1.354,-2.1576 1.855,-3.3748 4.38,-10.6468 1.14,-3.287 3.599,-10.3574 5.467,-15.7121 1.866,-5.3546 3.352,-9.8459 3.301,-9.9806 -0.07,-0.1894 -0.999,-0.2331 -4.095,-0.1928 l -4.001,0.051 -5.981,17.1911 c -3.288,9.455 -6.223,17.6876 -6.521,18.2948 -0.792,1.612 -1.358,2.2672 -2.494,2.8877 -0.858,0.4684 -1.287,0.5653 -2.795,0.6324 -1.633,0.073 -1.874,0.036 -2.846,-0.4413 -1.116,-0.5446 -1.558,-1.1249 -1.851,-2.4158 -0.258,-1.1478 -0.871,0.7565 8.053,-25.0373 2.248,-6.496 3.691,-10.9366 3.585,-11.041 -0.1,-0.097 -1.966,-0.1514 -4.189,-0.1227 l -4.018,0.051 -0.334,0.9639 c -4.882,14.0055 -11.623,33.8613 -11.865,34.948 -0.99,4.4511 1.085,7.5703 5.745,8.6293 1.861,0.4232 7.82,0.2528 9.984,-0.2857 z m 12.532,2.8792 c 0,-0.1093 2.987,-8.6773 6.638,-19.04 10.143,-28.7953 10.697,-30.3513 10.93,-30.6302 0.175,-0.2116 1.974,-0.2597 9.687,-0.2584 11.77,0 13.476,0.1709 16.195,1.6025 3.099,1.6318 4.686,4.8849 4.174,8.5578 -0.42,3.0319 -1.382,6.0313 -2.732,8.5383 -1.251,2.3229 -2.666,3.9059 -5.088,5.6973 l -1.46,1.0809 0.768,0.8349 c 0.51,0.5512 0.811,1.0866 0.89,1.5751 0.07,0.4073 0.149,0.8947 0.188,1.0835 0.171,0.8495 -0.451,3.5424 -2.4,10.4007 -1.977,6.9514 -2.082,7.4106 -1.822,7.938 0.352,0.7141 0.347,0.9772 -0.04,1.9882 l -0.316,0.8257 -7.287,0 c -5.298,0 -7.327,-0.061 -7.426,-0.2226 -0.08,-0.1222 -0.13,-0.8996 -0.117,-1.7274 0.02,-1.3679 0.203,-2.0651 2.053,-7.6585 2.577,-7.7935 2.627,-8.5077 0.635,-8.8052 -0.449,-0.066 -1.206,-0.094 -1.682,-0.06 l -0.867,0.063 -3.285,9.1573 -3.285,9.1575 -7.176,0.05 c -4.835,0.034 -7.175,-0.014 -7.175,-0.1485 z m 15.706,-11.7263 c 2.019,-5.613 3.403,-9.1923 3.599,-9.2993 0.185,-0.1025 1.35,-0.1067 2.824,-0.011 2.837,0.185 3.942,0.568 4.769,1.6528 1.244,1.628 1.006,3.3952 -1.438,10.7545 -1.058,3.1903 -1.88,5.8734 -1.825,5.9624 0.05,0.089 2.177,0.1617 4.716,0.1617 l 4.615,0 0,-0.5301 c 0,-0.2916 0.967,-3.9137 2.148,-8.0489 2.43,-8.5045 2.699,-10.0643 1.873,-10.8322 -0.25,-0.2318 -1.062,-0.6798 -1.804,-0.9956 -1.236,-0.5256 -1.354,-0.6262 -1.411,-1.1953 -0.116,-1.1435 0.07,-1.4264 1.26,-1.9053 3.813,-1.5356 6.775,-4.4921 8.366,-8.3527 1.139,-2.7627 1.737,-6.1242 1.442,-8.0971 -0.296,-1.9705 -1.963,-3.4823 -4.66,-4.225 -1.452,-0.3991 -1.995,-0.4239 -10.984,-0.4976 -7.781,-0.064 -9.497,-0.031 -9.677,0.1829 -0.214,0.2618 -15.454,43.2484 -15.621,44.0669 l -0.08,0.4377 4.308,-0.051 4.307,-0.051 3.282,-9.1254 z m 5.623,-15.4125 c -0.184,-0.2985 4.699,-13.5935 5.132,-13.9758 0.341,-0.2984 0.648,-0.3271 2.435,-0.2267 3.071,0.1726 3.981,0.394 4.848,1.1766 1.482,1.3384 1.708,3.4225 0.69,6.3795 -1.083,3.1484 -2.661,5.2271 -4.694,6.179 -1.062,0.4984 -1.269,0.524 -4.706,0.5841 -2.09,0.037 -3.64,-0.012 -3.705,-0.1167 z m 7.106,-2.9093 c 1.537,-0.702 2.705,-2.3851 3.545,-5.106 0.501,-1.6237 0.512,-2.2656 0.05,-2.8349 -0.308,-0.3797 -0.58,-0.4518 -1.983,-0.5253 -1.225,-0.065 -1.677,-0.021 -1.833,0.1775 -0.318,0.4066 -3.145,8.3156 -3.036,8.4924 0.187,0.3006 2.463,0.1579 3.255,-0.2037 z"
       style="fill:#ffffff" />
  </g>
</svg>
